<?xml version="1.0" encoding="UTF-8" standalone="no"?>
<!DOCTYPE svg PUBLIC "-//W3C//DTD SVG 1.1//EN"
 "http://www.w3.org/Graphics/SVG/1.1/DTD/svg11.dtd">
<!-- Generated by graphviz version 2.38.0 (20140413.2041)
 -->
<!-- Title: snakemake_dag Pages: 1 -->
<svg width="539pt" height="1056pt"
 viewBox="0.00 0.00 538.96 1056.00" xmlns="http://www.w3.org/2000/svg" xmlns:xlink="http://www.w3.org/1999/xlink">
<g id="graph0" class="graph" transform="scale(1 1) rotate(0) translate(4 1052)">
<title>snakemake_dag</title>
<polygon fill="white" stroke="none" points="-4,4 -4,-1052 534.958,-1052 534.958,4 -4,4"/>
<!-- 0 -->
<g id="node1" class="node"><title>0</title>
<path fill="none" stroke="#d89c56" stroke-width="2" d="M273,-36C273,-36 243,-36 243,-36 237,-36 231,-30 231,-24 231,-24 231,-12 231,-12 231,-6 237,-0 243,-0 243,-0 273,-0 273,-0 279,-0 285,-6 285,-12 285,-12 285,-24 285,-24 285,-30 279,-36 273,-36"/>
<text text-anchor="middle" x="258" y="-15" font-family="sans" font-size="10.00">all</text>
</g>
<!-- 1 -->
<g id="node2" class="node"><title>1</title>
<path fill="none" stroke="#d8b456" stroke-width="2" d="M151.875,-108C151.875,-108 86.1252,-108 86.1252,-108 80.1252,-108 74.1252,-102 74.1252,-96 74.1252,-96 74.1252,-84 74.1252,-84 74.1252,-78 80.1252,-72 86.1252,-72 86.1252,-72 151.875,-72 151.875,-72 157.875,-72 163.875,-78 163.875,-84 163.875,-84 163.875,-96 163.875,-96 163.875,-102 157.875,-108 151.875,-108"/>
<text text-anchor="middle" x="119" y="-87" font-family="sans" font-size="10.00">merge_renamed</text>
</g>
<!-- 1&#45;&gt;0 -->
<g id="edge1" class="edge"><title>1&#45;&gt;0</title>
<path fill="none" stroke="grey" stroke-width="2" d="M153.003,-71.8761C173.867,-61.3692 200.564,-47.9245 221.817,-37.2217"/>
<polygon fill="grey" stroke="grey" stroke-width="2" points="223.501,-40.2926 230.858,-32.6687 220.352,-34.0406 223.501,-40.2926"/>
</g>
<!-- 2 -->
<g id="node3" class="node"><title>2</title>
<path fill="none" stroke="#56d87b" stroke-width="2" d="M284.092,-108C284.092,-108 231.908,-108 231.908,-108 225.908,-108 219.908,-102 219.908,-96 219.908,-96 219.908,-84 219.908,-84 219.908,-78 225.908,-72 231.908,-72 231.908,-72 284.092,-72 284.092,-72 290.092,-72 296.092,-78 296.092,-84 296.092,-84 296.092,-96 296.092,-96 296.092,-102 290.092,-108 284.092,-108"/>
<text text-anchor="middle" x="258" y="-87" font-family="sans" font-size="10.00">merge_tables</text>
</g>
<!-- 2&#45;&gt;0 -->
<g id="edge2" class="edge"><title>2&#45;&gt;0</title>
<path fill="none" stroke="grey" stroke-width="2" d="M258,-71.6966C258,-63.9827 258,-54.7125 258,-46.1124"/>
<polygon fill="grey" stroke="grey" stroke-width="2" points="261.5,-46.1043 258,-36.1043 254.5,-46.1044 261.5,-46.1043"/>
</g>
<!-- 3 -->
<g id="node4" class="node"><title>3</title>
<path fill="none" stroke="#56d8d0" stroke-width="2" d="M380,-180C380,-180 350,-180 350,-180 344,-180 338,-174 338,-168 338,-168 338,-156 338,-156 338,-150 344,-144 350,-144 350,-144 380,-144 380,-144 386,-144 392,-150 392,-156 392,-156 392,-168 392,-168 392,-174 386,-180 380,-180"/>
<text text-anchor="middle" x="365" y="-159" font-family="sans" font-size="10.00">multiqc</text>
</g>
<!-- 3&#45;&gt;0 -->
<g id="edge3" class="edge"><title>3&#45;&gt;0</title>
<path fill="none" stroke="grey" stroke-width="2" d="M363.271,-143.705C360.609,-124.537 354.009,-93.4972 338,-72 326.687,-56.809 309.645,-44.6579 294.193,-35.8426"/>
<polygon fill="grey" stroke="grey" stroke-width="2" points="295.793,-32.7291 285.334,-31.04 292.457,-38.883 295.793,-32.7291"/>
</g>
<!-- 4 -->
<g id="node5" class="node"><title>4</title>
<path fill="none" stroke="#d88556" stroke-width="2" d="M215,-398C215,-398 185,-398 185,-398 179,-398 173,-392 173,-386 173,-386 173,-374 173,-374 173,-368 179,-362 185,-362 185,-362 215,-362 215,-362 221,-362 227,-368 227,-374 227,-374 227,-386 227,-386 227,-392 221,-398 215,-398"/>
<text text-anchor="middle" x="200" y="-377" font-family="sans" font-size="10.00">lofreq</text>
</g>
<!-- 4&#45;&gt;0 -->
<g id="edge4" class="edge"><title>4&#45;&gt;0</title>
<path fill="none" stroke="grey" stroke-width="2" d="M196.729,-361.877C188.373,-313.955 169.688,-175.24 211,-72 215.155,-61.6168 222.289,-51.9225 229.761,-43.7379"/>
<polygon fill="grey" stroke="grey" stroke-width="2" points="232.462,-45.9813 236.942,-36.3803 227.452,-41.0919 232.462,-45.9813"/>
</g>
<!-- 12 -->
<g id="node13" class="node"><title>12</title>
<path fill="none" stroke="#78d856" stroke-width="2" d="M270,-253C270,-253 240,-253 240,-253 234,-253 228,-247 228,-241 228,-241 228,-229 228,-229 228,-223 234,-217 240,-217 240,-217 270,-217 270,-217 276,-217 282,-223 282,-229 282,-229 282,-241 282,-241 282,-247 276,-253 270,-253"/>
<text text-anchor="middle" x="255" y="-232" font-family="sans" font-size="10.00">snpeff</text>
</g>
<!-- 4&#45;&gt;12 -->
<g id="edge23" class="edge"><title>4&#45;&gt;12</title>
<path fill="none" stroke="grey" stroke-width="2" d="M206.634,-361.751C216.091,-337.164 233.532,-291.816 244.684,-262.823"/>
<polygon fill="grey" stroke="grey" stroke-width="2" points="248.019,-263.9 248.342,-253.31 241.486,-261.387 248.019,-263.9"/>
</g>
<!-- 20 -->
<g id="node21" class="node"><title>20</title>
<path fill="none" stroke="#56c9d8" stroke-width="2" d="M160,-326C160,-326 130,-326 130,-326 124,-326 118,-320 118,-314 118,-314 118,-302 118,-302 118,-296 124,-290 130,-290 130,-290 160,-290 160,-290 166,-290 172,-296 172,-302 172,-302 172,-314 172,-314 172,-320 166,-326 160,-326"/>
<text text-anchor="middle" x="145" y="-305" font-family="sans" font-size="10.00">vcffilter</text>
</g>
<!-- 4&#45;&gt;20 -->
<g id="edge32" class="edge"><title>4&#45;&gt;20</title>
<path fill="none" stroke="grey" stroke-width="2" d="M186.404,-361.697C179.877,-353.389 171.932,-343.277 164.753,-334.141"/>
<polygon fill="grey" stroke="grey" stroke-width="2" points="167.369,-331.805 158.439,-326.104 161.865,-336.13 167.369,-331.805"/>
</g>
<!-- 5 -->
<g id="node6" class="node"><title>5</title>
<path fill="none" stroke="#5682d8" stroke-width="2" d="M303,-398C303,-398 273,-398 273,-398 267,-398 261,-392 261,-386 261,-386 261,-374 261,-374 261,-368 267,-362 273,-362 273,-362 303,-362 303,-362 309,-362 315,-368 315,-374 315,-374 315,-386 315,-386 315,-392 309,-398 303,-398"/>
<text text-anchor="middle" x="288" y="-377" font-family="sans" font-size="10.00">pileup</text>
</g>
<!-- 5&#45;&gt;0 -->
<g id="edge5" class="edge"><title>5&#45;&gt;0</title>
<path fill="none" stroke="grey" stroke-width="2" d="M293.617,-361.962C308.379,-314.258 344.492,-176.056 305,-72 301.032,-61.544 293.952,-51.8287 286.472,-43.6472"/>
<polygon fill="grey" stroke="grey" stroke-width="2" points="288.767,-40.9886 279.267,-36.299 283.769,-45.8896 288.767,-40.9886"/>
</g>
<!-- 6 -->
<g id="node7" class="node"><title>6</title>
<path fill="none" stroke="#8fd856" stroke-width="2" stroke-dasharray="5,2" d="M107,-830C107,-830 77,-830 77,-830 71,-830 65,-824 65,-818 65,-818 65,-806 65,-806 65,-800 71,-794 77,-794 77,-794 107,-794 107,-794 113,-794 119,-800 119,-806 119,-806 119,-818 119,-818 119,-824 113,-830 107,-830"/>
<text text-anchor="middle" x="92" y="-809" font-family="sans" font-size="10.00">filter</text>
</g>
<!-- 6&#45;&gt;0 -->
<g id="edge6" class="edge"><title>6&#45;&gt;0</title>
<path fill="none" stroke="grey" stroke-width="2" d="M71.1238,-793.632C43.9799,-768.972 0,-720.993 0,-669 0,-669 0,-669 0,-161 0,-117.99 5.15483,-99.7682 38,-72 90.159,-27.9034 172.936,-19.2565 220.69,-18.2479"/>
<polygon fill="grey" stroke="grey" stroke-width="2" points="220.934,-21.7455 230.896,-18.138 220.859,-14.7459 220.934,-21.7455"/>
</g>
<!-- 8 -->
<g id="node9" class="node"><title>8</title>
<path fill="none" stroke="#56d8a2" stroke-width="2" stroke-dasharray="5,2" d="M440.756,-253C440.756,-253 391.244,-253 391.244,-253 385.244,-253 379.244,-247 379.244,-241 379.244,-241 379.244,-229 379.244,-229 379.244,-223 385.244,-217 391.244,-217 391.244,-217 440.756,-217 440.756,-217 446.756,-217 452.756,-223 452.756,-229 452.756,-229 452.756,-241 452.756,-241 452.756,-247 446.756,-253 440.756,-253"/>
<text text-anchor="middle" x="416" y="-232" font-family="sans" font-size="10.00">fastq_screen</text>
</g>
<!-- 6&#45;&gt;8 -->
<g id="edge20" class="edge"><title>6&#45;&gt;8</title>
<path fill="none" stroke="grey" stroke-width="2" d="M119.067,-811.389C196.937,-810.964 416,-798.279 416,-669 416,-669 416,-669 416,-379 416,-338.714 416,-292.045 416,-263.271"/>
<polygon fill="grey" stroke="grey" stroke-width="2" points="419.5,-263.169 416,-253.169 412.5,-263.169 419.5,-263.169"/>
</g>
<!-- 16 -->
<g id="node17" class="node"><title>16</title>
<path fill="none" stroke="#d6d856" stroke-width="2" stroke-dasharray="5,2" d="M109.897,-758C109.897,-758 74.1034,-758 74.1034,-758 68.1034,-758 62.1034,-752 62.1034,-746 62.1034,-746 62.1034,-734 62.1034,-734 62.1034,-728 68.1034,-722 74.1034,-722 74.1034,-722 109.897,-722 109.897,-722 115.897,-722 121.897,-728 121.897,-734 121.897,-734 121.897,-746 121.897,-746 121.897,-752 115.897,-758 109.897,-758"/>
<text text-anchor="middle" x="92" y="-737" font-family="sans" font-size="10.00">maprRNA</text>
</g>
<!-- 6&#45;&gt;16 -->
<g id="edge27" class="edge"><title>6&#45;&gt;16</title>
<path fill="none" stroke="grey" stroke-width="2" d="M92,-793.697C92,-785.983 92,-776.712 92,-768.112"/>
<polygon fill="grey" stroke="grey" stroke-width="2" points="95.5001,-768.104 92,-758.104 88.5001,-768.104 95.5001,-768.104"/>
</g>
<!-- 7 -->
<g id="node8" class="node"><title>7</title>
<path fill="none" stroke="#bed856" stroke-width="2" stroke-dasharray="5,2" d="M107.356,-686C107.356,-686 76.6443,-686 76.6443,-686 70.6443,-686 64.6443,-680 64.6443,-674 64.6443,-674 64.6443,-662 64.6443,-662 64.6443,-656 70.6443,-650 76.6443,-650 76.6443,-650 107.356,-650 107.356,-650 113.356,-650 119.356,-656 119.356,-662 119.356,-662 119.356,-674 119.356,-674 119.356,-680 113.356,-686 107.356,-686"/>
<text text-anchor="middle" x="92" y="-665" font-family="sans" font-size="10.00">maphost</text>
</g>
<!-- 7&#45;&gt;0 -->
<g id="edge7" class="edge"><title>7&#45;&gt;0</title>
<path fill="none" stroke="grey" stroke-width="2" d="M80.8112,-649.87C64.9942,-623.957 38,-572.739 38,-525 38,-525 38,-525 38,-161 38,-119.664 35.3859,-100.838 65,-72 107.086,-31.0165 177.756,-21.0491 220.903,-19.0059"/>
<polygon fill="grey" stroke="grey" stroke-width="2" points="221.113,-22.5008 230.982,-18.6492 220.865,-15.5051 221.113,-22.5008"/>
</g>
<!-- 21 -->
<g id="node22" class="node"><title>21</title>
<path fill="none" stroke="#d86e56" stroke-width="2" stroke-dasharray="5,2" d="M145.808,-614C145.808,-614 106.192,-614 106.192,-614 100.192,-614 94.1921,-608 94.1921,-602 94.1921,-602 94.1921,-590 94.1921,-590 94.1921,-584 100.192,-578 106.192,-578 106.192,-578 145.808,-578 145.808,-578 151.808,-578 157.808,-584 157.808,-590 157.808,-590 157.808,-602 157.808,-602 157.808,-608 151.808,-614 145.808,-614"/>
<text text-anchor="middle" x="126" y="-593" font-family="sans" font-size="10.00">refgenome</text>
</g>
<!-- 7&#45;&gt;21 -->
<g id="edge33" class="edge"><title>7&#45;&gt;21</title>
<path fill="none" stroke="grey" stroke-width="2" d="M100.404,-649.697C104.275,-641.728 108.952,-632.1 113.243,-623.264"/>
<polygon fill="grey" stroke="grey" stroke-width="2" points="116.471,-624.629 117.692,-614.104 110.175,-621.57 116.471,-624.629"/>
</g>
<!-- 8&#45;&gt;0 -->
<g id="edge8" class="edge"><title>8&#45;&gt;0</title>
<path fill="none" stroke="grey" stroke-width="2" d="M415.148,-216.897C412.58,-184.079 402.282,-111.987 361,-72 342.21,-53.7997 315.922,-40.4114 294.607,-31.6441"/>
<polygon fill="grey" stroke="grey" stroke-width="2" points="295.796,-28.3505 285.209,-27.9403 293.229,-34.863 295.796,-28.3505"/>
</g>
<!-- 8&#45;&gt;3 -->
<g id="edge12" class="edge"><title>8&#45;&gt;3</title>
<path fill="none" stroke="grey" stroke-width="2" d="M403.654,-216.813C397.515,-208.266 389.975,-197.769 383.19,-188.323"/>
<polygon fill="grey" stroke="grey" stroke-width="2" points="385.909,-186.109 377.232,-180.029 380.223,-190.193 385.909,-186.109"/>
</g>
<!-- 9 -->
<g id="node10" class="node"><title>9</title>
<path fill="none" stroke="#61d856" stroke-width="2" stroke-dasharray="5,2" d="M518.916,-254C518.916,-254 483.084,-254 483.084,-254 477.084,-254 471.084,-248 471.084,-242 471.084,-242 471.084,-228 471.084,-228 471.084,-222 477.084,-216 483.084,-216 483.084,-216 518.916,-216 518.916,-216 524.916,-216 530.916,-222 530.916,-228 530.916,-228 530.916,-242 530.916,-242 530.916,-248 524.916,-254 518.916,-254"/>
<text text-anchor="middle" x="501" y="-242" font-family="sans" font-size="10.00">fastqc</text>
<text text-anchor="middle" x="501" y="-232" font-family="sans" font-size="10.00">run: A1</text>
<text text-anchor="middle" x="501" y="-222" font-family="sans" font-size="10.00">sample: A</text>
</g>
<!-- 9&#45;&gt;0 -->
<g id="edge9" class="edge"><title>9&#45;&gt;0</title>
<path fill="none" stroke="grey" stroke-width="2" d="M492.739,-215.882C476.88,-182.947 439.157,-112.899 388,-72 360.533,-50.0408 322.733,-35.9989 294.972,-27.9251"/>
<polygon fill="grey" stroke="grey" stroke-width="2" points="295.809,-24.5249 285.237,-25.2169 293.933,-31.2689 295.809,-24.5249"/>
</g>
<!-- 9&#45;&gt;3 -->
<g id="edge13" class="edge"><title>9&#45;&gt;3</title>
<path fill="none" stroke="grey" stroke-width="2" d="M470.817,-218.243C450.275,-207.519 422.982,-193.27 401.26,-181.93"/>
<polygon fill="grey" stroke="grey" stroke-width="2" points="402.812,-178.792 392.327,-177.267 399.572,-184.997 402.812,-178.792"/>
</g>
<!-- 10 -->
<g id="node11" class="node"><title>10</title>
<path fill="none" stroke="#a7d856" stroke-width="2" d="M134,-180C134,-180 104,-180 104,-180 98,-180 92,-174 92,-168 92,-168 92,-156 92,-156 92,-150 98,-144 104,-144 104,-144 134,-144 134,-144 140,-144 146,-150 146,-156 146,-156 146,-168 146,-168 146,-174 140,-180 134,-180"/>
<text text-anchor="middle" x="119" y="-159" font-family="sans" font-size="10.00">rename</text>
</g>
<!-- 10&#45;&gt;1 -->
<g id="edge10" class="edge"><title>10&#45;&gt;1</title>
<path fill="none" stroke="grey" stroke-width="2" d="M119,-143.697C119,-135.983 119,-126.712 119,-118.112"/>
<polygon fill="grey" stroke="grey" stroke-width="2" points="122.5,-118.104 119,-108.104 115.5,-118.104 122.5,-118.104"/>
</g>
<!-- 11 -->
<g id="node12" class="node"><title>11</title>
<path fill="none" stroke="#569ad8" stroke-width="2" d="M270,-180C270,-180 240,-180 240,-180 234,-180 228,-174 228,-168 228,-168 228,-156 228,-156 228,-150 234,-144 240,-144 240,-144 270,-144 270,-144 276,-144 282,-150 282,-156 282,-156 282,-168 282,-168 282,-174 276,-180 270,-180"/>
<text text-anchor="middle" x="255" y="-159" font-family="sans" font-size="10.00">snpsift</text>
</g>
<!-- 11&#45;&gt;2 -->
<g id="edge11" class="edge"><title>11&#45;&gt;2</title>
<path fill="none" stroke="grey" stroke-width="2" d="M255.742,-143.697C256.072,-135.983 256.469,-126.712 256.838,-118.112"/>
<polygon fill="grey" stroke="grey" stroke-width="2" points="260.335,-118.245 257.267,-108.104 253.342,-117.945 260.335,-118.245"/>
</g>
<!-- 12&#45;&gt;3 -->
<g id="edge14" class="edge"><title>12&#45;&gt;3</title>
<path fill="none" stroke="grey" stroke-width="2" d="M281.348,-216.994C295.935,-207.579 314.252,-195.755 330.025,-185.575"/>
<polygon fill="grey" stroke="grey" stroke-width="2" points="331.982,-188.477 338.486,-180.114 328.186,-182.596 331.982,-188.477"/>
</g>
<!-- 12&#45;&gt;11 -->
<g id="edge22" class="edge"><title>12&#45;&gt;11</title>
<path fill="none" stroke="grey" stroke-width="2" d="M255,-216.813C255,-208.789 255,-199.047 255,-190.069"/>
<polygon fill="grey" stroke="grey" stroke-width="2" points="258.5,-190.029 255,-180.029 251.5,-190.029 258.5,-190.029"/>
</g>
<!-- 13 -->
<g id="node14" class="node"><title>13</title>
<path fill="none" stroke="#566bd8" stroke-width="2" stroke-dasharray="5,2" d="M376.073,-326C376.073,-326 343.927,-326 343.927,-326 337.927,-326 331.927,-320 331.927,-314 331.927,-314 331.927,-302 331.927,-302 331.927,-296 337.927,-290 343.927,-290 343.927,-290 376.073,-290 376.073,-290 382.073,-290 388.073,-296 388.073,-302 388.073,-302 388.073,-314 388.073,-314 388.073,-320 382.073,-326 376.073,-326"/>
<text text-anchor="middle" x="360" y="-305" font-family="sans" font-size="10.00">bamstats</text>
</g>
<!-- 13&#45;&gt;3 -->
<g id="edge15" class="edge"><title>13&#45;&gt;3</title>
<path fill="none" stroke="grey" stroke-width="2" d="M360.593,-289.916C361.446,-265.341 363.029,-219.753 364.048,-190.427"/>
<polygon fill="grey" stroke="grey" stroke-width="2" points="367.558,-190.177 364.408,-180.062 360.563,-189.934 367.558,-190.177"/>
</g>
<!-- 14 -->
<g id="node15" class="node"><title>14</title>
<path fill="none" stroke="#d8c356" stroke-width="2" stroke-dasharray="5,2" d="M232.921,-470C232.921,-470 167.079,-470 167.079,-470 161.079,-470 155.079,-464 155.079,-458 155.079,-458 155.079,-446 155.079,-446 155.079,-440 161.079,-434 167.079,-434 167.079,-434 232.921,-434 232.921,-434 238.921,-434 244.921,-440 244.921,-446 244.921,-446 244.921,-458 244.921,-458 244.921,-464 238.921,-470 232.921,-470"/>
<text text-anchor="middle" x="200" y="-449" font-family="sans" font-size="10.00">samtools_merge</text>
</g>
<!-- 14&#45;&gt;4 -->
<g id="edge16" class="edge"><title>14&#45;&gt;4</title>
<path fill="none" stroke="grey" stroke-width="2" d="M200,-433.697C200,-425.983 200,-416.712 200,-408.112"/>
<polygon fill="grey" stroke="grey" stroke-width="2" points="203.5,-408.104 200,-398.104 196.5,-408.104 203.5,-408.104"/>
</g>
<!-- 14&#45;&gt;5 -->
<g id="edge17" class="edge"><title>14&#45;&gt;5</title>
<path fill="none" stroke="grey" stroke-width="2" d="M221.753,-433.697C232.836,-424.881 246.474,-414.032 258.49,-404.474"/>
<polygon fill="grey" stroke="grey" stroke-width="2" points="260.85,-407.069 266.497,-398.104 256.493,-401.59 260.85,-407.069"/>
</g>
<!-- 14&#45;&gt;13 -->
<g id="edge24" class="edge"><title>14&#45;&gt;13</title>
<path fill="none" stroke="grey" stroke-width="2" d="M245.06,-440.913C271.047,-433.058 302.69,-419.73 324,-398 340.619,-381.053 349.888,-355.42 354.842,-336.009"/>
<polygon fill="grey" stroke="grey" stroke-width="2" points="358.26,-336.765 357.113,-326.232 351.441,-335.181 358.26,-336.765"/>
</g>
<!-- 17 -->
<g id="node18" class="node"><title>17</title>
<path fill="none" stroke="#56b1d8" stroke-width="2" d="M159.508,-253C159.508,-253 78.492,-253 78.492,-253 72.492,-253 66.492,-247 66.492,-241 66.492,-241 66.492,-229 66.492,-229 66.492,-223 72.492,-217 78.492,-217 78.492,-217 159.508,-217 159.508,-217 165.508,-217 171.508,-223 171.508,-229 171.508,-229 171.508,-241 171.508,-241 171.508,-247 165.508,-253 159.508,-253"/>
<text text-anchor="middle" x="119" y="-232" font-family="sans" font-size="10.00">genome_consensus</text>
</g>
<!-- 14&#45;&gt;17 -->
<g id="edge28" class="edge"><title>14&#45;&gt;17</title>
<path fill="none" stroke="grey" stroke-width="2" d="M181.652,-433.638C159.456,-411.239 123.288,-369.903 109,-326 102.299,-305.41 105.703,-280.923 110.279,-262.693"/>
<polygon fill="grey" stroke="grey" stroke-width="2" points="113.663,-263.589 112.962,-253.017 106.917,-261.718 113.663,-263.589"/>
</g>
<!-- 15 -->
<g id="node16" class="node"><title>15</title>
<path fill="none" stroke="#56d8b9" stroke-width="2" stroke-dasharray="5,2" d="M107,-902C107,-902 77,-902 77,-902 71,-902 65,-896 65,-890 65,-890 65,-878 65,-878 65,-872 71,-866 77,-866 77,-866 107,-866 107,-866 113,-866 119,-872 119,-878 119,-878 119,-890 119,-890 119,-896 113,-902 107,-902"/>
<text text-anchor="middle" x="92" y="-881" font-family="sans" font-size="10.00">trim</text>
</g>
<!-- 15&#45;&gt;6 -->
<g id="edge18" class="edge"><title>15&#45;&gt;6</title>
<path fill="none" stroke="grey" stroke-width="2" d="M92,-865.697C92,-857.983 92,-848.712 92,-840.112"/>
<polygon fill="grey" stroke="grey" stroke-width="2" points="95.5001,-840.104 92,-830.104 88.5001,-840.104 95.5001,-840.104"/>
</g>
<!-- 16&#45;&gt;7 -->
<g id="edge19" class="edge"><title>16&#45;&gt;7</title>
<path fill="none" stroke="grey" stroke-width="2" d="M92,-721.697C92,-713.983 92,-704.712 92,-696.112"/>
<polygon fill="grey" stroke="grey" stroke-width="2" points="95.5001,-696.104 92,-686.104 88.5001,-696.104 95.5001,-696.104"/>
</g>
<!-- 17&#45;&gt;10 -->
<g id="edge21" class="edge"><title>17&#45;&gt;10</title>
<path fill="none" stroke="grey" stroke-width="2" d="M119,-216.813C119,-208.789 119,-199.047 119,-190.069"/>
<polygon fill="grey" stroke="grey" stroke-width="2" points="122.5,-190.029 119,-180.029 115.5,-190.029 122.5,-190.029"/>
</g>
<!-- 18 -->
<g id="node19" class="node"><title>18</title>
<path fill="none" stroke="#56d892" stroke-width="2" stroke-dasharray="5,2" d="M184.385,-542C184.385,-542 123.615,-542 123.615,-542 117.615,-542 111.615,-536 111.615,-530 111.615,-530 111.615,-518 111.615,-518 111.615,-512 117.615,-506 123.615,-506 123.615,-506 184.385,-506 184.385,-506 190.385,-506 196.385,-512 196.385,-518 196.385,-518 196.385,-530 196.385,-530 196.385,-536 190.385,-542 184.385,-542"/>
<text text-anchor="middle" x="154" y="-521" font-family="sans" font-size="10.00">sort_and_index</text>
</g>
<!-- 18&#45;&gt;14 -->
<g id="edge25" class="edge"><title>18&#45;&gt;14</title>
<path fill="none" stroke="grey" stroke-width="2" d="M165.371,-505.697C170.718,-497.559 177.204,-487.689 183.111,-478.701"/>
<polygon fill="grey" stroke="grey" stroke-width="2" points="186.193,-480.384 188.76,-470.104 180.343,-476.539 186.193,-480.384"/>
</g>
<!-- 19 -->
<g id="node20" class="node"><title>19</title>
<path fill="none" stroke="#56d863" stroke-width="2" stroke-dasharray="5,2" d="M107,-974C107,-974 77,-974 77,-974 71,-974 65,-968 65,-962 65,-962 65,-950 65,-950 65,-944 71,-938 77,-938 77,-938 107,-938 107,-938 113,-938 119,-944 119,-950 119,-950 119,-962 119,-962 119,-968 113,-974 107,-974"/>
<text text-anchor="middle" x="92" y="-953" font-family="sans" font-size="10.00">clumpify</text>
</g>
<!-- 19&#45;&gt;15 -->
<g id="edge26" class="edge"><title>19&#45;&gt;15</title>
<path fill="none" stroke="grey" stroke-width="2" d="M92,-937.697C92,-929.983 92,-920.712 92,-912.112"/>
<polygon fill="grey" stroke="grey" stroke-width="2" points="95.5001,-912.104 92,-902.104 88.5001,-912.104 95.5001,-912.104"/>
</g>
<!-- 20&#45;&gt;17 -->
<g id="edge29" class="edge"><title>20&#45;&gt;17</title>
<path fill="none" stroke="grey" stroke-width="2" d="M138.706,-289.813C135.704,-281.615 132.045,-271.623 128.699,-262.485"/>
<polygon fill="grey" stroke="grey" stroke-width="2" points="131.961,-261.215 125.236,-253.029 125.388,-263.623 131.961,-261.215"/>
</g>
<!-- 21&#45;&gt;18 -->
<g id="edge30" class="edge"><title>21&#45;&gt;18</title>
<path fill="none" stroke="grey" stroke-width="2" d="M132.921,-577.697C136.075,-569.813 139.878,-560.304 143.381,-551.546"/>
<polygon fill="grey" stroke="grey" stroke-width="2" points="146.694,-552.689 147.158,-542.104 140.195,-550.089 146.694,-552.689"/>
</g>
<!-- 22 -->
<g id="node23" class="node"><title>22</title>
<path fill="none" stroke="#d85656" stroke-width="2" stroke-dasharray="5,2" d="M109.916,-1048C109.916,-1048 74.0839,-1048 74.0839,-1048 68.0839,-1048 62.0839,-1042 62.0839,-1036 62.0839,-1036 62.0839,-1022 62.0839,-1022 62.0839,-1016 68.0839,-1010 74.0839,-1010 74.0839,-1010 109.916,-1010 109.916,-1010 115.916,-1010 121.916,-1016 121.916,-1022 121.916,-1022 121.916,-1036 121.916,-1036 121.916,-1042 115.916,-1048 109.916,-1048"/>
<text text-anchor="middle" x="92" y="-1036" font-family="sans" font-size="10.00">reformat</text>
<text text-anchor="middle" x="92" y="-1026" font-family="sans" font-size="10.00">run: A1</text>
<text text-anchor="middle" x="92" y="-1016" font-family="sans" font-size="10.00">sample: A</text>
</g>
<!-- 22&#45;&gt;19 -->
<g id="edge31" class="edge"><title>22&#45;&gt;19</title>
<path fill="none" stroke="grey" stroke-width="2" d="M92,-1009.72C92,-1001.97 92,-992.789 92,-984.274"/>
<polygon fill="grey" stroke="grey" stroke-width="2" points="95.5001,-984.003 92,-974.003 88.5001,-984.003 95.5001,-984.003"/>
</g>
</g>
</svg>
