<?xml version="1.0" encoding="UTF-8" standalone="no"?>
<!DOCTYPE svg PUBLIC "-//W3C//DTD SVG 1.1//EN"
 "http://www.w3.org/Graphics/SVG/1.1/DTD/svg11.dtd">
<!-- Generated by graphviz version 2.42.3 (20191010.1750)
 -->
<!-- Title: snakemake_dag Pages: 1 -->
<svg width="361pt" height="1417pt"
 viewBox="0.00 0.00 361.00 1417.00" xmlns="http://www.w3.org/2000/svg" xmlns:xlink="http://www.w3.org/1999/xlink">
<g id="graph0" class="graph" transform="scale(1 1) rotate(0) translate(4 1413)">
<title>snakemake_dag</title>
<polygon fill="white" stroke="transparent" points="-4,4 -4,-1413 357,-1413 357,4 -4,4"/>
<!-- 0 -->
<g id="node1" class="node">
<title>0</title>
<path fill="none" stroke="#59d856" stroke-width="2" stroke-dasharray="5,2" d="M168,-36C168,-36 138,-36 138,-36 132,-36 126,-30 126,-24 126,-24 126,-12 126,-12 126,-6 132,0 138,0 138,0 168,0 168,0 174,0 180,-6 180,-12 180,-12 180,-24 180,-24 180,-30 174,-36 168,-36"/>
<text text-anchor="middle" x="153" y="-15.5" font-family="sans" font-size="10.00">all</text>
</g>
<!-- 1 -->
<g id="node2" class="node">
<title>1</title>
<path fill="none" stroke="#567bd8" stroke-width="2" stroke-dasharray="5,2" d="M150,-108C150,-108 84,-108 84,-108 78,-108 72,-102 72,-96 72,-96 72,-84 72,-84 72,-78 78,-72 84,-72 84,-72 150,-72 150,-72 156,-72 162,-78 162,-84 162,-84 162,-96 162,-96 162,-102 156,-108 150,-108"/>
<text text-anchor="middle" x="117" y="-87.5" font-family="sans" font-size="10.00">merge_renamed</text>
</g>
<!-- 1&#45;&gt;0 -->
<g id="edge1" class="edge">
<title>1&#45;&gt;0</title>
<path fill="none" stroke="grey" stroke-width="2" d="M125.9,-71.7C130,-63.73 134.95,-54.1 139.49,-45.26"/>
<polygon fill="grey" stroke="grey" stroke-width="2" points="142.74,-46.6 144.2,-36.1 136.52,-43.4 142.74,-46.6"/>
</g>
<!-- 2 -->
<g id="node3" class="node">
<title>2</title>
<path fill="none" stroke="#8fd856" stroke-width="2" stroke-dasharray="5,2" d="M125,-180C125,-180 95,-180 95,-180 89,-180 83,-174 83,-168 83,-168 83,-156 83,-156 83,-150 89,-144 95,-144 95,-144 125,-144 125,-144 131,-144 137,-150 137,-156 137,-156 137,-168 137,-168 137,-174 131,-180 125,-180"/>
<text text-anchor="middle" x="110" y="-159.5" font-family="sans" font-size="10.00">rename</text>
</g>
<!-- 2&#45;&gt;1 -->
<g id="edge5" class="edge">
<title>2&#45;&gt;1</title>
<path fill="none" stroke="grey" stroke-width="2" d="M111.73,-143.7C112.5,-135.98 113.43,-126.71 114.29,-118.11"/>
<polygon fill="grey" stroke="grey" stroke-width="2" points="117.78,-118.4 115.29,-108.1 110.81,-117.71 117.78,-118.4"/>
</g>
<!-- 3 -->
<g id="node4" class="node">
<title>3</title>
<path fill="none" stroke="#d88d56" stroke-width="2" stroke-dasharray="5,2" d="M148,-252C148,-252 66,-252 66,-252 60,-252 54,-246 54,-240 54,-240 54,-228 54,-228 54,-222 60,-216 66,-216 66,-216 148,-216 148,-216 154,-216 160,-222 160,-228 160,-228 160,-240 160,-240 160,-246 154,-252 148,-252"/>
<text text-anchor="middle" x="107" y="-231.5" font-family="sans" font-size="10.00">genome_consensus</text>
</g>
<!-- 3&#45;&gt;2 -->
<g id="edge6" class="edge">
<title>3&#45;&gt;2</title>
<path fill="none" stroke="grey" stroke-width="2" d="M107.74,-215.7C108.07,-207.98 108.47,-198.71 108.84,-190.11"/>
<polygon fill="grey" stroke="grey" stroke-width="2" points="112.34,-190.25 109.27,-180.1 105.34,-189.95 112.34,-190.25"/>
</g>
<!-- 4 -->
<g id="node5" class="node">
<title>4</title>
<path fill="none" stroke="#d87d56" stroke-width="2" stroke-dasharray="5,2" d="M122,-324C122,-324 92,-324 92,-324 86,-324 80,-318 80,-312 80,-312 80,-300 80,-300 80,-294 86,-288 92,-288 92,-288 122,-288 122,-288 128,-288 134,-294 134,-300 134,-300 134,-312 134,-312 134,-318 128,-324 122,-324"/>
<text text-anchor="middle" x="107" y="-303.5" font-family="sans" font-size="10.00">vcffilter</text>
</g>
<!-- 4&#45;&gt;3 -->
<g id="edge7" class="edge">
<title>4&#45;&gt;3</title>
<path fill="none" stroke="grey" stroke-width="2" d="M107,-287.7C107,-279.98 107,-270.71 107,-262.11"/>
<polygon fill="grey" stroke="grey" stroke-width="2" points="110.5,-262.1 107,-252.1 103.5,-262.1 110.5,-262.1"/>
</g>
<!-- 5 -->
<g id="node6" class="node">
<title>5</title>
<path fill="none" stroke="#56d88a" stroke-width="2" stroke-dasharray="5,2" d="M122,-396C122,-396 92,-396 92,-396 86,-396 80,-390 80,-384 80,-384 80,-372 80,-372 80,-366 86,-360 92,-360 92,-360 122,-360 122,-360 128,-360 134,-366 134,-372 134,-372 134,-384 134,-384 134,-390 128,-396 122,-396"/>
<text text-anchor="middle" x="107" y="-375.5" font-family="sans" font-size="10.00">lofreq2</text>
</g>
<!-- 5&#45;&gt;4 -->
<g id="edge8" class="edge">
<title>5&#45;&gt;4</title>
<path fill="none" stroke="grey" stroke-width="2" d="M107,-359.7C107,-351.98 107,-342.71 107,-334.11"/>
<polygon fill="grey" stroke="grey" stroke-width="2" points="110.5,-334.1 107,-324.1 103.5,-334.1 110.5,-334.1"/>
</g>
<!-- 22 -->
<g id="node23" class="node">
<title>22</title>
<path fill="none" stroke="#56d8a2" stroke-width="2" stroke-dasharray="5,2" d="M210,-324C210,-324 180,-324 180,-324 174,-324 168,-318 168,-312 168,-312 168,-300 168,-300 168,-294 174,-288 180,-288 180,-288 210,-288 210,-288 216,-288 222,-294 222,-300 222,-300 222,-312 222,-312 222,-318 216,-324 210,-324"/>
<text text-anchor="middle" x="195" y="-303.5" font-family="sans" font-size="10.00">snpeff</text>
</g>
<!-- 5&#45;&gt;22 -->
<g id="edge28" class="edge">
<title>5&#45;&gt;22</title>
<path fill="none" stroke="grey" stroke-width="2" d="M128.75,-359.7C139.84,-350.88 153.47,-340.03 165.49,-330.47"/>
<polygon fill="grey" stroke="grey" stroke-width="2" points="167.85,-333.07 173.5,-324.1 163.49,-327.59 167.85,-333.07"/>
</g>
<!-- 6 -->
<g id="node7" class="node">
<title>6</title>
<path fill="none" stroke="#56c9d8" stroke-width="2" stroke-dasharray="5,2" d="M74.5,-468C74.5,-468 41.5,-468 41.5,-468 35.5,-468 29.5,-462 29.5,-456 29.5,-456 29.5,-444 29.5,-444 29.5,-438 35.5,-432 41.5,-432 41.5,-432 74.5,-432 74.5,-432 80.5,-432 86.5,-438 86.5,-444 86.5,-444 86.5,-456 86.5,-456 86.5,-462 80.5,-468 74.5,-468"/>
<text text-anchor="middle" x="58" y="-447.5" font-family="sans" font-size="10.00">indelqual</text>
</g>
<!-- 6&#45;&gt;5 -->
<g id="edge9" class="edge">
<title>6&#45;&gt;5</title>
<path fill="none" stroke="grey" stroke-width="2" d="M70.11,-431.7C75.87,-423.47 82.86,-413.48 89.21,-404.42"/>
<polygon fill="grey" stroke="grey" stroke-width="2" points="92.16,-406.3 95.03,-396.1 86.42,-402.29 92.16,-406.3"/>
</g>
<!-- 27 -->
<g id="node28" class="node">
<title>27</title>
<path fill="none" stroke="#56b1d8" stroke-width="2" stroke-dasharray="5,2" d="M42,-108C42,-108 12,-108 12,-108 6,-108 0,-102 0,-96 0,-96 0,-84 0,-84 0,-78 6,-72 12,-72 12,-72 42,-72 42,-72 48,-72 54,-78 54,-84 54,-84 54,-96 54,-96 54,-102 48,-108 42,-108"/>
<text text-anchor="middle" x="27" y="-87.5" font-family="sans" font-size="10.00">pileup</text>
</g>
<!-- 6&#45;&gt;27 -->
<g id="edge36" class="edge">
<title>6&#45;&gt;27</title>
<path fill="none" stroke="grey" stroke-width="2" d="M51.52,-431.79C42.17,-405.36 26,-352.99 26,-307 26,-307 26,-307 26,-233 26,-193 26.4,-146.65 26.7,-118.08"/>
<polygon fill="grey" stroke="grey" stroke-width="2" points="30.2,-118.09 26.8,-108.05 23.2,-118.01 30.2,-118.09"/>
</g>
<!-- 7 -->
<g id="node8" class="node">
<title>7</title>
<path fill="none" stroke="#56d8d8" stroke-width="2" stroke-dasharray="5,2" d="M76,-540C76,-540 40,-540 40,-540 34,-540 28,-534 28,-528 28,-528 28,-516 28,-516 28,-510 34,-504 40,-504 40,-504 76,-504 76,-504 82,-504 88,-510 88,-516 88,-516 88,-528 88,-528 88,-534 82,-540 76,-540"/>
<text text-anchor="middle" x="58" y="-519.5" font-family="sans" font-size="10.00">applybqsr</text>
</g>
<!-- 7&#45;&gt;6 -->
<g id="edge10" class="edge">
<title>7&#45;&gt;6</title>
<path fill="none" stroke="grey" stroke-width="2" d="M58,-503.7C58,-495.98 58,-486.71 58,-478.11"/>
<polygon fill="grey" stroke="grey" stroke-width="2" points="61.5,-478.1 58,-468.1 54.5,-478.1 61.5,-478.1"/>
</g>
<!-- 8 -->
<g id="node9" class="node">
<title>8</title>
<path fill="none" stroke="#d8c356" stroke-width="2" stroke-dasharray="5,2" d="M149,-828C149,-828 83,-828 83,-828 77,-828 71,-822 71,-816 71,-816 71,-804 71,-804 71,-798 77,-792 83,-792 83,-792 149,-792 149,-792 155,-792 161,-798 161,-804 161,-804 161,-816 161,-816 161,-822 155,-828 149,-828"/>
<text text-anchor="middle" x="116" y="-807.5" font-family="sans" font-size="10.00">samtools_merge</text>
</g>
<!-- 8&#45;&gt;7 -->
<g id="edge11" class="edge">
<title>8&#45;&gt;7</title>
<path fill="none" stroke="grey" stroke-width="2" d="M97.8,-791.6C88.3,-781.81 77.03,-768.97 69,-756 32.69,-697.33 24.13,-679.74 11,-612 7.96,-596.29 5.32,-590.96 11,-576 14.97,-565.54 22.05,-555.83 29.53,-547.65"/>
<polygon fill="grey" stroke="grey" stroke-width="2" points="32.23,-549.89 36.73,-540.3 27.23,-544.99 32.23,-549.89"/>
</g>
<!-- 17 -->
<g id="node18" class="node">
<title>17</title>
<path fill="none" stroke="#d8a456" stroke-width="2" stroke-dasharray="5,2" d="M121.5,-612C121.5,-612 32.5,-612 32.5,-612 26.5,-612 20.5,-606 20.5,-600 20.5,-600 20.5,-588 20.5,-588 20.5,-582 26.5,-576 32.5,-576 32.5,-576 121.5,-576 121.5,-576 127.5,-576 133.5,-582 133.5,-588 133.5,-588 133.5,-600 133.5,-600 133.5,-606 127.5,-612 121.5,-612"/>
<text text-anchor="middle" x="77" y="-591.5" font-family="sans" font-size="10.00">gatk_baserecalibrator</text>
</g>
<!-- 8&#45;&gt;17 -->
<g id="edge21" class="edge">
<title>8&#45;&gt;17</title>
<path fill="none" stroke="grey" stroke-width="2" d="M100.49,-791.74C92.75,-781.99 84.18,-769.15 80,-756 65.7,-711 68.96,-655.29 72.84,-622.6"/>
<polygon fill="grey" stroke="grey" stroke-width="2" points="76.34,-622.81 74.15,-612.44 69.4,-621.91 76.34,-622.81"/>
</g>
<!-- 18 -->
<g id="node19" class="node">
<title>18</title>
<path fill="none" stroke="#56d87b" stroke-width="2" stroke-dasharray="5,2" d="M131,-756C131,-756 101,-756 101,-756 95,-756 89,-750 89,-744 89,-744 89,-732 89,-732 89,-726 95,-720 101,-720 101,-720 131,-720 131,-720 137,-720 143,-726 143,-732 143,-732 143,-744 143,-744 143,-750 137,-756 131,-756"/>
<text text-anchor="middle" x="116" y="-735.5" font-family="sans" font-size="10.00">lofreq1</text>
</g>
<!-- 8&#45;&gt;18 -->
<g id="edge24" class="edge">
<title>8&#45;&gt;18</title>
<path fill="none" stroke="grey" stroke-width="2" d="M116,-791.7C116,-783.98 116,-774.71 116,-766.11"/>
<polygon fill="grey" stroke="grey" stroke-width="2" points="119.5,-766.1 116,-756.1 112.5,-766.1 119.5,-766.1"/>
</g>
<!-- 26 -->
<g id="node27" class="node">
<title>26</title>
<path fill="none" stroke="#b6d856" stroke-width="2" stroke-dasharray="5,2" d="M247.5,-684C247.5,-684 214.5,-684 214.5,-684 208.5,-684 202.5,-678 202.5,-672 202.5,-672 202.5,-660 202.5,-660 202.5,-654 208.5,-648 214.5,-648 214.5,-648 247.5,-648 247.5,-648 253.5,-648 259.5,-654 259.5,-660 259.5,-660 259.5,-672 259.5,-672 259.5,-678 253.5,-684 247.5,-684"/>
<text text-anchor="middle" x="231" y="-663.5" font-family="sans" font-size="10.00">bamstats</text>
</g>
<!-- 8&#45;&gt;26 -->
<g id="edge35" class="edge">
<title>8&#45;&gt;26</title>
<path fill="none" stroke="grey" stroke-width="2" d="M129.87,-791.87C149.99,-767.03 187.39,-720.85 210.64,-692.14"/>
<polygon fill="grey" stroke="grey" stroke-width="2" points="213.51,-694.16 217.08,-684.19 208.07,-689.76 213.51,-694.16"/>
</g>
<!-- 9 -->
<g id="node10" class="node">
<title>9</title>
<path fill="none" stroke="#568ad8" stroke-width="2" stroke-dasharray="5,2" d="M154.5,-900C154.5,-900 89.5,-900 89.5,-900 83.5,-900 77.5,-894 77.5,-888 77.5,-888 77.5,-876 77.5,-876 77.5,-870 83.5,-864 89.5,-864 89.5,-864 154.5,-864 154.5,-864 160.5,-864 166.5,-870 166.5,-876 166.5,-876 166.5,-888 166.5,-888 166.5,-894 160.5,-900 154.5,-900"/>
<text text-anchor="middle" x="122" y="-879.5" font-family="sans" font-size="10.00">mark_duplicates</text>
</g>
<!-- 9&#45;&gt;8 -->
<g id="edge13" class="edge">
<title>9&#45;&gt;8</title>
<path fill="none" stroke="grey" stroke-width="2" d="M120.52,-863.7C119.86,-855.98 119.06,-846.71 118.32,-838.11"/>
<polygon fill="grey" stroke="grey" stroke-width="2" points="121.81,-837.77 117.47,-828.1 114.83,-838.37 121.81,-837.77"/>
</g>
<!-- 10 -->
<g id="node11" class="node">
<title>10</title>
<path fill="none" stroke="#d85656" stroke-width="2" stroke-dasharray="5,2" d="M163.5,-972C163.5,-972 102.5,-972 102.5,-972 96.5,-972 90.5,-966 90.5,-960 90.5,-960 90.5,-948 90.5,-948 90.5,-942 96.5,-936 102.5,-936 102.5,-936 163.5,-936 163.5,-936 169.5,-936 175.5,-942 175.5,-948 175.5,-948 175.5,-960 175.5,-960 175.5,-966 169.5,-972 163.5,-972"/>
<text text-anchor="middle" x="133" y="-951.5" font-family="sans" font-size="10.00">sort_and_index</text>
</g>
<!-- 10&#45;&gt;9 -->
<g id="edge14" class="edge">
<title>10&#45;&gt;9</title>
<path fill="none" stroke="grey" stroke-width="2" d="M130.28,-935.7C129.07,-927.98 127.61,-918.71 126.26,-910.11"/>
<polygon fill="grey" stroke="grey" stroke-width="2" points="129.7,-909.44 124.69,-900.1 122.78,-910.53 129.7,-909.44"/>
</g>
<!-- 11 -->
<g id="node12" class="node">
<title>11</title>
<path fill="none" stroke="#d86656" stroke-width="2" stroke-dasharray="5,2" d="M175,-1044C175,-1044 117,-1044 117,-1044 111,-1044 105,-1038 105,-1032 105,-1032 105,-1020 105,-1020 105,-1014 111,-1008 117,-1008 117,-1008 175,-1008 175,-1008 181,-1008 187,-1014 187,-1020 187,-1020 187,-1032 187,-1032 187,-1038 181,-1044 175,-1044"/>
<text text-anchor="middle" x="146" y="-1023.5" font-family="sans" font-size="10.00">samtools_view</text>
</g>
<!-- 11&#45;&gt;10 -->
<g id="edge15" class="edge">
<title>11&#45;&gt;10</title>
<path fill="none" stroke="grey" stroke-width="2" d="M142.79,-1007.7C141.35,-999.98 139.63,-990.71 138.04,-982.11"/>
<polygon fill="grey" stroke="grey" stroke-width="2" points="141.44,-981.3 136.18,-972.1 134.56,-982.58 141.44,-981.3"/>
</g>
<!-- 12 -->
<g id="node13" class="node">
<title>12</title>
<path fill="none" stroke="#68d856" stroke-width="2" stroke-dasharray="5,2" d="M184,-1116C184,-1116 144,-1116 144,-1116 138,-1116 132,-1110 132,-1104 132,-1104 132,-1092 132,-1092 132,-1086 138,-1080 144,-1080 144,-1080 184,-1080 184,-1080 190,-1080 196,-1086 196,-1092 196,-1092 196,-1104 196,-1104 196,-1110 190,-1116 184,-1116"/>
<text text-anchor="middle" x="164" y="-1095.5" font-family="sans" font-size="10.00">refgenome</text>
</g>
<!-- 12&#45;&gt;11 -->
<g id="edge16" class="edge">
<title>12&#45;&gt;11</title>
<path fill="none" stroke="grey" stroke-width="2" d="M159.55,-1079.7C157.55,-1071.9 155.13,-1062.51 152.9,-1053.83"/>
<polygon fill="grey" stroke="grey" stroke-width="2" points="156.28,-1052.92 150.4,-1044.1 149.5,-1054.66 156.28,-1052.92"/>
</g>
<!-- 13 -->
<g id="node14" class="node">
<title>13</title>
<path fill="none" stroke="#56a2d8" stroke-width="2" stroke-dasharray="5,2" d="M269,-1188C269,-1188 239,-1188 239,-1188 233,-1188 227,-1182 227,-1176 227,-1176 227,-1164 227,-1164 227,-1158 233,-1152 239,-1152 239,-1152 269,-1152 269,-1152 275,-1152 281,-1158 281,-1164 281,-1164 281,-1176 281,-1176 281,-1182 275,-1188 269,-1188"/>
<text text-anchor="middle" x="254" y="-1167.5" font-family="sans" font-size="10.00">filter</text>
</g>
<!-- 13&#45;&gt;12 -->
<g id="edge17" class="edge">
<title>13&#45;&gt;12</title>
<path fill="none" stroke="grey" stroke-width="2" d="M231.75,-1151.7C220.42,-1142.88 206.47,-1132.03 194.18,-1122.47"/>
<polygon fill="grey" stroke="grey" stroke-width="2" points="196.03,-1119.48 185.99,-1116.1 191.74,-1125.01 196.03,-1119.48"/>
</g>
<!-- 24 -->
<g id="node25" class="node">
<title>24</title>
<path fill="none" stroke="#c6d856" stroke-width="2" stroke-dasharray="5,2" d="M283,-1044C283,-1044 233,-1044 233,-1044 227,-1044 221,-1038 221,-1032 221,-1032 221,-1020 221,-1020 221,-1014 227,-1008 233,-1008 233,-1008 283,-1008 283,-1008 289,-1008 295,-1014 295,-1020 295,-1020 295,-1032 295,-1032 295,-1038 289,-1044 283,-1044"/>
<text text-anchor="middle" x="258" y="-1023.5" font-family="sans" font-size="10.00">fastq_screen</text>
</g>
<!-- 13&#45;&gt;24 -->
<g id="edge33" class="edge">
<title>13&#45;&gt;24</title>
<path fill="none" stroke="grey" stroke-width="2" d="M254.48,-1151.87C255.16,-1127.67 256.42,-1083.21 257.23,-1054.39"/>
<polygon fill="grey" stroke="grey" stroke-width="2" points="260.73,-1054.28 257.52,-1044.19 253.74,-1054.09 260.73,-1054.28"/>
</g>
<!-- 14 -->
<g id="node15" class="node">
<title>14</title>
<path fill="none" stroke="#56d86b" stroke-width="2" stroke-dasharray="5,2" d="M269,-1260C269,-1260 239,-1260 239,-1260 233,-1260 227,-1254 227,-1248 227,-1248 227,-1236 227,-1236 227,-1230 233,-1224 239,-1224 239,-1224 269,-1224 269,-1224 275,-1224 281,-1230 281,-1236 281,-1236 281,-1248 281,-1248 281,-1254 275,-1260 269,-1260"/>
<text text-anchor="middle" x="254" y="-1239.5" font-family="sans" font-size="10.00">trim</text>
</g>
<!-- 14&#45;&gt;13 -->
<g id="edge18" class="edge">
<title>14&#45;&gt;13</title>
<path fill="none" stroke="grey" stroke-width="2" d="M254,-1223.7C254,-1215.98 254,-1206.71 254,-1198.11"/>
<polygon fill="grey" stroke="grey" stroke-width="2" points="257.5,-1198.1 254,-1188.1 250.5,-1198.1 257.5,-1198.1"/>
</g>
<!-- 15 -->
<g id="node16" class="node">
<title>15</title>
<path fill="none" stroke="#78d856" stroke-width="2" stroke-dasharray="5,2" d="M277,-1332C277,-1332 247,-1332 247,-1332 241,-1332 235,-1326 235,-1320 235,-1320 235,-1308 235,-1308 235,-1302 241,-1296 247,-1296 247,-1296 277,-1296 277,-1296 283,-1296 289,-1302 289,-1308 289,-1308 289,-1320 289,-1320 289,-1326 283,-1332 277,-1332"/>
<text text-anchor="middle" x="262" y="-1311.5" font-family="sans" font-size="10.00">clumpify</text>
</g>
<!-- 15&#45;&gt;14 -->
<g id="edge19" class="edge">
<title>15&#45;&gt;14</title>
<path fill="none" stroke="grey" stroke-width="2" d="M260.02,-1295.7C259.14,-1287.98 258.08,-1278.71 257.1,-1270.11"/>
<polygon fill="grey" stroke="grey" stroke-width="2" points="260.57,-1269.64 255.95,-1260.1 253.61,-1270.44 260.57,-1269.64"/>
</g>
<!-- 16 -->
<g id="node17" class="node">
<title>16</title>
<path fill="none" stroke="#d6d856" stroke-width="2" stroke-dasharray="5,2" d="M307.5,-1409C307.5,-1409 270.5,-1409 270.5,-1409 264.5,-1409 258.5,-1403 258.5,-1397 258.5,-1397 258.5,-1380 258.5,-1380 258.5,-1374 264.5,-1368 270.5,-1368 270.5,-1368 307.5,-1368 307.5,-1368 313.5,-1368 319.5,-1374 319.5,-1380 319.5,-1380 319.5,-1397 319.5,-1397 319.5,-1403 313.5,-1409 307.5,-1409"/>
<text text-anchor="middle" x="289" y="-1397" font-family="sans" font-size="10.00">reformat</text>
<text text-anchor="middle" x="289" y="-1386" font-family="sans" font-size="10.00">run: A1</text>
<text text-anchor="middle" x="289" y="-1375" font-family="sans" font-size="10.00">sample: A</text>
</g>
<!-- 16&#45;&gt;15 -->
<g id="edge20" class="edge">
<title>16&#45;&gt;15</title>
<path fill="none" stroke="grey" stroke-width="2" d="M281.62,-1367.69C278.66,-1359.73 275.2,-1350.44 272.01,-1341.89"/>
<polygon fill="grey" stroke="grey" stroke-width="2" points="275.22,-1340.47 268.45,-1332.32 268.66,-1342.91 275.22,-1340.47"/>
</g>
<!-- 25 -->
<g id="node26" class="node">
<title>25</title>
<path fill="none" stroke="#56d8b1" stroke-width="2" stroke-dasharray="5,2" d="M341,-1260C341,-1260 311,-1260 311,-1260 305,-1260 299,-1254 299,-1248 299,-1248 299,-1236 299,-1236 299,-1230 305,-1224 311,-1224 311,-1224 341,-1224 341,-1224 347,-1224 353,-1230 353,-1236 353,-1236 353,-1248 353,-1248 353,-1254 347,-1260 341,-1260"/>
<text text-anchor="middle" x="326" y="-1239.5" font-family="sans" font-size="10.00">fastqc</text>
</g>
<!-- 16&#45;&gt;25 -->
<g id="edge34" class="edge">
<title>16&#45;&gt;25</title>
<path fill="none" stroke="grey" stroke-width="2" d="M294.07,-1367.71C300.55,-1342.38 311.82,-1298.37 319.09,-1269.98"/>
<polygon fill="grey" stroke="grey" stroke-width="2" points="322.48,-1270.85 321.57,-1260.3 315.7,-1269.11 322.48,-1270.85"/>
</g>
<!-- 17&#45;&gt;7 -->
<g id="edge12" class="edge">
<title>17&#45;&gt;7</title>
<path fill="none" stroke="grey" stroke-width="2" d="M72.3,-575.7C70.19,-567.9 67.64,-558.51 65.28,-549.83"/>
<polygon fill="grey" stroke="grey" stroke-width="2" points="68.64,-548.84 62.64,-540.1 61.88,-550.67 68.64,-548.84"/>
</g>
<!-- 18&#45;&gt;17 -->
<g id="edge22" class="edge">
<title>18&#45;&gt;17</title>
<path fill="none" stroke="grey" stroke-width="2" d="M106.37,-719.84C101.08,-709.7 94.83,-696.45 91,-684 84.76,-663.72 81.21,-639.95 79.24,-622.08"/>
<polygon fill="grey" stroke="grey" stroke-width="2" points="82.71,-621.66 78.23,-612.05 75.75,-622.35 82.71,-621.66"/>
</g>
<!-- 19 -->
<g id="node20" class="node">
<title>19</title>
<path fill="none" stroke="#d8b456" stroke-width="2" stroke-dasharray="5,2" d="M172,-684C172,-684 112,-684 112,-684 106,-684 100,-678 100,-672 100,-672 100,-660 100,-660 100,-654 106,-648 112,-648 112,-648 172,-648 172,-648 178,-648 184,-654 184,-660 184,-660 184,-672 184,-672 184,-678 178,-684 172,-684"/>
<text text-anchor="middle" x="142" y="-663.5" font-family="sans" font-size="10.00">indexfeaturefile</text>
</g>
<!-- 18&#45;&gt;19 -->
<g id="edge25" class="edge">
<title>18&#45;&gt;19</title>
<path fill="none" stroke="grey" stroke-width="2" d="M122.43,-719.7C125.36,-711.81 128.89,-702.3 132.14,-693.55"/>
<polygon fill="grey" stroke="grey" stroke-width="2" points="135.45,-694.7 135.65,-684.1 128.88,-692.26 135.45,-694.7"/>
</g>
<!-- 19&#45;&gt;17 -->
<g id="edge23" class="edge">
<title>19&#45;&gt;17</title>
<path fill="none" stroke="grey" stroke-width="2" d="M125.93,-647.7C118.06,-639.22 108.44,-628.86 99.83,-619.58"/>
<polygon fill="grey" stroke="grey" stroke-width="2" points="102.25,-617.05 92.88,-612.1 97.12,-621.81 102.25,-617.05"/>
</g>
<!-- 20 -->
<g id="node21" class="node">
<title>20</title>
<path fill="none" stroke="#566bd8" stroke-width="2" stroke-dasharray="5,2" d="M227.5,-180C227.5,-180 174.5,-180 174.5,-180 168.5,-180 162.5,-174 162.5,-168 162.5,-168 162.5,-156 162.5,-156 162.5,-150 168.5,-144 174.5,-144 174.5,-144 227.5,-144 227.5,-144 233.5,-144 239.5,-150 239.5,-156 239.5,-156 239.5,-168 239.5,-168 239.5,-174 233.5,-180 227.5,-180"/>
<text text-anchor="middle" x="201" y="-159.5" font-family="sans" font-size="10.00">merge_tables</text>
</g>
<!-- 20&#45;&gt;0 -->
<g id="edge2" class="edge">
<title>20&#45;&gt;0</title>
<path fill="none" stroke="grey" stroke-width="2" d="M195.26,-143.93C189.23,-126.02 179.47,-97.02 171,-72 168.12,-63.49 164.98,-54.22 162.13,-45.84"/>
<polygon fill="grey" stroke="grey" stroke-width="2" points="165.38,-44.52 158.85,-36.18 158.75,-46.78 165.38,-44.52"/>
</g>
<!-- 21 -->
<g id="node22" class="node">
<title>21</title>
<path fill="none" stroke="#9fd856" stroke-width="2" stroke-dasharray="5,2" d="M220,-252C220,-252 190,-252 190,-252 184,-252 178,-246 178,-240 178,-240 178,-228 178,-228 178,-222 184,-216 190,-216 190,-216 220,-216 220,-216 226,-216 232,-222 232,-228 232,-228 232,-240 232,-240 232,-246 226,-252 220,-252"/>
<text text-anchor="middle" x="205" y="-231.5" font-family="sans" font-size="10.00">snpsift</text>
</g>
<!-- 21&#45;&gt;20 -->
<g id="edge26" class="edge">
<title>21&#45;&gt;20</title>
<path fill="none" stroke="grey" stroke-width="2" d="M204.01,-215.7C203.57,-207.98 203.04,-198.71 202.55,-190.11"/>
<polygon fill="grey" stroke="grey" stroke-width="2" points="206.04,-189.89 201.98,-180.1 199.05,-190.29 206.04,-189.89"/>
</g>
<!-- 22&#45;&gt;21 -->
<g id="edge27" class="edge">
<title>22&#45;&gt;21</title>
<path fill="none" stroke="grey" stroke-width="2" d="M197.47,-287.7C198.57,-279.98 199.9,-270.71 201.13,-262.11"/>
<polygon fill="grey" stroke="grey" stroke-width="2" points="204.61,-262.5 202.56,-252.1 197.68,-261.51 204.61,-262.5"/>
</g>
<!-- 23 -->
<g id="node24" class="node">
<title>23</title>
<path fill="none" stroke="#56d8c9" stroke-width="2" stroke-dasharray="5,2" d="M292,-252C292,-252 262,-252 262,-252 256,-252 250,-246 250,-240 250,-240 250,-228 250,-228 250,-222 256,-216 262,-216 262,-216 292,-216 292,-216 298,-216 304,-222 304,-228 304,-228 304,-240 304,-240 304,-246 298,-252 292,-252"/>
<text text-anchor="middle" x="277" y="-231.5" font-family="sans" font-size="10.00">multiqc</text>
</g>
<!-- 22&#45;&gt;23 -->
<g id="edge31" class="edge">
<title>22&#45;&gt;23</title>
<path fill="none" stroke="grey" stroke-width="2" d="M215.27,-287.7C225.5,-278.97 238.06,-268.24 249.18,-258.75"/>
<polygon fill="grey" stroke="grey" stroke-width="2" points="251.63,-261.26 256.96,-252.1 247.09,-255.94 251.63,-261.26"/>
</g>
<!-- 23&#45;&gt;0 -->
<g id="edge3" class="edge">
<title>23&#45;&gt;0</title>
<path fill="none" stroke="grey" stroke-width="2" d="M273.5,-215.91C269.31,-197.46 261.26,-167.56 249,-144 229.25,-106.06 197.82,-67.84 176.34,-43.83"/>
<polygon fill="grey" stroke="grey" stroke-width="2" points="178.78,-41.31 169.47,-36.26 173.6,-46.02 178.78,-41.31"/>
</g>
<!-- 24&#45;&gt;23 -->
<g id="edge29" class="edge">
<title>24&#45;&gt;23</title>
<path fill="none" stroke="grey" stroke-width="2" d="M264.07,-1007.76C272.84,-981.28 288,-928.86 288,-883 288,-883 288,-883 288,-377 288,-336.88 283.58,-290.57 280.34,-262.03"/>
<polygon fill="grey" stroke="grey" stroke-width="2" points="283.81,-261.54 279.17,-252.02 276.86,-262.36 283.81,-261.54"/>
</g>
<!-- 25&#45;&gt;23 -->
<g id="edge30" class="edge">
<title>25&#45;&gt;23</title>
<path fill="none" stroke="grey" stroke-width="2" d="M326,-1223.95C326,-1197.29 326,-1144.11 326,-1099 326,-1099 326,-1099 326,-377 326,-334.78 306.4,-289.16 291.99,-261.33"/>
<polygon fill="grey" stroke="grey" stroke-width="2" points="294.95,-259.44 287.15,-252.27 288.77,-262.74 294.95,-259.44"/>
</g>
<!-- 26&#45;&gt;23 -->
<g id="edge32" class="edge">
<title>26&#45;&gt;23</title>
<path fill="none" stroke="grey" stroke-width="2" d="M234.84,-647.61C240.4,-620.94 250,-568.27 250,-523 250,-523 250,-523 250,-377 250,-336.5 260.73,-290.63 268.66,-262.26"/>
<polygon fill="grey" stroke="grey" stroke-width="2" points="272.13,-262.87 271.54,-252.29 265.4,-260.93 272.13,-262.87"/>
</g>
<!-- 27&#45;&gt;0 -->
<g id="edge4" class="edge">
<title>27&#45;&gt;0</title>
<path fill="none" stroke="grey" stroke-width="2" d="M54.03,-73.98C72.34,-63.81 96.75,-50.25 116.74,-39.14"/>
<polygon fill="grey" stroke="grey" stroke-width="2" points="118.54,-42.15 125.58,-34.23 115.14,-36.03 118.54,-42.15"/>
</g>
</g>
</svg>
