<?xml version="1.0" encoding="UTF-8" standalone="no"?>
<!DOCTYPE svg PUBLIC "-//W3C//DTD SVG 1.1//EN"
 "http://www.w3.org/Graphics/SVG/1.1/DTD/svg11.dtd">
<!-- Generated by graphviz version 2.38.0 (20140413.2041)
 -->
<!-- Title: snakemake_dag Pages: 1 -->
<svg width="363pt" height="1054pt"
 viewBox="0.00 0.00 363.00 1054.00" xmlns="http://www.w3.org/2000/svg" xmlns:xlink="http://www.w3.org/1999/xlink">
<g id="graph0" class="graph" transform="scale(1 1) rotate(0) translate(4 1050)">
<title>snakemake_dag</title>
<polygon fill="white" stroke="none" points="-4,4 -4,-1050 359,-1050 359,4 -4,4"/>
<!-- 0 -->
<g id="node1" class="node"><title>0</title>
<path fill="none" stroke="#566bd8" stroke-width="2" d="M210,-36C210,-36 180,-36 180,-36 174,-36 168,-30 168,-24 168,-24 168,-12 168,-12 168,-6 174,-0 180,-0 180,-0 210,-0 210,-0 216,-0 222,-6 222,-12 222,-12 222,-24 222,-24 222,-30 216,-36 210,-36"/>
<text text-anchor="middle" x="195" y="-15" font-family="sans" font-size="10.00">all</text>
</g>
<!-- 1 -->
<g id="node2" class="node"><title>1</title>
<path fill="none" stroke="#d85656" stroke-width="2" d="M267.875,-108C267.875,-108 202.125,-108 202.125,-108 196.125,-108 190.125,-102 190.125,-96 190.125,-96 190.125,-84 190.125,-84 190.125,-78 196.125,-72 202.125,-72 202.125,-72 267.875,-72 267.875,-72 273.875,-72 279.875,-78 279.875,-84 279.875,-84 279.875,-96 279.875,-96 279.875,-102 273.875,-108 267.875,-108"/>
<text text-anchor="middle" x="235" y="-87" font-family="sans" font-size="10.00">merge_renamed</text>
</g>
<!-- 1&#45;&gt;0 -->
<g id="edge1" class="edge"><title>1&#45;&gt;0</title>
<path fill="none" stroke="grey" stroke-width="2" d="M225.112,-71.6966C220.511,-63.6436 214.94,-53.8945 209.847,-44.9824"/>
<polygon fill="grey" stroke="grey" stroke-width="2" points="212.774,-43.0503 204.774,-36.1043 206.696,-46.5233 212.774,-43.0503"/>
</g>
<!-- 2 -->
<g id="node3" class="node"><title>2</title>
<path fill="none" stroke="#56d8d0" stroke-width="2" d="M181.092,-180C181.092,-180 128.908,-180 128.908,-180 122.908,-180 116.908,-174 116.908,-168 116.908,-168 116.908,-156 116.908,-156 116.908,-150 122.908,-144 128.908,-144 128.908,-144 181.092,-144 181.092,-144 187.092,-144 193.092,-150 193.092,-156 193.092,-156 193.092,-168 193.092,-168 193.092,-174 187.092,-180 181.092,-180"/>
<text text-anchor="middle" x="155" y="-159" font-family="sans" font-size="10.00">merge_tables</text>
</g>
<!-- 2&#45;&gt;0 -->
<g id="edge2" class="edge"><title>2&#45;&gt;0</title>
<path fill="none" stroke="grey" stroke-width="2" d="M159.825,-143.871C166.672,-119.564 179.276,-74.8187 187.391,-46.0132"/>
<polygon fill="grey" stroke="grey" stroke-width="2" points="190.815,-46.7637 190.158,-36.1893 184.078,-44.8657 190.815,-46.7637"/>
</g>
<!-- 3 -->
<g id="node4" class="node"><title>3</title>
<path fill="none" stroke="#d89c56" stroke-width="2" d="M94,-252C94,-252 64,-252 64,-252 58,-252 52,-246 52,-240 52,-240 52,-228 52,-228 52,-222 58,-216 64,-216 64,-216 94,-216 94,-216 100,-216 106,-222 106,-228 106,-228 106,-240 106,-240 106,-246 100,-252 94,-252"/>
<text text-anchor="middle" x="79" y="-231" font-family="sans" font-size="10.00">multiqc</text>
</g>
<!-- 3&#45;&gt;0 -->
<g id="edge3" class="edge"><title>3&#45;&gt;0</title>
<path fill="none" stroke="grey" stroke-width="2" d="M83.0308,-215.687C87.6728,-197.314 96.2043,-167.718 108,-144 126.431,-106.94 154.853,-68.4631 174.155,-44.16"/>
<polygon fill="grey" stroke="grey" stroke-width="2" points="177.032,-46.1669 180.571,-36.1804 171.577,-41.7807 177.032,-46.1669"/>
</g>
<!-- 4 -->
<g id="node5" class="node"><title>4</title>
<path fill="none" stroke="#d86e56" stroke-width="2" d="M343,-108C343,-108 313,-108 313,-108 307,-108 301,-102 301,-96 301,-96 301,-84 301,-84 301,-78 307,-72 313,-72 313,-72 343,-72 343,-72 349,-72 355,-78 355,-84 355,-84 355,-96 355,-96 355,-102 349,-108 343,-108"/>
<text text-anchor="middle" x="328" y="-87" font-family="sans" font-size="10.00">pileup</text>
</g>
<!-- 4&#45;&gt;0 -->
<g id="edge4" class="edge"><title>4&#45;&gt;0</title>
<path fill="none" stroke="grey" stroke-width="2" d="M300.765,-74.6655C280.682,-64.0958 253.156,-49.6087 231.22,-38.0632"/>
<polygon fill="grey" stroke="grey" stroke-width="2" points="232.678,-34.8756 222.199,-33.3153 229.418,-41.07 232.678,-34.8756"/>
</g>
<!-- 5 -->
<g id="node6" class="node"><title>5</title>
<path fill="none" stroke="#d6d856" stroke-width="2" d="M257,-180C257,-180 227,-180 227,-180 221,-180 215,-174 215,-168 215,-168 215,-156 215,-156 215,-150 221,-144 227,-144 227,-144 257,-144 257,-144 263,-144 269,-150 269,-156 269,-156 269,-168 269,-168 269,-174 263,-180 257,-180"/>
<text text-anchor="middle" x="242" y="-159" font-family="sans" font-size="10.00">rename</text>
</g>
<!-- 5&#45;&gt;1 -->
<g id="edge5" class="edge"><title>5&#45;&gt;1</title>
<path fill="none" stroke="grey" stroke-width="2" d="M240.27,-143.697C239.498,-135.983 238.571,-126.712 237.711,-118.112"/>
<polygon fill="grey" stroke="grey" stroke-width="2" points="241.188,-117.706 236.71,-108.104 234.223,-118.403 241.188,-117.706"/>
</g>
<!-- 6 -->
<g id="node7" class="node"><title>6</title>
<path fill="none" stroke="#a7d856" stroke-width="2" d="M166,-252C166,-252 136,-252 136,-252 130,-252 124,-246 124,-240 124,-240 124,-228 124,-228 124,-222 130,-216 136,-216 136,-216 166,-216 166,-216 172,-216 178,-222 178,-228 178,-228 178,-240 178,-240 178,-246 172,-252 166,-252"/>
<text text-anchor="middle" x="151" y="-231" font-family="sans" font-size="10.00">snpsift</text>
</g>
<!-- 6&#45;&gt;2 -->
<g id="edge6" class="edge"><title>6&#45;&gt;2</title>
<path fill="none" stroke="grey" stroke-width="2" d="M151.989,-215.697C152.43,-207.983 152.959,-198.712 153.451,-190.112"/>
<polygon fill="grey" stroke="grey" stroke-width="2" points="156.946,-190.288 154.023,-180.104 149.958,-189.888 156.946,-190.288"/>
</g>
<!-- 7 -->
<g id="node8" class="node"><title>7</title>
<path fill="none" stroke="#56c9d8" stroke-width="2" stroke-dasharray="5,2" d="M118.756,-684C118.756,-684 69.2437,-684 69.2437,-684 63.2437,-684 57.2437,-678 57.2437,-672 57.2437,-672 57.2437,-660 57.2437,-660 57.2437,-654 63.2437,-648 69.2437,-648 69.2437,-648 118.756,-648 118.756,-648 124.756,-648 130.756,-654 130.756,-660 130.756,-660 130.756,-672 130.756,-672 130.756,-678 124.756,-684 118.756,-684"/>
<text text-anchor="middle" x="94" y="-663" font-family="sans" font-size="10.00">fastq_screen</text>
</g>
<!-- 7&#45;&gt;3 -->
<g id="edge7" class="edge"><title>7&#45;&gt;3</title>
<path fill="none" stroke="grey" stroke-width="2" d="M88.1314,-647.743C79.6575,-621.246 65,-568.794 65,-523 65,-523 65,-523 65,-377 65,-337.022 70.5637,-291.017 74.6763,-262.471"/>
<polygon fill="grey" stroke="grey" stroke-width="2" points="78.1598,-262.84 76.1669,-252.434 71.2358,-261.811 78.1598,-262.84"/>
</g>
<!-- 8 -->
<g id="node9" class="node"><title>8</title>
<path fill="none" stroke="#56b1d8" stroke-width="2" stroke-dasharray="5,2" d="M42,-900C42,-900 12,-900 12,-900 6,-900 0,-894 0,-888 0,-888 0,-876 0,-876 0,-870 6,-864 12,-864 12,-864 42,-864 42,-864 48,-864 54,-870 54,-876 54,-876 54,-888 54,-888 54,-894 48,-900 42,-900"/>
<text text-anchor="middle" x="27" y="-879" font-family="sans" font-size="10.00">fastqc</text>
</g>
<!-- 8&#45;&gt;3 -->
<g id="edge8" class="edge"><title>8&#45;&gt;3</title>
<path fill="none" stroke="grey" stroke-width="2" d="M27,-863.951C27,-837.292 27,-784.115 27,-739 27,-739 27,-739 27,-377 27,-334.492 47.8004,-288.953 63.0903,-261.219"/>
<polygon fill="grey" stroke="grey" stroke-width="2" points="66.3259,-262.61 68.2256,-252.187 60.2406,-259.15 66.3259,-262.61"/>
</g>
<!-- 9 -->
<g id="node10" class="node"><title>9</title>
<path fill="none" stroke="#61d856" stroke-width="2" d="M173,-324C173,-324 143,-324 143,-324 137,-324 131,-318 131,-312 131,-312 131,-300 131,-300 131,-294 137,-288 143,-288 143,-288 173,-288 173,-288 179,-288 185,-294 185,-300 185,-300 185,-312 185,-312 185,-318 179,-324 173,-324"/>
<text text-anchor="middle" x="158" y="-303" font-family="sans" font-size="10.00">snpeff</text>
</g>
<!-- 9&#45;&gt;3 -->
<g id="edge9" class="edge"><title>9&#45;&gt;3</title>
<path fill="none" stroke="grey" stroke-width="2" d="M138.472,-287.697C128.618,-278.965 116.514,-268.24 105.804,-258.75"/>
<polygon fill="grey" stroke="grey" stroke-width="2" points="108.109,-256.117 98.3035,-252.104 103.467,-261.356 108.109,-256.117"/>
</g>
<!-- 9&#45;&gt;6 -->
<g id="edge13" class="edge"><title>9&#45;&gt;6</title>
<path fill="none" stroke="grey" stroke-width="2" d="M156.27,-287.697C155.498,-279.983 154.571,-270.712 153.711,-262.112"/>
<polygon fill="grey" stroke="grey" stroke-width="2" points="157.188,-261.706 152.71,-252.104 150.223,-262.403 157.188,-261.706"/>
</g>
<!-- 10 -->
<g id="node11" class="node"><title>10</title>
<path fill="none" stroke="#569ad8" stroke-width="2" stroke-dasharray="5,2" d="M155.073,-396C155.073,-396 122.927,-396 122.927,-396 116.927,-396 110.927,-390 110.927,-384 110.927,-384 110.927,-372 110.927,-372 110.927,-366 116.927,-360 122.927,-360 122.927,-360 155.073,-360 155.073,-360 161.073,-360 167.073,-366 167.073,-372 167.073,-372 167.073,-384 167.073,-384 167.073,-390 161.073,-396 155.073,-396"/>
<text text-anchor="middle" x="139" y="-375" font-family="sans" font-size="10.00">bamstats</text>
</g>
<!-- 10&#45;&gt;3 -->
<g id="edge10" class="edge"><title>10&#45;&gt;3</title>
<path fill="none" stroke="grey" stroke-width="2" d="M131.763,-359.871C121.447,-335.457 102.419,-290.426 90.2543,-261.635"/>
<polygon fill="grey" stroke="grey" stroke-width="2" points="93.3793,-260.038 86.2631,-252.189 86.9313,-262.763 93.3793,-260.038"/>
</g>
<!-- 11 -->
<g id="node12" class="node"><title>11</title>
<path fill="none" stroke="#56d863" stroke-width="2" stroke-dasharray="5,2" d="M253.921,-468C253.921,-468 188.079,-468 188.079,-468 182.079,-468 176.079,-462 176.079,-456 176.079,-456 176.079,-444 176.079,-444 176.079,-438 182.079,-432 188.079,-432 188.079,-432 253.921,-432 253.921,-432 259.921,-432 265.921,-438 265.921,-444 265.921,-444 265.921,-456 265.921,-456 265.921,-462 259.921,-468 253.921,-468"/>
<text text-anchor="middle" x="221" y="-447" font-family="sans" font-size="10.00">samtools_merge</text>
</g>
<!-- 11&#45;&gt;4 -->
<g id="edge11" class="edge"><title>11&#45;&gt;4</title>
<path fill="none" stroke="grey" stroke-width="2" d="M246.556,-431.887C278.773,-408.038 330,-361.542 330,-307 330,-307 330,-307 330,-233 330,-192.992 329.196,-146.65 328.608,-118.078"/>
<polygon fill="grey" stroke="grey" stroke-width="2" points="332.107,-117.972 328.395,-108.048 325.108,-118.12 332.107,-117.972"/>
</g>
<!-- 11&#45;&gt;10 -->
<g id="edge17" class="edge"><title>11&#45;&gt;10</title>
<path fill="none" stroke="grey" stroke-width="2" d="M200.73,-431.697C190.502,-422.965 177.939,-412.24 166.822,-402.75"/>
<polygon fill="grey" stroke="grey" stroke-width="2" points="168.915,-399.935 159.037,-396.104 164.37,-405.259 168.915,-399.935"/>
</g>
<!-- 12 -->
<g id="node13" class="node"><title>12</title>
<path fill="none" stroke="#d8c356" stroke-width="2" d="M289.508,-252C289.508,-252 208.492,-252 208.492,-252 202.492,-252 196.492,-246 196.492,-240 196.492,-240 196.492,-228 196.492,-228 196.492,-222 202.492,-216 208.492,-216 208.492,-216 289.508,-216 289.508,-216 295.508,-216 301.508,-222 301.508,-228 301.508,-228 301.508,-240 301.508,-240 301.508,-246 295.508,-252 289.508,-252"/>
<text text-anchor="middle" x="249" y="-231" font-family="sans" font-size="10.00">genome_consensus</text>
</g>
<!-- 11&#45;&gt;12 -->
<g id="edge19" class="edge"><title>11&#45;&gt;12</title>
<path fill="none" stroke="grey" stroke-width="2" d="M235.963,-431.552C243.536,-421.744 252.135,-408.906 257,-396 273.991,-350.93 273.445,-335.587 266,-288 264.641,-279.312 262.1,-270.104 259.389,-261.843"/>
<polygon fill="grey" stroke="grey" stroke-width="2" points="262.669,-260.62 256.066,-252.335 256.061,-262.93 262.669,-260.62"/>
</g>
<!-- 15 -->
<g id="node16" class="node"><title>15</title>
<path fill="none" stroke="#d88556" stroke-width="2" d="M236,-396C236,-396 206,-396 206,-396 200,-396 194,-390 194,-384 194,-384 194,-372 194,-372 194,-366 200,-360 206,-360 206,-360 236,-360 236,-360 242,-360 248,-366 248,-372 248,-372 248,-384 248,-384 248,-390 242,-396 236,-396"/>
<text text-anchor="middle" x="221" y="-375" font-family="sans" font-size="10.00">lofreq</text>
</g>
<!-- 11&#45;&gt;15 -->
<g id="edge22" class="edge"><title>11&#45;&gt;15</title>
<path fill="none" stroke="grey" stroke-width="2" d="M221,-431.697C221,-423.983 221,-414.712 221,-406.112"/>
<polygon fill="grey" stroke="grey" stroke-width="2" points="224.5,-406.104 221,-396.104 217.5,-406.104 224.5,-406.104"/>
</g>
<!-- 12&#45;&gt;5 -->
<g id="edge12" class="edge"><title>12&#45;&gt;5</title>
<path fill="none" stroke="grey" stroke-width="2" d="M247.27,-215.697C246.498,-207.983 245.571,-198.712 244.711,-190.112"/>
<polygon fill="grey" stroke="grey" stroke-width="2" points="248.188,-189.706 243.71,-180.104 241.223,-190.403 248.188,-189.706"/>
</g>
<!-- 13 -->
<g id="node14" class="node"><title>13</title>
<path fill="none" stroke="#56d8b9" stroke-width="2" stroke-dasharray="5,2" d="M114,-828C114,-828 84,-828 84,-828 78,-828 72,-822 72,-816 72,-816 72,-804 72,-804 72,-798 78,-792 84,-792 84,-792 114,-792 114,-792 120,-792 126,-798 126,-804 126,-804 126,-816 126,-816 126,-822 120,-828 114,-828"/>
<text text-anchor="middle" x="99" y="-807" font-family="sans" font-size="10.00">filter</text>
</g>
<!-- 13&#45;&gt;7 -->
<g id="edge14" class="edge"><title>13&#45;&gt;7</title>
<path fill="none" stroke="grey" stroke-width="2" d="M98.3969,-791.871C97.5447,-767.67 95.9793,-723.211 94.9645,-694.393"/>
<polygon fill="grey" stroke="grey" stroke-width="2" points="98.4551,-694.06 94.6053,-684.189 91.4594,-694.306 98.4551,-694.06"/>
</g>
<!-- 22 -->
<g id="node23" class="node"><title>22</title>
<path fill="none" stroke="#56d87b" stroke-width="2" stroke-dasharray="5,2" d="M185.897,-756C185.897,-756 150.103,-756 150.103,-756 144.103,-756 138.103,-750 138.103,-744 138.103,-744 138.103,-732 138.103,-732 138.103,-726 144.103,-720 150.103,-720 150.103,-720 185.897,-720 185.897,-720 191.897,-720 197.897,-726 197.897,-732 197.897,-732 197.897,-744 197.897,-744 197.897,-750 191.897,-756 185.897,-756"/>
<text text-anchor="middle" x="168" y="-735" font-family="sans" font-size="10.00">maprRNA</text>
</g>
<!-- 13&#45;&gt;22 -->
<g id="edge29" class="edge"><title>13&#45;&gt;22</title>
<path fill="none" stroke="grey" stroke-width="2" d="M116.056,-791.697C124.495,-783.135 134.825,-772.656 144.043,-763.304"/>
<polygon fill="grey" stroke="grey" stroke-width="2" points="146.613,-765.683 151.14,-756.104 141.627,-760.769 146.613,-765.683"/>
</g>
<!-- 14 -->
<g id="node15" class="node"><title>14</title>
<path fill="none" stroke="#56d8a2" stroke-width="2" stroke-dasharray="5,2" d="M81.9161,-1046C81.9161,-1046 46.0839,-1046 46.0839,-1046 40.0839,-1046 34.0839,-1040 34.0839,-1034 34.0839,-1034 34.0839,-1020 34.0839,-1020 34.0839,-1014 40.0839,-1008 46.0839,-1008 46.0839,-1008 81.9161,-1008 81.9161,-1008 87.9161,-1008 93.9161,-1014 93.9161,-1020 93.9161,-1020 93.9161,-1034 93.9161,-1034 93.9161,-1040 87.9161,-1046 81.9161,-1046"/>
<text text-anchor="middle" x="64" y="-1034" font-family="sans" font-size="10.00">reformat</text>
<text text-anchor="middle" x="64" y="-1024" font-family="sans" font-size="10.00">run: A1</text>
<text text-anchor="middle" x="64" y="-1014" font-family="sans" font-size="10.00">sample: A</text>
</g>
<!-- 14&#45;&gt;8 -->
<g id="edge15" class="edge"><title>14&#45;&gt;8</title>
<path fill="none" stroke="grey" stroke-width="2" d="M59.3139,-1007.89C52.906,-983.123 41.3608,-938.502 33.9456,-909.844"/>
<polygon fill="grey" stroke="grey" stroke-width="2" points="37.3111,-908.878 31.4177,-900.074 30.5343,-910.632 37.3111,-908.878"/>
</g>
<!-- 20 -->
<g id="node21" class="node"><title>20</title>
<path fill="none" stroke="#d8b456" stroke-width="2" stroke-dasharray="5,2" d="M109,-972C109,-972 79,-972 79,-972 73,-972 67,-966 67,-960 67,-960 67,-948 67,-948 67,-942 73,-936 79,-936 79,-936 109,-936 109,-936 115,-936 121,-942 121,-948 121,-948 121,-960 121,-960 121,-966 115,-972 109,-972"/>
<text text-anchor="middle" x="94" y="-951" font-family="sans" font-size="10.00">clumpify</text>
</g>
<!-- 14&#45;&gt;20 -->
<g id="edge27" class="edge"><title>14&#45;&gt;20</title>
<path fill="none" stroke="grey" stroke-width="2" d="M71.7257,-1007.72C75.1062,-999.715 79.1371,-990.175 82.8347,-981.424"/>
<polygon fill="grey" stroke="grey" stroke-width="2" points="86.1472,-982.577 86.8154,-972.003 79.6992,-979.853 86.1472,-982.577"/>
</g>
<!-- 15&#45;&gt;9 -->
<g id="edge16" class="edge"><title>15&#45;&gt;9</title>
<path fill="none" stroke="grey" stroke-width="2" d="M205.427,-359.697C197.798,-351.22 188.477,-340.864 180.124,-331.583"/>
<polygon fill="grey" stroke="grey" stroke-width="2" points="182.685,-329.196 173.394,-324.104 177.482,-333.879 182.685,-329.196"/>
</g>
<!-- 17 -->
<g id="node18" class="node"><title>17</title>
<path fill="none" stroke="#78d856" stroke-width="2" d="M245,-324C245,-324 215,-324 215,-324 209,-324 203,-318 203,-312 203,-312 203,-300 203,-300 203,-294 209,-288 215,-288 215,-288 245,-288 245,-288 251,-288 257,-294 257,-300 257,-300 257,-312 257,-312 257,-318 251,-324 245,-324"/>
<text text-anchor="middle" x="230" y="-303" font-family="sans" font-size="10.00">vcffilter</text>
</g>
<!-- 15&#45;&gt;17 -->
<g id="edge24" class="edge"><title>15&#45;&gt;17</title>
<path fill="none" stroke="grey" stroke-width="2" d="M223.225,-359.697C224.217,-351.983 225.408,-342.712 226.514,-334.112"/>
<polygon fill="grey" stroke="grey" stroke-width="2" points="229.997,-334.469 227.801,-324.104 223.054,-333.576 229.997,-334.469"/>
</g>
<!-- 16 -->
<g id="node17" class="node"><title>16</title>
<path fill="none" stroke="#5682d8" stroke-width="2" stroke-dasharray="5,2" d="M241.385,-540C241.385,-540 180.615,-540 180.615,-540 174.615,-540 168.615,-534 168.615,-528 168.615,-528 168.615,-516 168.615,-516 168.615,-510 174.615,-504 180.615,-504 180.615,-504 241.385,-504 241.385,-504 247.385,-504 253.385,-510 253.385,-516 253.385,-516 253.385,-528 253.385,-528 253.385,-534 247.385,-540 241.385,-540"/>
<text text-anchor="middle" x="211" y="-519" font-family="sans" font-size="10.00">sort_and_index</text>
</g>
<!-- 16&#45;&gt;11 -->
<g id="edge18" class="edge"><title>16&#45;&gt;11</title>
<path fill="none" stroke="grey" stroke-width="2" d="M213.472,-503.697C214.574,-495.983 215.898,-486.712 217.127,-478.112"/>
<polygon fill="grey" stroke="grey" stroke-width="2" points="220.607,-478.499 218.557,-468.104 213.677,-477.509 220.607,-478.499"/>
</g>
<!-- 17&#45;&gt;12 -->
<g id="edge20" class="edge"><title>17&#45;&gt;12</title>
<path fill="none" stroke="grey" stroke-width="2" d="M234.697,-287.697C236.813,-279.898 239.362,-270.509 241.718,-261.829"/>
<polygon fill="grey" stroke="grey" stroke-width="2" points="245.116,-262.672 244.357,-252.104 238.36,-260.838 245.116,-262.672"/>
</g>
<!-- 18 -->
<g id="node19" class="node"><title>18</title>
<path fill="none" stroke="#bed856" stroke-width="2" stroke-dasharray="5,2" d="M114,-900C114,-900 84,-900 84,-900 78,-900 72,-894 72,-888 72,-888 72,-876 72,-876 72,-870 78,-864 84,-864 84,-864 114,-864 114,-864 120,-864 126,-870 126,-876 126,-876 126,-888 126,-888 126,-894 120,-900 114,-900"/>
<text text-anchor="middle" x="99" y="-879" font-family="sans" font-size="10.00">trim</text>
</g>
<!-- 18&#45;&gt;13 -->
<g id="edge21" class="edge"><title>18&#45;&gt;13</title>
<path fill="none" stroke="grey" stroke-width="2" d="M99,-863.697C99,-855.983 99,-846.712 99,-838.112"/>
<polygon fill="grey" stroke="grey" stroke-width="2" points="102.5,-838.104 99,-828.104 95.5001,-838.104 102.5,-838.104"/>
</g>
<!-- 19 -->
<g id="node20" class="node"><title>19</title>
<path fill="none" stroke="#56d892" stroke-width="2" stroke-dasharray="5,2" d="M210.808,-612C210.808,-612 171.192,-612 171.192,-612 165.192,-612 159.192,-606 159.192,-600 159.192,-600 159.192,-588 159.192,-588 159.192,-582 165.192,-576 171.192,-576 171.192,-576 210.808,-576 210.808,-576 216.808,-576 222.808,-582 222.808,-588 222.808,-588 222.808,-600 222.808,-600 222.808,-606 216.808,-612 210.808,-612"/>
<text text-anchor="middle" x="191" y="-591" font-family="sans" font-size="10.00">refgenome</text>
</g>
<!-- 19&#45;&gt;16 -->
<g id="edge23" class="edge"><title>19&#45;&gt;16</title>
<path fill="none" stroke="grey" stroke-width="2" d="M195.944,-575.697C198.172,-567.898 200.855,-558.509 203.335,-549.829"/>
<polygon fill="grey" stroke="grey" stroke-width="2" points="206.731,-550.681 206.113,-540.104 200,-548.758 206.731,-550.681"/>
</g>
<!-- 20&#45;&gt;18 -->
<g id="edge25" class="edge"><title>20&#45;&gt;18</title>
<path fill="none" stroke="grey" stroke-width="2" d="M95.236,-935.697C95.7869,-927.983 96.4491,-918.712 97.0634,-910.112"/>
<polygon fill="grey" stroke="grey" stroke-width="2" points="100.557,-910.328 97.7783,-900.104 93.5746,-909.83 100.557,-910.328"/>
</g>
<!-- 21 -->
<g id="node22" class="node"><title>21</title>
<path fill="none" stroke="#8fd856" stroke-width="2" stroke-dasharray="5,2" d="M196.356,-684C196.356,-684 165.644,-684 165.644,-684 159.644,-684 153.644,-678 153.644,-672 153.644,-672 153.644,-660 153.644,-660 153.644,-654 159.644,-648 165.644,-648 165.644,-648 196.356,-648 196.356,-648 202.356,-648 208.356,-654 208.356,-660 208.356,-660 208.356,-672 208.356,-672 208.356,-678 202.356,-684 196.356,-684"/>
<text text-anchor="middle" x="181" y="-663" font-family="sans" font-size="10.00">maphost</text>
</g>
<!-- 21&#45;&gt;19 -->
<g id="edge26" class="edge"><title>21&#45;&gt;19</title>
<path fill="none" stroke="grey" stroke-width="2" d="M183.472,-647.697C184.574,-639.983 185.898,-630.712 187.127,-622.112"/>
<polygon fill="grey" stroke="grey" stroke-width="2" points="190.607,-622.499 188.557,-612.104 183.677,-621.509 190.607,-622.499"/>
</g>
<!-- 22&#45;&gt;21 -->
<g id="edge28" class="edge"><title>22&#45;&gt;21</title>
<path fill="none" stroke="grey" stroke-width="2" d="M171.213,-719.697C172.646,-711.983 174.368,-702.712 175.965,-694.112"/>
<polygon fill="grey" stroke="grey" stroke-width="2" points="179.439,-694.575 177.823,-684.104 172.556,-693.297 179.439,-694.575"/>
</g>
</g>
</svg>
