<?xml version="1.0" encoding="UTF-8" standalone="no"?>
<!DOCTYPE svg PUBLIC "-//W3C//DTD SVG 1.1//EN"
 "http://www.w3.org/Graphics/SVG/1.1/DTD/svg11.dtd">
<!-- Generated by graphviz version 2.38.0 (20140413.2041)
 -->
<!-- Title: snakemake_dag Pages: 1 -->
<svg width="489pt" height="1056pt"
 viewBox="0.00 0.00 488.63 1056.00" xmlns="http://www.w3.org/2000/svg" xmlns:xlink="http://www.w3.org/1999/xlink">
<g id="graph0" class="graph" transform="scale(1 1) rotate(0) translate(4 1052)">
<title>snakemake_dag</title>
<polygon fill="white" stroke="none" points="-4,4 -4,-1052 484.628,-1052 484.628,4 -4,4"/>
<!-- 0 -->
<g id="node1" class="node"><title>0</title>
<path fill="none" stroke="#d8b456" stroke-width="2" d="M272,-36C272,-36 242,-36 242,-36 236,-36 230,-30 230,-24 230,-24 230,-12 230,-12 230,-6 236,-0 242,-0 242,-0 272,-0 272,-0 278,-0 284,-6 284,-12 284,-12 284,-24 284,-24 284,-30 278,-36 272,-36"/>
<text text-anchor="middle" x="257" y="-15" font-family="sans" font-size="10.00">all</text>
</g>
<!-- 1 -->
<g id="node2" class="node"><title>1</title>
<path fill="none" stroke="#bed856" stroke-width="2" d="M146.875,-108C146.875,-108 81.1252,-108 81.1252,-108 75.1252,-108 69.1252,-102 69.1252,-96 69.1252,-96 69.1252,-84 69.1252,-84 69.1252,-78 75.1252,-72 81.1252,-72 81.1252,-72 146.875,-72 146.875,-72 152.875,-72 158.875,-78 158.875,-84 158.875,-84 158.875,-96 158.875,-96 158.875,-102 152.875,-108 146.875,-108"/>
<text text-anchor="middle" x="114" y="-87" font-family="sans" font-size="10.00">merge_renamed</text>
</g>
<!-- 1&#45;&gt;0 -->
<g id="edge1" class="edge"><title>1&#45;&gt;0</title>
<path fill="none" stroke="grey" stroke-width="2" d="M148.982,-71.8761C170.831,-61.1805 198.9,-47.4404 220.949,-36.6474"/>
<polygon fill="grey" stroke="grey" stroke-width="2" points="222.551,-39.76 229.994,-32.2198 219.473,-33.4729 222.551,-39.76"/>
</g>
<!-- 2 -->
<g id="node3" class="node"><title>2</title>
<path fill="none" stroke="#d86e56" stroke-width="2" d="M283.092,-108C283.092,-108 230.908,-108 230.908,-108 224.908,-108 218.908,-102 218.908,-96 218.908,-96 218.908,-84 218.908,-84 218.908,-78 224.908,-72 230.908,-72 230.908,-72 283.092,-72 283.092,-72 289.092,-72 295.092,-78 295.092,-84 295.092,-84 295.092,-96 295.092,-96 295.092,-102 289.092,-108 283.092,-108"/>
<text text-anchor="middle" x="257" y="-87" font-family="sans" font-size="10.00">merge_tables</text>
</g>
<!-- 2&#45;&gt;0 -->
<g id="edge2" class="edge"><title>2&#45;&gt;0</title>
<path fill="none" stroke="grey" stroke-width="2" d="M257,-71.6966C257,-63.9827 257,-54.7125 257,-46.1124"/>
<polygon fill="grey" stroke="grey" stroke-width="2" points="260.5,-46.1043 257,-36.1043 253.5,-46.1044 260.5,-46.1043"/>
</g>
<!-- 3 -->
<g id="node4" class="node"><title>3</title>
<path fill="none" stroke="#56d8b9" stroke-width="2" d="M393,-180C393,-180 363,-180 363,-180 357,-180 351,-174 351,-168 351,-168 351,-156 351,-156 351,-150 357,-144 363,-144 363,-144 393,-144 393,-144 399,-144 405,-150 405,-156 405,-156 405,-168 405,-168 405,-174 399,-180 393,-180"/>
<text text-anchor="middle" x="378" y="-159" font-family="sans" font-size="10.00">multiqc</text>
</g>
<!-- 3&#45;&gt;0 -->
<g id="edge3" class="edge"><title>3&#45;&gt;0</title>
<path fill="none" stroke="grey" stroke-width="2" d="M373.176,-143.684C367.163,-124.497 355.38,-93.4403 337,-72 324.967,-57.9638 308.335,-46.1376 293.351,-37.2429"/>
<polygon fill="grey" stroke="grey" stroke-width="2" points="294.713,-33.9911 284.29,-32.0899 291.252,-40.0759 294.713,-33.9911"/>
</g>
<!-- 4 -->
<g id="node5" class="node"><title>4</title>
<path fill="none" stroke="#d88556" stroke-width="2" d="M207,-398C207,-398 177,-398 177,-398 171,-398 165,-392 165,-386 165,-386 165,-374 165,-374 165,-368 171,-362 177,-362 177,-362 207,-362 207,-362 213,-362 219,-368 219,-374 219,-374 219,-386 219,-386 219,-392 213,-398 207,-398"/>
<text text-anchor="middle" x="192" y="-377" font-family="sans" font-size="10.00">lofreq</text>
</g>
<!-- 4&#45;&gt;0 -->
<g id="edge4" class="edge"><title>4&#45;&gt;0</title>
<path fill="none" stroke="grey" stroke-width="2" d="M189.237,-361.839C182.278,-313.819 167.47,-174.874 210,-72 214.273,-61.6647 221.441,-51.9843 228.908,-43.7977"/>
<polygon fill="grey" stroke="grey" stroke-width="2" points="231.608,-46.0415 236.074,-36.4338 226.591,-41.1596 231.608,-46.0415"/>
</g>
<!-- 10 -->
<g id="node11" class="node"><title>10</title>
<path fill="none" stroke="#56d87b" stroke-width="2" d="M261,-253C261,-253 231,-253 231,-253 225,-253 219,-247 219,-241 219,-241 219,-229 219,-229 219,-223 225,-217 231,-217 231,-217 261,-217 261,-217 267,-217 273,-223 273,-229 273,-229 273,-241 273,-241 273,-247 267,-253 261,-253"/>
<text text-anchor="middle" x="246" y="-232" font-family="sans" font-size="10.00">snpeff</text>
</g>
<!-- 4&#45;&gt;10 -->
<g id="edge19" class="edge"><title>4&#45;&gt;10</title>
<path fill="none" stroke="grey" stroke-width="2" d="M198.514,-361.751C207.798,-337.164 224.923,-291.816 235.871,-262.823"/>
<polygon fill="grey" stroke="grey" stroke-width="2" points="239.205,-263.902 239.463,-253.31 232.656,-261.429 239.205,-263.902"/>
</g>
<!-- 17 -->
<g id="node18" class="node"><title>17</title>
<path fill="none" stroke="#8fd856" stroke-width="2" d="M152,-326C152,-326 122,-326 122,-326 116,-326 110,-320 110,-314 110,-314 110,-302 110,-302 110,-296 116,-290 122,-290 122,-290 152,-290 152,-290 158,-290 164,-296 164,-302 164,-302 164,-314 164,-314 164,-320 158,-326 152,-326"/>
<text text-anchor="middle" x="137" y="-305" font-family="sans" font-size="10.00">vcffilter</text>
</g>
<!-- 4&#45;&gt;17 -->
<g id="edge27" class="edge"><title>4&#45;&gt;17</title>
<path fill="none" stroke="grey" stroke-width="2" d="M178.404,-361.697C171.877,-353.389 163.932,-343.277 156.753,-334.141"/>
<polygon fill="grey" stroke="grey" stroke-width="2" points="159.369,-331.805 150.439,-326.104 153.865,-336.13 159.369,-331.805"/>
</g>
<!-- 5 -->
<g id="node6" class="node"><title>5</title>
<path fill="none" stroke="#56d892" stroke-width="2" d="M42,-398C42,-398 12,-398 12,-398 6,-398 0,-392 0,-386 0,-386 0,-374 0,-374 0,-368 6,-362 12,-362 12,-362 42,-362 42,-362 48,-362 54,-368 54,-374 54,-374 54,-386 54,-386 54,-392 48,-398 42,-398"/>
<text text-anchor="middle" x="27" y="-377" font-family="sans" font-size="10.00">pileup</text>
</g>
<!-- 5&#45;&gt;0 -->
<g id="edge5" class="edge"><title>5&#45;&gt;0</title>
<path fill="none" stroke="grey" stroke-width="2" d="M27.1976,-361.831C27.489,-334.984 28,-281.433 28,-236 28,-236 28,-236 28,-161 28,-118.965 29.0788,-100.474 60,-72 104.046,-31.4391 175.832,-21.3362 219.51,-19.1521"/>
<polygon fill="grey" stroke="grey" stroke-width="2" points="219.851,-22.6417 229.71,-18.7608 219.583,-15.6469 219.851,-22.6417"/>
</g>
<!-- 6 -->
<g id="node7" class="node"><title>6</title>
<path fill="none" stroke="#569ad8" stroke-width="2" stroke-dasharray="5,2" d="M468.756,-253C468.756,-253 419.244,-253 419.244,-253 413.244,-253 407.244,-247 407.244,-241 407.244,-241 407.244,-229 407.244,-229 407.244,-223 413.244,-217 419.244,-217 419.244,-217 468.756,-217 468.756,-217 474.756,-217 480.756,-223 480.756,-229 480.756,-229 480.756,-241 480.756,-241 480.756,-247 474.756,-253 468.756,-253"/>
<text text-anchor="middle" x="444" y="-232" font-family="sans" font-size="10.00">fastq_screen</text>
</g>
<!-- 6&#45;&gt;0 -->
<g id="edge6" class="edge"><title>6&#45;&gt;0</title>
<path fill="none" stroke="grey" stroke-width="2" d="M439.935,-216.797C435.167,-198.213 426.32,-168.038 414,-144 395.996,-108.872 392.028,-97.6214 362,-72 341.794,-54.7592 315.013,-41.3554 293.555,-32.3406"/>
<polygon fill="grey" stroke="grey" stroke-width="2" points="294.696,-29.0263 284.114,-28.5094 292.064,-35.5127 294.696,-29.0263"/>
</g>
<!-- 6&#45;&gt;3 -->
<g id="edge10" class="edge"><title>6&#45;&gt;3</title>
<path fill="none" stroke="grey" stroke-width="2" d="M428.023,-216.813C419.835,-208.005 409.722,-197.125 400.736,-187.458"/>
<polygon fill="grey" stroke="grey" stroke-width="2" points="403.202,-184.97 393.83,-180.029 398.075,-189.736 403.202,-184.97"/>
</g>
<!-- 7 -->
<g id="node8" class="node"><title>7</title>
<path fill="none" stroke="#d6d856" stroke-width="2" stroke-dasharray="5,2" d="M338.916,-254C338.916,-254 303.084,-254 303.084,-254 297.084,-254 291.084,-248 291.084,-242 291.084,-242 291.084,-228 291.084,-228 291.084,-222 297.084,-216 303.084,-216 303.084,-216 338.916,-216 338.916,-216 344.916,-216 350.916,-222 350.916,-228 350.916,-228 350.916,-242 350.916,-242 350.916,-248 344.916,-254 338.916,-254"/>
<text text-anchor="middle" x="321" y="-242" font-family="sans" font-size="10.00">fastqc</text>
<text text-anchor="middle" x="321" y="-232" font-family="sans" font-size="10.00">run: A1</text>
<text text-anchor="middle" x="321" y="-222" font-family="sans" font-size="10.00">sample: A</text>
</g>
<!-- 7&#45;&gt;0 -->
<g id="edge7" class="edge"><title>7&#45;&gt;0</title>
<path fill="none" stroke="grey" stroke-width="2" d="M322.592,-215.833C324.561,-184.871 325.379,-120.523 304,-72 299.368,-61.4878 291.859,-51.5909 284.19,-43.2598"/>
<polygon fill="grey" stroke="grey" stroke-width="2" points="286.668,-40.7881 277.179,-36.0762 281.658,-45.6774 286.668,-40.7881"/>
</g>
<!-- 7&#45;&gt;3 -->
<g id="edge11" class="edge"><title>7&#45;&gt;3</title>
<path fill="none" stroke="grey" stroke-width="2" d="M335.679,-215.716C342.447,-207.285 350.588,-197.145 357.913,-188.02"/>
<polygon fill="grey" stroke="grey" stroke-width="2" points="360.818,-189.993 364.349,-180.003 355.36,-185.61 360.818,-189.993"/>
</g>
<!-- 8 -->
<g id="node9" class="node"><title>8</title>
<path fill="none" stroke="#56d8d0" stroke-width="2" d="M127,-180C127,-180 97,-180 97,-180 91,-180 85,-174 85,-168 85,-168 85,-156 85,-156 85,-150 91,-144 97,-144 97,-144 127,-144 127,-144 133,-144 139,-150 139,-156 139,-156 139,-168 139,-168 139,-174 133,-180 127,-180"/>
<text text-anchor="middle" x="112" y="-159" font-family="sans" font-size="10.00">rename</text>
</g>
<!-- 8&#45;&gt;1 -->
<g id="edge8" class="edge"><title>8&#45;&gt;1</title>
<path fill="none" stroke="grey" stroke-width="2" d="M112.494,-143.697C112.715,-135.983 112.98,-126.712 113.225,-118.112"/>
<polygon fill="grey" stroke="grey" stroke-width="2" points="116.724,-118.2 113.511,-108.104 109.727,-118 116.724,-118.2"/>
</g>
<!-- 9 -->
<g id="node10" class="node"><title>9</title>
<path fill="none" stroke="#d85656" stroke-width="2" d="M267,-180C267,-180 237,-180 237,-180 231,-180 225,-174 225,-168 225,-168 225,-156 225,-156 225,-150 231,-144 237,-144 237,-144 267,-144 267,-144 273,-144 279,-150 279,-156 279,-156 279,-168 279,-168 279,-174 273,-180 267,-180"/>
<text text-anchor="middle" x="252" y="-159" font-family="sans" font-size="10.00">snpsift</text>
</g>
<!-- 9&#45;&gt;2 -->
<g id="edge9" class="edge"><title>9&#45;&gt;2</title>
<path fill="none" stroke="grey" stroke-width="2" d="M253.236,-143.697C253.787,-135.983 254.449,-126.712 255.063,-118.112"/>
<polygon fill="grey" stroke="grey" stroke-width="2" points="258.557,-118.328 255.778,-108.104 251.575,-117.83 258.557,-118.328"/>
</g>
<!-- 10&#45;&gt;3 -->
<g id="edge12" class="edge"><title>10&#45;&gt;3</title>
<path fill="none" stroke="grey" stroke-width="2" d="M273.031,-219.461C292.83,-208.811 319.919,-194.24 341.619,-182.569"/>
<polygon fill="grey" stroke="grey" stroke-width="2" points="343.403,-185.583 350.552,-177.764 340.087,-179.418 343.403,-185.583"/>
</g>
<!-- 10&#45;&gt;9 -->
<g id="edge18" class="edge"><title>10&#45;&gt;9</title>
<path fill="none" stroke="grey" stroke-width="2" d="M247.452,-216.813C248.13,-208.789 248.954,-199.047 249.712,-190.069"/>
<polygon fill="grey" stroke="grey" stroke-width="2" points="253.206,-190.288 250.561,-180.029 246.231,-189.699 253.206,-190.288"/>
</g>
<!-- 11 -->
<g id="node12" class="node"><title>11</title>
<path fill="none" stroke="#78d856" stroke-width="2" stroke-dasharray="5,2" d="M353.073,-326C353.073,-326 320.927,-326 320.927,-326 314.927,-326 308.927,-320 308.927,-314 308.927,-314 308.927,-302 308.927,-302 308.927,-296 314.927,-290 320.927,-290 320.927,-290 353.073,-290 353.073,-290 359.073,-290 365.073,-296 365.073,-302 365.073,-302 365.073,-314 365.073,-314 365.073,-320 359.073,-326 353.073,-326"/>
<text text-anchor="middle" x="337" y="-305" font-family="sans" font-size="10.00">bamstats</text>
</g>
<!-- 11&#45;&gt;3 -->
<g id="edge13" class="edge"><title>11&#45;&gt;3</title>
<path fill="none" stroke="grey" stroke-width="2" d="M345.633,-289.692C350.427,-279.507 356.177,-266.257 360,-254 366.574,-232.923 371.269,-208.323 374.213,-190.018"/>
<polygon fill="grey" stroke="grey" stroke-width="2" points="377.686,-190.457 375.744,-180.042 370.767,-189.395 377.686,-190.457"/>
</g>
<!-- 12 -->
<g id="node13" class="node"><title>12</title>
<path fill="none" stroke="#d8c356" stroke-width="2" stroke-dasharray="5,2" d="M224.921,-470C224.921,-470 159.079,-470 159.079,-470 153.079,-470 147.079,-464 147.079,-458 147.079,-458 147.079,-446 147.079,-446 147.079,-440 153.079,-434 159.079,-434 159.079,-434 224.921,-434 224.921,-434 230.921,-434 236.921,-440 236.921,-446 236.921,-446 236.921,-458 236.921,-458 236.921,-464 230.921,-470 224.921,-470"/>
<text text-anchor="middle" x="192" y="-449" font-family="sans" font-size="10.00">samtools_merge</text>
</g>
<!-- 12&#45;&gt;4 -->
<g id="edge14" class="edge"><title>12&#45;&gt;4</title>
<path fill="none" stroke="grey" stroke-width="2" d="M192,-433.697C192,-425.983 192,-416.712 192,-408.112"/>
<polygon fill="grey" stroke="grey" stroke-width="2" points="195.5,-408.104 192,-398.104 188.5,-408.104 195.5,-408.104"/>
</g>
<!-- 12&#45;&gt;5 -->
<g id="edge15" class="edge"><title>12&#45;&gt;5</title>
<path fill="none" stroke="grey" stroke-width="2" d="M151.636,-433.876C124.734,-422.463 89.6605,-407.583 63.5758,-396.517"/>
<polygon fill="grey" stroke="grey" stroke-width="2" points="64.6272,-393.161 54.0544,-392.478 61.8933,-399.605 64.6272,-393.161"/>
</g>
<!-- 12&#45;&gt;11 -->
<g id="edge20" class="edge"><title>12&#45;&gt;11</title>
<path fill="none" stroke="grey" stroke-width="2" d="M209.49,-433.871C235.074,-408.817 282.827,-362.052 312.078,-333.406"/>
<polygon fill="grey" stroke="grey" stroke-width="2" points="314.752,-335.687 319.448,-326.189 309.854,-330.685 314.752,-335.687"/>
</g>
<!-- 14 -->
<g id="node15" class="node"><title>14</title>
<path fill="none" stroke="#56b1d8" stroke-width="2" d="M150.508,-253C150.508,-253 69.492,-253 69.492,-253 63.492,-253 57.492,-247 57.492,-241 57.492,-241 57.492,-229 57.492,-229 57.492,-223 63.492,-217 69.492,-217 69.492,-217 150.508,-217 150.508,-217 156.508,-217 162.508,-223 162.508,-229 162.508,-229 162.508,-241 162.508,-241 162.508,-247 156.508,-253 150.508,-253"/>
<text text-anchor="middle" x="110" y="-232" font-family="sans" font-size="10.00">genome_consensus</text>
</g>
<!-- 12&#45;&gt;14 -->
<g id="edge23" class="edge"><title>12&#45;&gt;14</title>
<path fill="none" stroke="grey" stroke-width="2" d="M173.652,-433.638C151.456,-411.239 115.288,-369.903 101,-326 94.3067,-305.433 97.4209,-280.945 101.727,-262.709"/>
<polygon fill="grey" stroke="grey" stroke-width="2" points="105.114,-263.588 104.261,-253.028 98.3425,-261.816 105.114,-263.588"/>
</g>
<!-- 13 -->
<g id="node14" class="node"><title>13</title>
<path fill="none" stroke="#61d856" stroke-width="2" stroke-dasharray="5,2" d="M399,-830C399,-830 369,-830 369,-830 363,-830 357,-824 357,-818 357,-818 357,-806 357,-806 357,-800 363,-794 369,-794 369,-794 399,-794 399,-794 405,-794 411,-800 411,-806 411,-806 411,-818 411,-818 411,-824 405,-830 399,-830"/>
<text text-anchor="middle" x="384" y="-809" font-family="sans" font-size="10.00">filter</text>
</g>
<!-- 13&#45;&gt;6 -->
<g id="edge16" class="edge"><title>13&#45;&gt;6</title>
<path fill="none" stroke="grey" stroke-width="2" d="M391.083,-793.848C401.31,-767.487 419,-715.211 419,-669 419,-669 419,-669 419,-379 419,-338.103 429.045,-291.597 436.4,-263.025"/>
<polygon fill="grey" stroke="grey" stroke-width="2" points="439.878,-263.565 439.061,-253.001 433.112,-261.768 439.878,-263.565"/>
</g>
<!-- 22 -->
<g id="node23" class="node"><title>22</title>
<path fill="none" stroke="#d89c56" stroke-width="2" stroke-dasharray="5,2" d="M367.897,-758C367.897,-758 332.103,-758 332.103,-758 326.103,-758 320.103,-752 320.103,-746 320.103,-746 320.103,-734 320.103,-734 320.103,-728 326.103,-722 332.103,-722 332.103,-722 367.897,-722 367.897,-722 373.897,-722 379.897,-728 379.897,-734 379.897,-734 379.897,-746 379.897,-746 379.897,-752 373.897,-758 367.897,-758"/>
<text text-anchor="middle" x="350" y="-737" font-family="sans" font-size="10.00">maprRNA</text>
</g>
<!-- 13&#45;&gt;22 -->
<g id="edge31" class="edge"><title>13&#45;&gt;22</title>
<path fill="none" stroke="grey" stroke-width="2" d="M375.596,-793.697C371.725,-785.728 367.048,-776.1 362.757,-767.264"/>
<polygon fill="grey" stroke="grey" stroke-width="2" points="365.825,-765.57 358.308,-758.104 359.529,-768.629 365.825,-765.57"/>
</g>
<!-- 14&#45;&gt;8 -->
<g id="edge17" class="edge"><title>14&#45;&gt;8</title>
<path fill="none" stroke="grey" stroke-width="2" d="M110.484,-216.813C110.71,-208.789 110.985,-199.047 111.237,-190.069"/>
<polygon fill="grey" stroke="grey" stroke-width="2" points="114.737,-190.123 111.52,-180.029 107.74,-189.926 114.737,-190.123"/>
</g>
<!-- 15 -->
<g id="node16" class="node"><title>15</title>
<path fill="none" stroke="#5682d8" stroke-width="2" stroke-dasharray="5,2" d="M301.385,-542C301.385,-542 240.615,-542 240.615,-542 234.615,-542 228.615,-536 228.615,-530 228.615,-530 228.615,-518 228.615,-518 228.615,-512 234.615,-506 240.615,-506 240.615,-506 301.385,-506 301.385,-506 307.385,-506 313.385,-512 313.385,-518 313.385,-518 313.385,-530 313.385,-530 313.385,-536 307.385,-542 301.385,-542"/>
<text text-anchor="middle" x="271" y="-521" font-family="sans" font-size="10.00">sort_and_index</text>
</g>
<!-- 15&#45;&gt;12 -->
<g id="edge21" class="edge"><title>15&#45;&gt;12</title>
<path fill="none" stroke="grey" stroke-width="2" d="M251.472,-505.697C241.618,-496.965 229.514,-486.24 218.804,-476.75"/>
<polygon fill="grey" stroke="grey" stroke-width="2" points="221.109,-474.117 211.303,-470.104 216.467,-479.356 221.109,-474.117"/>
</g>
<!-- 16 -->
<g id="node17" class="node"><title>16</title>
<path fill="none" stroke="#566bd8" stroke-width="2" stroke-dasharray="5,2" d="M399,-902C399,-902 369,-902 369,-902 363,-902 357,-896 357,-890 357,-890 357,-878 357,-878 357,-872 363,-866 369,-866 369,-866 399,-866 399,-866 405,-866 411,-872 411,-878 411,-878 411,-890 411,-890 411,-896 405,-902 399,-902"/>
<text text-anchor="middle" x="384" y="-881" font-family="sans" font-size="10.00">trim</text>
</g>
<!-- 16&#45;&gt;13 -->
<g id="edge22" class="edge"><title>16&#45;&gt;13</title>
<path fill="none" stroke="grey" stroke-width="2" d="M384,-865.697C384,-857.983 384,-848.712 384,-840.112"/>
<polygon fill="grey" stroke="grey" stroke-width="2" points="387.5,-840.104 384,-830.104 380.5,-840.104 387.5,-840.104"/>
</g>
<!-- 17&#45;&gt;14 -->
<g id="edge24" class="edge"><title>17&#45;&gt;14</title>
<path fill="none" stroke="grey" stroke-width="2" d="M130.464,-289.813C127.347,-281.615 123.547,-271.623 120.072,-262.485"/>
<polygon fill="grey" stroke="grey" stroke-width="2" points="123.302,-261.132 116.476,-253.029 116.759,-263.62 123.302,-261.132"/>
</g>
<!-- 18 -->
<g id="node19" class="node"><title>18</title>
<path fill="none" stroke="#56d8a2" stroke-width="2" stroke-dasharray="5,2" d="M334.808,-614C334.808,-614 295.192,-614 295.192,-614 289.192,-614 283.192,-608 283.192,-602 283.192,-602 283.192,-590 283.192,-590 283.192,-584 289.192,-578 295.192,-578 295.192,-578 334.808,-578 334.808,-578 340.808,-578 346.808,-584 346.808,-590 346.808,-590 346.808,-602 346.808,-602 346.808,-608 340.808,-614 334.808,-614"/>
<text text-anchor="middle" x="315" y="-593" font-family="sans" font-size="10.00">refgenome</text>
</g>
<!-- 18&#45;&gt;15 -->
<g id="edge25" class="edge"><title>18&#45;&gt;15</title>
<path fill="none" stroke="grey" stroke-width="2" d="M304.124,-577.697C299.008,-569.559 292.805,-559.689 287.155,-550.701"/>
<polygon fill="grey" stroke="grey" stroke-width="2" points="290.036,-548.708 281.751,-542.104 284.11,-552.433 290.036,-548.708"/>
</g>
<!-- 19 -->
<g id="node20" class="node"><title>19</title>
<path fill="none" stroke="#56c9d8" stroke-width="2" stroke-dasharray="5,2" d="M399,-974C399,-974 369,-974 369,-974 363,-974 357,-968 357,-962 357,-962 357,-950 357,-950 357,-944 363,-938 369,-938 369,-938 399,-938 399,-938 405,-938 411,-944 411,-950 411,-950 411,-962 411,-962 411,-968 405,-974 399,-974"/>
<text text-anchor="middle" x="384" y="-953" font-family="sans" font-size="10.00">clumpify</text>
</g>
<!-- 19&#45;&gt;16 -->
<g id="edge26" class="edge"><title>19&#45;&gt;16</title>
<path fill="none" stroke="grey" stroke-width="2" d="M384,-937.697C384,-929.983 384,-920.712 384,-912.112"/>
<polygon fill="grey" stroke="grey" stroke-width="2" points="387.5,-912.104 384,-902.104 380.5,-912.104 387.5,-912.104"/>
</g>
<!-- 20 -->
<g id="node21" class="node"><title>20</title>
<path fill="none" stroke="#56d863" stroke-width="2" stroke-dasharray="5,2" d="M342.356,-686C342.356,-686 311.644,-686 311.644,-686 305.644,-686 299.644,-680 299.644,-674 299.644,-674 299.644,-662 299.644,-662 299.644,-656 305.644,-650 311.644,-650 311.644,-650 342.356,-650 342.356,-650 348.356,-650 354.356,-656 354.356,-662 354.356,-662 354.356,-674 354.356,-674 354.356,-680 348.356,-686 342.356,-686"/>
<text text-anchor="middle" x="327" y="-665" font-family="sans" font-size="10.00">maphost</text>
</g>
<!-- 20&#45;&gt;18 -->
<g id="edge28" class="edge"><title>20&#45;&gt;18</title>
<path fill="none" stroke="grey" stroke-width="2" d="M324.034,-649.697C322.711,-641.983 321.122,-632.712 319.648,-624.112"/>
<polygon fill="grey" stroke="grey" stroke-width="2" points="323.072,-623.369 317.932,-614.104 316.172,-624.552 323.072,-623.369"/>
</g>
<!-- 21 -->
<g id="node22" class="node"><title>21</title>
<path fill="none" stroke="#a7d856" stroke-width="2" stroke-dasharray="5,2" d="M401.916,-1048C401.916,-1048 366.084,-1048 366.084,-1048 360.084,-1048 354.084,-1042 354.084,-1036 354.084,-1036 354.084,-1022 354.084,-1022 354.084,-1016 360.084,-1010 366.084,-1010 366.084,-1010 401.916,-1010 401.916,-1010 407.916,-1010 413.916,-1016 413.916,-1022 413.916,-1022 413.916,-1036 413.916,-1036 413.916,-1042 407.916,-1048 401.916,-1048"/>
<text text-anchor="middle" x="384" y="-1036" font-family="sans" font-size="10.00">reformat</text>
<text text-anchor="middle" x="384" y="-1026" font-family="sans" font-size="10.00">run: A1</text>
<text text-anchor="middle" x="384" y="-1016" font-family="sans" font-size="10.00">sample: A</text>
</g>
<!-- 21&#45;&gt;19 -->
<g id="edge29" class="edge"><title>21&#45;&gt;19</title>
<path fill="none" stroke="grey" stroke-width="2" d="M384,-1009.72C384,-1001.97 384,-992.789 384,-984.274"/>
<polygon fill="grey" stroke="grey" stroke-width="2" points="387.5,-984.003 384,-974.003 380.5,-984.003 387.5,-984.003"/>
</g>
<!-- 22&#45;&gt;20 -->
<g id="edge30" class="edge"><title>22&#45;&gt;20</title>
<path fill="none" stroke="grey" stroke-width="2" d="M344.315,-721.697C341.752,-713.898 338.667,-704.509 335.815,-695.829"/>
<polygon fill="grey" stroke="grey" stroke-width="2" points="339.067,-694.512 332.62,-686.104 332.416,-696.697 339.067,-694.512"/>
</g>
</g>
</svg>
