<?xml version="1.0" encoding="UTF-8" standalone="no"?>
<!DOCTYPE svg PUBLIC "-//W3C//DTD SVG 1.1//EN"
 "http://www.w3.org/Graphics/SVG/1.1/DTD/svg11.dtd">
<!-- Generated by graphviz version 2.38.0 (20140413.2041)
 -->
<!-- Title: snakemake_dag Pages: 1 -->
<svg width="395pt" height="1056pt"
 viewBox="0.00 0.00 394.63 1056.00" xmlns="http://www.w3.org/2000/svg" xmlns:xlink="http://www.w3.org/1999/xlink">
<g id="graph0" class="graph" transform="scale(1 1) rotate(0) translate(4 1052)">
<title>snakemake_dag</title>
<polygon fill="white" stroke="none" points="-4,4 -4,-1052 390.628,-1052 390.628,4 -4,4"/>
<!-- 0 -->
<g id="node1" class="node"><title>0</title>
<path fill="none" stroke="#d6d856" stroke-width="2" d="M241.628,-36C241.628,-36 211.628,-36 211.628,-36 205.628,-36 199.628,-30 199.628,-24 199.628,-24 199.628,-12 199.628,-12 199.628,-6 205.628,-0 211.628,-0 211.628,-0 241.628,-0 241.628,-0 247.628,-0 253.628,-6 253.628,-12 253.628,-12 253.628,-24 253.628,-24 253.628,-30 247.628,-36 241.628,-36"/>
<text text-anchor="middle" x="226.628" y="-15" font-family="sans" font-size="10.00">all</text>
</g>
<!-- 1 -->
<g id="node2" class="node"><title>1</title>
<path fill="none" stroke="#56d892" stroke-width="2" d="M299.503,-108C299.503,-108 233.753,-108 233.753,-108 227.753,-108 221.753,-102 221.753,-96 221.753,-96 221.753,-84 221.753,-84 221.753,-78 227.753,-72 233.753,-72 233.753,-72 299.503,-72 299.503,-72 305.503,-72 311.503,-78 311.503,-84 311.503,-84 311.503,-96 311.503,-96 311.503,-102 305.503,-108 299.503,-108"/>
<text text-anchor="middle" x="266.628" y="-87" font-family="sans" font-size="10.00">merge_renamed</text>
</g>
<!-- 1&#45;&gt;0 -->
<g id="edge1" class="edge"><title>1&#45;&gt;0</title>
<path fill="none" stroke="grey" stroke-width="2" d="M256.74,-71.6966C252.139,-63.6436 246.568,-53.8945 241.475,-44.9824"/>
<polygon fill="grey" stroke="grey" stroke-width="2" points="244.402,-43.0503 236.402,-36.1043 238.324,-46.5233 244.402,-43.0503"/>
</g>
<!-- 2 -->
<g id="node3" class="node"><title>2</title>
<path fill="none" stroke="#56d8d0" stroke-width="2" d="M212.72,-180C212.72,-180 160.536,-180 160.536,-180 154.536,-180 148.536,-174 148.536,-168 148.536,-168 148.536,-156 148.536,-156 148.536,-150 154.536,-144 160.536,-144 160.536,-144 212.72,-144 212.72,-144 218.72,-144 224.72,-150 224.72,-156 224.72,-156 224.72,-168 224.72,-168 224.72,-174 218.72,-180 212.72,-180"/>
<text text-anchor="middle" x="186.628" y="-159" font-family="sans" font-size="10.00">merge_tables</text>
</g>
<!-- 2&#45;&gt;0 -->
<g id="edge2" class="edge"><title>2&#45;&gt;0</title>
<path fill="none" stroke="grey" stroke-width="2" d="M191.453,-143.871C198.3,-119.564 210.904,-74.8187 219.019,-46.0132"/>
<polygon fill="grey" stroke="grey" stroke-width="2" points="222.443,-46.7637 221.786,-36.1893 215.706,-44.8657 222.443,-46.7637"/>
</g>
<!-- 3 -->
<g id="node4" class="node"><title>3</title>
<path fill="none" stroke="#78d856" stroke-width="2" d="M125.628,-252C125.628,-252 95.6279,-252 95.6279,-252 89.6279,-252 83.6279,-246 83.6279,-240 83.6279,-240 83.6279,-228 83.6279,-228 83.6279,-222 89.6279,-216 95.6279,-216 95.6279,-216 125.628,-216 125.628,-216 131.628,-216 137.628,-222 137.628,-228 137.628,-228 137.628,-240 137.628,-240 137.628,-246 131.628,-252 125.628,-252"/>
<text text-anchor="middle" x="110.628" y="-231" font-family="sans" font-size="10.00">multiqc</text>
</g>
<!-- 3&#45;&gt;0 -->
<g id="edge3" class="edge"><title>3&#45;&gt;0</title>
<path fill="none" stroke="grey" stroke-width="2" d="M114.659,-215.687C119.301,-197.314 127.832,-167.718 139.628,-144 158.059,-106.94 186.481,-68.4631 205.783,-44.16"/>
<polygon fill="grey" stroke="grey" stroke-width="2" points="208.66,-46.1669 212.198,-36.1804 203.205,-41.7807 208.66,-46.1669"/>
</g>
<!-- 4 -->
<g id="node5" class="node"><title>4</title>
<path fill="none" stroke="#61d856" stroke-width="2" d="M374.628,-108C374.628,-108 344.628,-108 344.628,-108 338.628,-108 332.628,-102 332.628,-96 332.628,-96 332.628,-84 332.628,-84 332.628,-78 338.628,-72 344.628,-72 344.628,-72 374.628,-72 374.628,-72 380.628,-72 386.628,-78 386.628,-84 386.628,-84 386.628,-96 386.628,-96 386.628,-102 380.628,-108 374.628,-108"/>
<text text-anchor="middle" x="359.628" y="-87" font-family="sans" font-size="10.00">pileup</text>
</g>
<!-- 4&#45;&gt;0 -->
<g id="edge4" class="edge"><title>4&#45;&gt;0</title>
<path fill="none" stroke="grey" stroke-width="2" d="M332.392,-74.6655C312.31,-64.0958 284.784,-49.6087 262.848,-38.0632"/>
<polygon fill="grey" stroke="grey" stroke-width="2" points="264.306,-34.8756 253.827,-33.3153 261.046,-41.07 264.306,-34.8756"/>
</g>
<!-- 5 -->
<g id="node6" class="node"><title>5</title>
<path fill="none" stroke="#d8b456" stroke-width="2" d="M288.628,-180C288.628,-180 258.628,-180 258.628,-180 252.628,-180 246.628,-174 246.628,-168 246.628,-168 246.628,-156 246.628,-156 246.628,-150 252.628,-144 258.628,-144 258.628,-144 288.628,-144 288.628,-144 294.628,-144 300.628,-150 300.628,-156 300.628,-156 300.628,-168 300.628,-168 300.628,-174 294.628,-180 288.628,-180"/>
<text text-anchor="middle" x="273.628" y="-159" font-family="sans" font-size="10.00">rename</text>
</g>
<!-- 5&#45;&gt;1 -->
<g id="edge5" class="edge"><title>5&#45;&gt;1</title>
<path fill="none" stroke="grey" stroke-width="2" d="M271.898,-143.697C271.126,-135.983 270.199,-126.712 269.339,-118.112"/>
<polygon fill="grey" stroke="grey" stroke-width="2" points="272.816,-117.706 268.338,-108.104 265.851,-118.403 272.816,-117.706"/>
</g>
<!-- 6 -->
<g id="node7" class="node"><title>6</title>
<path fill="none" stroke="#56b1d8" stroke-width="2" d="M197.628,-252C197.628,-252 167.628,-252 167.628,-252 161.628,-252 155.628,-246 155.628,-240 155.628,-240 155.628,-228 155.628,-228 155.628,-222 161.628,-216 167.628,-216 167.628,-216 197.628,-216 197.628,-216 203.628,-216 209.628,-222 209.628,-228 209.628,-228 209.628,-240 209.628,-240 209.628,-246 203.628,-252 197.628,-252"/>
<text text-anchor="middle" x="182.628" y="-231" font-family="sans" font-size="10.00">snpsift</text>
</g>
<!-- 6&#45;&gt;2 -->
<g id="edge6" class="edge"><title>6&#45;&gt;2</title>
<path fill="none" stroke="grey" stroke-width="2" d="M183.617,-215.697C184.057,-207.983 184.587,-198.712 185.079,-190.112"/>
<polygon fill="grey" stroke="grey" stroke-width="2" points="188.574,-190.288 185.651,-180.104 181.586,-189.888 188.574,-190.288"/>
</g>
<!-- 7 -->
<g id="node8" class="node"><title>7</title>
<path fill="none" stroke="#8fd856" stroke-width="2" stroke-dasharray="5,2" d="M61.3842,-686C61.3842,-686 11.8716,-686 11.8716,-686 5.87162,-686 -0.128378,-680 -0.128378,-674 -0.128378,-674 -0.128378,-662 -0.128378,-662 -0.128378,-656 5.87162,-650 11.8716,-650 11.8716,-650 61.3842,-650 61.3842,-650 67.3842,-650 73.3842,-656 73.3842,-662 73.3842,-662 73.3842,-674 73.3842,-674 73.3842,-680 67.3842,-686 61.3842,-686"/>
<text text-anchor="middle" x="36.6279" y="-665" font-family="sans" font-size="10.00">fastq_screen</text>
</g>
<!-- 7&#45;&gt;3 -->
<g id="edge7" class="edge"><title>7&#45;&gt;3</title>
<path fill="none" stroke="grey" stroke-width="2" d="M32.9854,-649.601C27.7257,-622.918 18.6279,-570.227 18.6279,-525 18.6279,-525 18.6279,-525 18.6279,-379 18.6279,-337.683 15.1819,-322.688 37.6279,-288 46.7712,-273.87 61.1014,-262.264 74.6528,-253.552"/>
<polygon fill="grey" stroke="grey" stroke-width="2" points="76.6542,-256.432 83.3832,-248.248 73.0195,-250.449 76.6542,-256.432"/>
</g>
<!-- 8 -->
<g id="node9" class="node"><title>8</title>
<path fill="none" stroke="#56d863" stroke-width="2" stroke-dasharray="5,2" d="M94.544,-326C94.544,-326 58.7119,-326 58.7119,-326 52.7119,-326 46.7119,-320 46.7119,-314 46.7119,-314 46.7119,-300 46.7119,-300 46.7119,-294 52.7119,-288 58.7119,-288 58.7119,-288 94.544,-288 94.544,-288 100.544,-288 106.544,-294 106.544,-300 106.544,-300 106.544,-314 106.544,-314 106.544,-320 100.544,-326 94.544,-326"/>
<text text-anchor="middle" x="76.6279" y="-314" font-family="sans" font-size="10.00">fastqc</text>
<text text-anchor="middle" x="76.6279" y="-304" font-family="sans" font-size="10.00">run: A1</text>
<text text-anchor="middle" x="76.6279" y="-294" font-family="sans" font-size="10.00">sample: A</text>
</g>
<!-- 8&#45;&gt;3 -->
<g id="edge8" class="edge"><title>8&#45;&gt;3</title>
<path fill="none" stroke="grey" stroke-width="2" d="M85.3838,-287.716C89.2562,-279.629 93.8817,-269.97 98.109,-261.142"/>
<polygon fill="grey" stroke="grey" stroke-width="2" points="101.323,-262.534 102.485,-252.003 95.0096,-259.511 101.323,-262.534"/>
</g>
<!-- 9 -->
<g id="node10" class="node"><title>9</title>
<path fill="none" stroke="#566bd8" stroke-width="2" d="M204.628,-325C204.628,-325 174.628,-325 174.628,-325 168.628,-325 162.628,-319 162.628,-313 162.628,-313 162.628,-301 162.628,-301 162.628,-295 168.628,-289 174.628,-289 174.628,-289 204.628,-289 204.628,-289 210.628,-289 216.628,-295 216.628,-301 216.628,-301 216.628,-313 216.628,-313 216.628,-319 210.628,-325 204.628,-325"/>
<text text-anchor="middle" x="189.628" y="-304" font-family="sans" font-size="10.00">snpeff</text>
</g>
<!-- 9&#45;&gt;3 -->
<g id="edge9" class="edge"><title>9&#45;&gt;3</title>
<path fill="none" stroke="grey" stroke-width="2" d="M170.504,-288.813C160.509,-279.83 148.118,-268.693 137.205,-258.886"/>
<polygon fill="grey" stroke="grey" stroke-width="2" points="139.353,-256.11 129.576,-252.029 134.674,-261.316 139.353,-256.11"/>
</g>
<!-- 9&#45;&gt;6 -->
<g id="edge13" class="edge"><title>9&#45;&gt;6</title>
<path fill="none" stroke="grey" stroke-width="2" d="M187.933,-288.813C187.142,-280.789 186.182,-271.047 185.297,-262.069"/>
<polygon fill="grey" stroke="grey" stroke-width="2" points="188.771,-261.637 184.307,-252.029 181.805,-262.324 188.771,-261.637"/>
</g>
<!-- 10 -->
<g id="node11" class="node"><title>10</title>
<path fill="none" stroke="#bed856" stroke-width="2" stroke-dasharray="5,2" d="M163.701,-398C163.701,-398 131.555,-398 131.555,-398 125.555,-398 119.555,-392 119.555,-386 119.555,-386 119.555,-374 119.555,-374 119.555,-368 125.555,-362 131.555,-362 131.555,-362 163.701,-362 163.701,-362 169.701,-362 175.701,-368 175.701,-374 175.701,-374 175.701,-386 175.701,-386 175.701,-392 169.701,-398 163.701,-398"/>
<text text-anchor="middle" x="147.628" y="-377" font-family="sans" font-size="10.00">bamstats</text>
</g>
<!-- 10&#45;&gt;3 -->
<g id="edge10" class="edge"><title>10&#45;&gt;3</title>
<path fill="none" stroke="grey" stroke-width="2" d="M143.238,-361.916C136.896,-337.233 125.107,-291.351 117.576,-262.041"/>
<polygon fill="grey" stroke="grey" stroke-width="2" points="120.89,-260.876 115.012,-252.062 114.111,-262.618 120.89,-260.876"/>
</g>
<!-- 11 -->
<g id="node12" class="node"><title>11</title>
<path fill="none" stroke="#d85656" stroke-width="2" stroke-dasharray="5,2" d="M280.549,-470C280.549,-470 214.707,-470 214.707,-470 208.707,-470 202.707,-464 202.707,-458 202.707,-458 202.707,-446 202.707,-446 202.707,-440 208.707,-434 214.707,-434 214.707,-434 280.549,-434 280.549,-434 286.549,-434 292.549,-440 292.549,-446 292.549,-446 292.549,-458 292.549,-458 292.549,-464 286.549,-470 280.549,-470"/>
<text text-anchor="middle" x="247.628" y="-449" font-family="sans" font-size="10.00">samtools_merge</text>
</g>
<!-- 11&#45;&gt;4 -->
<g id="edge11" class="edge"><title>11&#45;&gt;4</title>
<path fill="none" stroke="grey" stroke-width="2" d="M274.644,-433.799C308.356,-409.985 361.628,-363.562 361.628,-308 361.628,-308 361.628,-308 361.628,-233 361.628,-192.992 360.824,-146.65 360.236,-118.078"/>
<polygon fill="grey" stroke="grey" stroke-width="2" points="363.735,-117.972 360.023,-108.048 356.736,-118.12 363.735,-117.972"/>
</g>
<!-- 11&#45;&gt;10 -->
<g id="edge16" class="edge"><title>11&#45;&gt;10</title>
<path fill="none" stroke="grey" stroke-width="2" d="M223.165,-433.876C210.332,-424.893 194.432,-413.763 180.534,-404.034"/>
<polygon fill="grey" stroke="grey" stroke-width="2" points="182.384,-401.057 172.185,-398.19 178.37,-406.792 182.384,-401.057"/>
</g>
<!-- 12 -->
<g id="node13" class="node"><title>12</title>
<path fill="none" stroke="#56d8b9" stroke-width="2" d="M321.136,-252C321.136,-252 240.12,-252 240.12,-252 234.12,-252 228.12,-246 228.12,-240 228.12,-240 228.12,-228 228.12,-228 228.12,-222 234.12,-216 240.12,-216 240.12,-216 321.136,-216 321.136,-216 327.136,-216 333.136,-222 333.136,-228 333.136,-228 333.136,-240 333.136,-240 333.136,-246 327.136,-252 321.136,-252"/>
<text text-anchor="middle" x="280.628" y="-231" font-family="sans" font-size="10.00">genome_consensus</text>
</g>
<!-- 11&#45;&gt;12 -->
<g id="edge18" class="edge"><title>11&#45;&gt;12</title>
<path fill="none" stroke="grey" stroke-width="2" d="M261.884,-433.889C269.438,-423.981 278.243,-410.94 283.628,-398 302.563,-352.499 305.246,-336.691 297.628,-288 296.269,-279.312 293.728,-270.104 291.017,-261.843"/>
<polygon fill="grey" stroke="grey" stroke-width="2" points="294.297,-260.62 287.694,-252.335 287.689,-262.93 294.297,-260.62"/>
</g>
<!-- 14 -->
<g id="node15" class="node"><title>14</title>
<path fill="none" stroke="#56c9d8" stroke-width="2" d="M262.628,-398C262.628,-398 232.628,-398 232.628,-398 226.628,-398 220.628,-392 220.628,-386 220.628,-386 220.628,-374 220.628,-374 220.628,-368 226.628,-362 232.628,-362 232.628,-362 262.628,-362 262.628,-362 268.628,-362 274.628,-368 274.628,-374 274.628,-374 274.628,-386 274.628,-386 274.628,-392 268.628,-398 262.628,-398"/>
<text text-anchor="middle" x="247.628" y="-377" font-family="sans" font-size="10.00">lofreq</text>
</g>
<!-- 11&#45;&gt;14 -->
<g id="edge21" class="edge"><title>11&#45;&gt;14</title>
<path fill="none" stroke="grey" stroke-width="2" d="M247.628,-433.697C247.628,-425.983 247.628,-416.712 247.628,-408.112"/>
<polygon fill="grey" stroke="grey" stroke-width="2" points="251.128,-408.104 247.628,-398.104 244.128,-408.104 251.128,-408.104"/>
</g>
<!-- 12&#45;&gt;5 -->
<g id="edge12" class="edge"><title>12&#45;&gt;5</title>
<path fill="none" stroke="grey" stroke-width="2" d="M278.898,-215.697C278.126,-207.983 277.199,-198.712 276.339,-190.112"/>
<polygon fill="grey" stroke="grey" stroke-width="2" points="279.816,-189.706 275.338,-180.104 272.851,-190.403 279.816,-189.706"/>
</g>
<!-- 13 -->
<g id="node14" class="node"><title>13</title>
<path fill="none" stroke="#5682d8" stroke-width="2" stroke-dasharray="5,2" d="M100.628,-830C100.628,-830 70.6279,-830 70.6279,-830 64.6279,-830 58.6279,-824 58.6279,-818 58.6279,-818 58.6279,-806 58.6279,-806 58.6279,-800 64.6279,-794 70.6279,-794 70.6279,-794 100.628,-794 100.628,-794 106.628,-794 112.628,-800 112.628,-806 112.628,-806 112.628,-818 112.628,-818 112.628,-824 106.628,-830 100.628,-830"/>
<text text-anchor="middle" x="85.6279" y="-809" font-family="sans" font-size="10.00">filter</text>
</g>
<!-- 13&#45;&gt;7 -->
<g id="edge14" class="edge"><title>13&#45;&gt;7</title>
<path fill="none" stroke="grey" stroke-width="2" d="M79.7174,-793.871C71.3295,-769.564 55.8893,-724.819 45.9494,-696.013"/>
<polygon fill="grey" stroke="grey" stroke-width="2" points="49.13,-694.501 42.5594,-686.189 42.5129,-696.784 49.13,-694.501"/>
</g>
<!-- 22 -->
<g id="node23" class="node"><title>22</title>
<path fill="none" stroke="#56d87b" stroke-width="2" stroke-dasharray="5,2" d="M136.525,-758C136.525,-758 100.731,-758 100.731,-758 94.7314,-758 88.7314,-752 88.7314,-746 88.7314,-746 88.7314,-734 88.7314,-734 88.7314,-728 94.7314,-722 100.731,-722 100.731,-722 136.525,-722 136.525,-722 142.525,-722 148.525,-728 148.525,-734 148.525,-734 148.525,-746 148.525,-746 148.525,-752 142.525,-758 136.525,-758"/>
<text text-anchor="middle" x="118.628" y="-737" font-family="sans" font-size="10.00">maprRNA</text>
</g>
<!-- 13&#45;&gt;22 -->
<g id="edge28" class="edge"><title>13&#45;&gt;22</title>
<path fill="none" stroke="grey" stroke-width="2" d="M93.7852,-793.697C97.5417,-785.728 102.081,-776.1 106.246,-767.264"/>
<polygon fill="grey" stroke="grey" stroke-width="2" points="109.466,-768.642 110.564,-758.104 103.134,-765.657 109.466,-768.642"/>
</g>
<!-- 14&#45;&gt;9 -->
<g id="edge15" class="edge"><title>14&#45;&gt;9</title>
<path fill="none" stroke="grey" stroke-width="2" d="M233.588,-361.813C226.535,-353.179 217.856,-342.555 210.078,-333.034"/>
<polygon fill="grey" stroke="grey" stroke-width="2" points="212.576,-330.559 203.539,-325.029 207.155,-334.988 212.576,-330.559"/>
</g>
<!-- 16 -->
<g id="node17" class="node"><title>16</title>
<path fill="none" stroke="#569ad8" stroke-width="2" d="M276.628,-325C276.628,-325 246.628,-325 246.628,-325 240.628,-325 234.628,-319 234.628,-313 234.628,-313 234.628,-301 234.628,-301 234.628,-295 240.628,-289 246.628,-289 246.628,-289 276.628,-289 276.628,-289 282.628,-289 288.628,-295 288.628,-301 288.628,-301 288.628,-313 288.628,-313 288.628,-319 282.628,-325 276.628,-325"/>
<text text-anchor="middle" x="261.628" y="-304" font-family="sans" font-size="10.00">vcffilter</text>
</g>
<!-- 14&#45;&gt;16 -->
<g id="edge23" class="edge"><title>14&#45;&gt;16</title>
<path fill="none" stroke="grey" stroke-width="2" d="M251.017,-361.813C252.599,-353.789 254.52,-344.047 256.29,-335.069"/>
<polygon fill="grey" stroke="grey" stroke-width="2" points="259.769,-335.517 258.27,-325.029 252.902,-334.163 259.769,-335.517"/>
</g>
<!-- 15 -->
<g id="node16" class="node"><title>15</title>
<path fill="none" stroke="#a7d856" stroke-width="2" stroke-dasharray="5,2" d="M268.013,-542C268.013,-542 207.243,-542 207.243,-542 201.243,-542 195.243,-536 195.243,-530 195.243,-530 195.243,-518 195.243,-518 195.243,-512 201.243,-506 207.243,-506 207.243,-506 268.013,-506 268.013,-506 274.013,-506 280.013,-512 280.013,-518 280.013,-518 280.013,-530 280.013,-530 280.013,-536 274.013,-542 268.013,-542"/>
<text text-anchor="middle" x="237.628" y="-521" font-family="sans" font-size="10.00">sort_and_index</text>
</g>
<!-- 15&#45;&gt;11 -->
<g id="edge17" class="edge"><title>15&#45;&gt;11</title>
<path fill="none" stroke="grey" stroke-width="2" d="M240.1,-505.697C241.202,-497.983 242.526,-488.712 243.755,-480.112"/>
<polygon fill="grey" stroke="grey" stroke-width="2" points="247.235,-480.499 245.184,-470.104 240.305,-479.509 247.235,-480.499"/>
</g>
<!-- 16&#45;&gt;12 -->
<g id="edge19" class="edge"><title>16&#45;&gt;12</title>
<path fill="none" stroke="grey" stroke-width="2" d="M266.227,-288.813C268.398,-280.702 271.038,-270.836 273.462,-261.777"/>
<polygon fill="grey" stroke="grey" stroke-width="2" points="276.867,-262.594 276.071,-252.029 270.105,-260.784 276.867,-262.594"/>
</g>
<!-- 17 -->
<g id="node18" class="node"><title>17</title>
<path fill="none" stroke="#d8c356" stroke-width="2" stroke-dasharray="5,2" d="M100.628,-902C100.628,-902 70.6279,-902 70.6279,-902 64.6279,-902 58.6279,-896 58.6279,-890 58.6279,-890 58.6279,-878 58.6279,-878 58.6279,-872 64.6279,-866 70.6279,-866 70.6279,-866 100.628,-866 100.628,-866 106.628,-866 112.628,-872 112.628,-878 112.628,-878 112.628,-890 112.628,-890 112.628,-896 106.628,-902 100.628,-902"/>
<text text-anchor="middle" x="85.6279" y="-881" font-family="sans" font-size="10.00">trim</text>
</g>
<!-- 17&#45;&gt;13 -->
<g id="edge20" class="edge"><title>17&#45;&gt;13</title>
<path fill="none" stroke="grey" stroke-width="2" d="M85.6279,-865.697C85.6279,-857.983 85.6279,-848.712 85.6279,-840.112"/>
<polygon fill="grey" stroke="grey" stroke-width="2" points="89.128,-840.104 85.6279,-830.104 82.128,-840.104 89.128,-840.104"/>
</g>
<!-- 18 -->
<g id="node19" class="node"><title>18</title>
<path fill="none" stroke="#d86e56" stroke-width="2" stroke-dasharray="5,2" d="M184.436,-614C184.436,-614 144.82,-614 144.82,-614 138.82,-614 132.82,-608 132.82,-602 132.82,-602 132.82,-590 132.82,-590 132.82,-584 138.82,-578 144.82,-578 144.82,-578 184.436,-578 184.436,-578 190.436,-578 196.436,-584 196.436,-590 196.436,-590 196.436,-602 196.436,-602 196.436,-608 190.436,-614 184.436,-614"/>
<text text-anchor="middle" x="164.628" y="-593" font-family="sans" font-size="10.00">refgenome</text>
</g>
<!-- 18&#45;&gt;15 -->
<g id="edge22" class="edge"><title>18&#45;&gt;15</title>
<path fill="none" stroke="grey" stroke-width="2" d="M182.673,-577.697C191.69,-569.05 202.746,-558.449 212.571,-549.027"/>
<polygon fill="grey" stroke="grey" stroke-width="2" points="214.995,-551.552 219.791,-542.104 210.15,-546.499 214.995,-551.552"/>
</g>
<!-- 19 -->
<g id="node20" class="node"><title>19</title>
<path fill="none" stroke="#d88556" stroke-width="2" stroke-dasharray="5,2" d="M100.628,-974C100.628,-974 70.6279,-974 70.6279,-974 64.6279,-974 58.6279,-968 58.6279,-962 58.6279,-962 58.6279,-950 58.6279,-950 58.6279,-944 64.6279,-938 70.6279,-938 70.6279,-938 100.628,-938 100.628,-938 106.628,-938 112.628,-944 112.628,-950 112.628,-950 112.628,-962 112.628,-962 112.628,-968 106.628,-974 100.628,-974"/>
<text text-anchor="middle" x="85.6279" y="-953" font-family="sans" font-size="10.00">clumpify</text>
</g>
<!-- 19&#45;&gt;17 -->
<g id="edge24" class="edge"><title>19&#45;&gt;17</title>
<path fill="none" stroke="grey" stroke-width="2" d="M85.6279,-937.697C85.6279,-929.983 85.6279,-920.712 85.6279,-912.112"/>
<polygon fill="grey" stroke="grey" stroke-width="2" points="89.128,-912.104 85.6279,-902.104 82.128,-912.104 89.128,-912.104"/>
</g>
<!-- 20 -->
<g id="node21" class="node"><title>20</title>
<path fill="none" stroke="#d89c56" stroke-width="2" stroke-dasharray="5,2" d="M142.984,-686C142.984,-686 112.272,-686 112.272,-686 106.272,-686 100.272,-680 100.272,-674 100.272,-674 100.272,-662 100.272,-662 100.272,-656 106.272,-650 112.272,-650 112.272,-650 142.984,-650 142.984,-650 148.984,-650 154.984,-656 154.984,-662 154.984,-662 154.984,-674 154.984,-674 154.984,-680 148.984,-686 142.984,-686"/>
<text text-anchor="middle" x="127.628" y="-665" font-family="sans" font-size="10.00">maphost</text>
</g>
<!-- 20&#45;&gt;18 -->
<g id="edge25" class="edge"><title>20&#45;&gt;18</title>
<path fill="none" stroke="grey" stroke-width="2" d="M136.774,-649.697C141.031,-641.644 146.184,-631.894 150.894,-622.982"/>
<polygon fill="grey" stroke="grey" stroke-width="2" points="154.008,-624.581 155.587,-614.104 147.82,-621.31 154.008,-624.581"/>
</g>
<!-- 21 -->
<g id="node22" class="node"><title>21</title>
<path fill="none" stroke="#56d8a2" stroke-width="2" stroke-dasharray="5,2" d="M103.544,-1048C103.544,-1048 67.7119,-1048 67.7119,-1048 61.7119,-1048 55.7119,-1042 55.7119,-1036 55.7119,-1036 55.7119,-1022 55.7119,-1022 55.7119,-1016 61.7119,-1010 67.7119,-1010 67.7119,-1010 103.544,-1010 103.544,-1010 109.544,-1010 115.544,-1016 115.544,-1022 115.544,-1022 115.544,-1036 115.544,-1036 115.544,-1042 109.544,-1048 103.544,-1048"/>
<text text-anchor="middle" x="85.6279" y="-1036" font-family="sans" font-size="10.00">reformat</text>
<text text-anchor="middle" x="85.6279" y="-1026" font-family="sans" font-size="10.00">run: A1</text>
<text text-anchor="middle" x="85.6279" y="-1016" font-family="sans" font-size="10.00">sample: A</text>
</g>
<!-- 21&#45;&gt;19 -->
<g id="edge26" class="edge"><title>21&#45;&gt;19</title>
<path fill="none" stroke="grey" stroke-width="2" d="M85.6279,-1009.72C85.6279,-1001.97 85.6279,-992.789 85.6279,-984.274"/>
<polygon fill="grey" stroke="grey" stroke-width="2" points="89.128,-984.003 85.6279,-974.003 82.128,-984.003 89.128,-984.003"/>
</g>
<!-- 22&#45;&gt;20 -->
<g id="edge27" class="edge"><title>22&#45;&gt;20</title>
<path fill="none" stroke="grey" stroke-width="2" d="M120.853,-721.697C121.844,-713.983 123.036,-704.712 124.142,-696.112"/>
<polygon fill="grey" stroke="grey" stroke-width="2" points="127.625,-696.469 125.429,-686.104 120.682,-695.576 127.625,-696.469"/>
</g>
</g>
</svg>
