<?xml version="1.0" encoding="UTF-8" standalone="no"?>
<!DOCTYPE svg PUBLIC "-//W3C//DTD SVG 1.1//EN"
 "http://www.w3.org/Graphics/SVG/1.1/DTD/svg11.dtd">
<!-- Generated by graphviz version 2.42.3 (20191010.1750)
 -->
<!-- Title: snakemake_dag Pages: 1 -->
<svg width="362pt" height="1057pt"
 viewBox="0.00 0.00 362.00 1057.00" xmlns="http://www.w3.org/2000/svg" xmlns:xlink="http://www.w3.org/1999/xlink">
<g id="graph0" class="graph" transform="scale(1 1) rotate(0) translate(4 1053)">
<title>snakemake_dag</title>
<polygon fill="white" stroke="transparent" points="-4,4 -4,-1053 358,-1053 358,4 -4,4"/>
<!-- 0 -->
<g id="node1" class="node">
<title>0</title>
<path fill="none" stroke="#d86e56" stroke-width="2" stroke-dasharray="5,2" d="M173,-36C173,-36 143,-36 143,-36 137,-36 131,-30 131,-24 131,-24 131,-12 131,-12 131,-6 137,0 143,0 143,0 173,0 173,0 179,0 185,-6 185,-12 185,-12 185,-24 185,-24 185,-30 179,-36 173,-36"/>
<text text-anchor="middle" x="158" y="-15.5" font-family="sans" font-size="10.00">all</text>
</g>
<!-- 1 -->
<g id="node2" class="node">
<title>1</title>
<path fill="none" stroke="#566bd8" stroke-width="2" stroke-dasharray="5,2" d="M154,-108C154,-108 88,-108 88,-108 82,-108 76,-102 76,-96 76,-96 76,-84 76,-84 76,-78 82,-72 88,-72 88,-72 154,-72 154,-72 160,-72 166,-78 166,-84 166,-84 166,-96 166,-96 166,-102 160,-108 154,-108"/>
<text text-anchor="middle" x="121" y="-87.5" font-family="sans" font-size="10.00">merge_renamed</text>
</g>
<!-- 1&#45;&gt;0 -->
<g id="edge1" class="edge">
<title>1&#45;&gt;0</title>
<path fill="none" stroke="grey" stroke-width="2" d="M130.15,-71.7C134.4,-63.64 139.56,-53.89 144.27,-44.98"/>
<polygon fill="grey" stroke="grey" stroke-width="2" points="147.38,-46.58 148.96,-36.1 141.19,-43.31 147.38,-46.58"/>
</g>
<!-- 2 -->
<g id="node3" class="node">
<title>2</title>
<path fill="none" stroke="#56d8d0" stroke-width="2" stroke-dasharray="5,2" d="M123,-180C123,-180 93,-180 93,-180 87,-180 81,-174 81,-168 81,-168 81,-156 81,-156 81,-150 87,-144 93,-144 93,-144 123,-144 123,-144 129,-144 135,-150 135,-156 135,-156 135,-168 135,-168 135,-174 129,-180 123,-180"/>
<text text-anchor="middle" x="108" y="-159.5" font-family="sans" font-size="10.00">rename</text>
</g>
<!-- 2&#45;&gt;1 -->
<g id="edge5" class="edge">
<title>2&#45;&gt;1</title>
<path fill="none" stroke="grey" stroke-width="2" d="M111.21,-143.7C112.65,-135.98 114.37,-126.71 115.96,-118.11"/>
<polygon fill="grey" stroke="grey" stroke-width="2" points="119.44,-118.58 117.82,-108.1 112.56,-117.3 119.44,-118.58"/>
</g>
<!-- 3 -->
<g id="node4" class="node">
<title>3</title>
<path fill="none" stroke="#d6d856" stroke-width="2" stroke-dasharray="5,2" d="M146,-252C146,-252 64,-252 64,-252 58,-252 52,-246 52,-240 52,-240 52,-228 52,-228 52,-222 58,-216 64,-216 64,-216 146,-216 146,-216 152,-216 158,-222 158,-228 158,-228 158,-240 158,-240 158,-246 152,-252 146,-252"/>
<text text-anchor="middle" x="105" y="-231.5" font-family="sans" font-size="10.00">genome_consensus</text>
</g>
<!-- 3&#45;&gt;2 -->
<g id="edge6" class="edge">
<title>3&#45;&gt;2</title>
<path fill="none" stroke="grey" stroke-width="2" d="M105.74,-215.7C106.07,-207.98 106.47,-198.71 106.84,-190.11"/>
<polygon fill="grey" stroke="grey" stroke-width="2" points="110.34,-190.25 107.27,-180.1 103.34,-189.95 110.34,-190.25"/>
</g>
<!-- 4 -->
<g id="node5" class="node">
<title>4</title>
<path fill="none" stroke="#bed856" stroke-width="2" stroke-dasharray="5,2" d="M166,-468C166,-468 100,-468 100,-468 94,-468 88,-462 88,-456 88,-456 88,-444 88,-444 88,-438 94,-432 100,-432 100,-432 166,-432 166,-432 172,-432 178,-438 178,-444 178,-444 178,-456 178,-456 178,-462 172,-468 166,-468"/>
<text text-anchor="middle" x="133" y="-447.5" font-family="sans" font-size="10.00">samtools_merge</text>
</g>
<!-- 4&#45;&gt;3 -->
<g id="edge7" class="edge">
<title>4&#45;&gt;3</title>
<path fill="none" stroke="grey" stroke-width="2" d="M118.04,-431.55C110.46,-421.74 101.87,-408.91 97,-396 80.01,-350.93 80.55,-335.59 88,-288 89.36,-279.31 91.9,-270.1 94.61,-261.84"/>
<polygon fill="grey" stroke="grey" stroke-width="2" points="97.94,-262.93 97.93,-252.33 91.33,-260.62 97.94,-262.93"/>
</g>
<!-- 14 -->
<g id="node15" class="node">
<title>14</title>
<path fill="none" stroke="#56b1d8" stroke-width="2" stroke-dasharray="5,2" d="M148,-396C148,-396 118,-396 118,-396 112,-396 106,-390 106,-384 106,-384 106,-372 106,-372 106,-366 112,-360 118,-360 118,-360 148,-360 148,-360 154,-360 160,-366 160,-372 160,-372 160,-384 160,-384 160,-390 154,-396 148,-396"/>
<text text-anchor="middle" x="133" y="-375.5" font-family="sans" font-size="10.00">lofreq</text>
</g>
<!-- 4&#45;&gt;14 -->
<g id="edge18" class="edge">
<title>4&#45;&gt;14</title>
<path fill="none" stroke="grey" stroke-width="2" d="M133,-431.7C133,-423.98 133,-414.71 133,-406.11"/>
<polygon fill="grey" stroke="grey" stroke-width="2" points="136.5,-406.1 133,-396.1 129.5,-406.1 136.5,-406.1"/>
</g>
<!-- 21 -->
<g id="node22" class="node">
<title>21</title>
<path fill="none" stroke="#61d856" stroke-width="2" stroke-dasharray="5,2" d="M240.5,-396C240.5,-396 207.5,-396 207.5,-396 201.5,-396 195.5,-390 195.5,-384 195.5,-384 195.5,-372 195.5,-372 195.5,-366 201.5,-360 207.5,-360 207.5,-360 240.5,-360 240.5,-360 246.5,-360 252.5,-366 252.5,-372 252.5,-372 252.5,-384 252.5,-384 252.5,-390 246.5,-396 240.5,-396"/>
<text text-anchor="middle" x="224" y="-375.5" font-family="sans" font-size="10.00">bamstats</text>
</g>
<!-- 4&#45;&gt;21 -->
<g id="edge28" class="edge">
<title>4&#45;&gt;21</title>
<path fill="none" stroke="grey" stroke-width="2" d="M155.49,-431.7C166.96,-422.88 181.06,-412.03 193.48,-402.47"/>
<polygon fill="grey" stroke="grey" stroke-width="2" points="195.97,-404.98 201.76,-396.1 191.7,-399.43 195.97,-404.98"/>
</g>
<!-- 22 -->
<g id="node23" class="node">
<title>22</title>
<path fill="none" stroke="#a7d856" stroke-width="2" stroke-dasharray="5,2" d="M42,-108C42,-108 12,-108 12,-108 6,-108 0,-102 0,-96 0,-96 0,-84 0,-84 0,-78 6,-72 12,-72 12,-72 42,-72 42,-72 48,-72 54,-78 54,-84 54,-84 54,-96 54,-96 54,-102 48,-108 42,-108"/>
<text text-anchor="middle" x="27" y="-87.5" font-family="sans" font-size="10.00">pileup</text>
</g>
<!-- 4&#45;&gt;22 -->
<g id="edge29" class="edge">
<title>4&#45;&gt;22</title>
<path fill="none" stroke="grey" stroke-width="2" d="M107.44,-431.89C75.23,-408.04 24,-361.54 24,-307 24,-307 24,-307 24,-233 24,-192.99 25.21,-146.65 26.09,-118.08"/>
<polygon fill="grey" stroke="grey" stroke-width="2" points="29.59,-118.15 26.41,-108.05 22.59,-117.93 29.59,-118.15"/>
</g>
<!-- 5 -->
<g id="node6" class="node">
<title>5</title>
<path fill="none" stroke="#d85656" stroke-width="2" stroke-dasharray="5,2" d="M190.5,-540C190.5,-540 129.5,-540 129.5,-540 123.5,-540 117.5,-534 117.5,-528 117.5,-528 117.5,-516 117.5,-516 117.5,-510 123.5,-504 129.5,-504 129.5,-504 190.5,-504 190.5,-504 196.5,-504 202.5,-510 202.5,-516 202.5,-516 202.5,-528 202.5,-528 202.5,-534 196.5,-540 190.5,-540"/>
<text text-anchor="middle" x="160" y="-519.5" font-family="sans" font-size="10.00">sort_and_index</text>
</g>
<!-- 5&#45;&gt;4 -->
<g id="edge9" class="edge">
<title>5&#45;&gt;4</title>
<path fill="none" stroke="grey" stroke-width="2" d="M153.33,-503.7C150.29,-495.81 146.62,-486.3 143.24,-477.55"/>
<polygon fill="grey" stroke="grey" stroke-width="2" points="146.46,-476.17 139.6,-468.1 139.93,-478.69 146.46,-476.17"/>
</g>
<!-- 6 -->
<g id="node7" class="node">
<title>6</title>
<path fill="none" stroke="#56d8a2" stroke-width="2" stroke-dasharray="5,2" d="M190,-612C190,-612 150,-612 150,-612 144,-612 138,-606 138,-600 138,-600 138,-588 138,-588 138,-582 144,-576 150,-576 150,-576 190,-576 190,-576 196,-576 202,-582 202,-588 202,-588 202,-600 202,-600 202,-606 196,-612 190,-612"/>
<text text-anchor="middle" x="170" y="-591.5" font-family="sans" font-size="10.00">refgenome</text>
</g>
<!-- 6&#45;&gt;5 -->
<g id="edge10" class="edge">
<title>6&#45;&gt;5</title>
<path fill="none" stroke="grey" stroke-width="2" d="M167.53,-575.7C166.43,-567.98 165.1,-558.71 163.87,-550.11"/>
<polygon fill="grey" stroke="grey" stroke-width="2" points="167.32,-549.51 162.44,-540.1 160.39,-550.5 167.32,-549.51"/>
</g>
<!-- 7 -->
<g id="node8" class="node">
<title>7</title>
<path fill="none" stroke="#569ad8" stroke-width="2" stroke-dasharray="5,2" d="M190.5,-684C190.5,-684 159.5,-684 159.5,-684 153.5,-684 147.5,-678 147.5,-672 147.5,-672 147.5,-660 147.5,-660 147.5,-654 153.5,-648 159.5,-648 159.5,-648 190.5,-648 190.5,-648 196.5,-648 202.5,-654 202.5,-660 202.5,-660 202.5,-672 202.5,-672 202.5,-678 196.5,-684 190.5,-684"/>
<text text-anchor="middle" x="175" y="-663.5" font-family="sans" font-size="10.00">maphost</text>
</g>
<!-- 7&#45;&gt;6 -->
<g id="edge11" class="edge">
<title>7&#45;&gt;6</title>
<path fill="none" stroke="grey" stroke-width="2" d="M173.76,-647.7C173.21,-639.98 172.55,-630.71 171.94,-622.11"/>
<polygon fill="grey" stroke="grey" stroke-width="2" points="175.43,-621.83 171.22,-612.1 168.44,-622.33 175.43,-621.83"/>
</g>
<!-- 8 -->
<g id="node9" class="node">
<title>8</title>
<path fill="none" stroke="#78d856" stroke-width="2" stroke-dasharray="5,2" d="M207,-756C207,-756 171,-756 171,-756 165,-756 159,-750 159,-744 159,-744 159,-732 159,-732 159,-726 165,-720 171,-720 171,-720 207,-720 207,-720 213,-720 219,-726 219,-732 219,-732 219,-744 219,-744 219,-750 213,-756 207,-756"/>
<text text-anchor="middle" x="189" y="-735.5" font-family="sans" font-size="10.00">maprRNA</text>
</g>
<!-- 8&#45;&gt;7 -->
<g id="edge12" class="edge">
<title>8&#45;&gt;7</title>
<path fill="none" stroke="grey" stroke-width="2" d="M185.54,-719.7C184,-711.98 182.14,-702.71 180.42,-694.11"/>
<polygon fill="grey" stroke="grey" stroke-width="2" points="183.81,-693.22 178.42,-684.1 176.95,-694.6 183.81,-693.22"/>
</g>
<!-- 9 -->
<g id="node10" class="node">
<title>9</title>
<path fill="none" stroke="#d8b456" stroke-width="2" stroke-dasharray="5,2" d="M270,-828C270,-828 240,-828 240,-828 234,-828 228,-822 228,-816 228,-816 228,-804 228,-804 228,-798 234,-792 240,-792 240,-792 270,-792 270,-792 276,-792 282,-798 282,-804 282,-804 282,-816 282,-816 282,-822 276,-828 270,-828"/>
<text text-anchor="middle" x="255" y="-807.5" font-family="sans" font-size="10.00">filter</text>
</g>
<!-- 9&#45;&gt;8 -->
<g id="edge13" class="edge">
<title>9&#45;&gt;8</title>
<path fill="none" stroke="grey" stroke-width="2" d="M238.69,-791.7C230.69,-783.22 220.93,-772.86 212.18,-763.58"/>
<polygon fill="grey" stroke="grey" stroke-width="2" points="214.53,-760.98 205.13,-756.1 209.44,-765.78 214.53,-760.98"/>
</g>
<!-- 19 -->
<g id="node20" class="node">
<title>19</title>
<path fill="none" stroke="#d89c56" stroke-width="2" stroke-dasharray="5,2" d="M286,-684C286,-684 236,-684 236,-684 230,-684 224,-678 224,-672 224,-672 224,-660 224,-660 224,-654 230,-648 236,-648 236,-648 286,-648 286,-648 292,-648 298,-654 298,-660 298,-660 298,-672 298,-672 298,-678 292,-684 286,-684"/>
<text text-anchor="middle" x="261" y="-663.5" font-family="sans" font-size="10.00">fastq_screen</text>
</g>
<!-- 9&#45;&gt;19 -->
<g id="edge26" class="edge">
<title>9&#45;&gt;19</title>
<path fill="none" stroke="grey" stroke-width="2" d="M255.72,-791.87C256.75,-767.67 258.62,-723.21 259.84,-694.39"/>
<polygon fill="grey" stroke="grey" stroke-width="2" points="263.35,-694.33 260.27,-684.19 256.35,-694.03 263.35,-694.33"/>
</g>
<!-- 10 -->
<g id="node11" class="node">
<title>10</title>
<path fill="none" stroke="#d8c356" stroke-width="2" stroke-dasharray="5,2" d="M270,-900C270,-900 240,-900 240,-900 234,-900 228,-894 228,-888 228,-888 228,-876 228,-876 228,-870 234,-864 240,-864 240,-864 270,-864 270,-864 276,-864 282,-870 282,-876 282,-876 282,-888 282,-888 282,-894 276,-900 270,-900"/>
<text text-anchor="middle" x="255" y="-879.5" font-family="sans" font-size="10.00">trim</text>
</g>
<!-- 10&#45;&gt;9 -->
<g id="edge14" class="edge">
<title>10&#45;&gt;9</title>
<path fill="none" stroke="grey" stroke-width="2" d="M255,-863.7C255,-855.98 255,-846.71 255,-838.11"/>
<polygon fill="grey" stroke="grey" stroke-width="2" points="258.5,-838.1 255,-828.1 251.5,-838.1 258.5,-838.1"/>
</g>
<!-- 11 -->
<g id="node12" class="node">
<title>11</title>
<path fill="none" stroke="#56d863" stroke-width="2" stroke-dasharray="5,2" d="M278,-972C278,-972 248,-972 248,-972 242,-972 236,-966 236,-960 236,-960 236,-948 236,-948 236,-942 242,-936 248,-936 248,-936 278,-936 278,-936 284,-936 290,-942 290,-948 290,-948 290,-960 290,-960 290,-966 284,-972 278,-972"/>
<text text-anchor="middle" x="263" y="-951.5" font-family="sans" font-size="10.00">clumpify</text>
</g>
<!-- 11&#45;&gt;10 -->
<g id="edge15" class="edge">
<title>11&#45;&gt;10</title>
<path fill="none" stroke="grey" stroke-width="2" d="M261.02,-935.7C260.14,-927.98 259.08,-918.71 258.1,-910.11"/>
<polygon fill="grey" stroke="grey" stroke-width="2" points="261.57,-909.64 256.95,-900.1 254.61,-910.44 261.57,-909.64"/>
</g>
<!-- 12 -->
<g id="node13" class="node">
<title>12</title>
<path fill="none" stroke="#d88556" stroke-width="2" stroke-dasharray="5,2" d="M308.5,-1049C308.5,-1049 271.5,-1049 271.5,-1049 265.5,-1049 259.5,-1043 259.5,-1037 259.5,-1037 259.5,-1020 259.5,-1020 259.5,-1014 265.5,-1008 271.5,-1008 271.5,-1008 308.5,-1008 308.5,-1008 314.5,-1008 320.5,-1014 320.5,-1020 320.5,-1020 320.5,-1037 320.5,-1037 320.5,-1043 314.5,-1049 308.5,-1049"/>
<text text-anchor="middle" x="290" y="-1037" font-family="sans" font-size="10.00">reformat</text>
<text text-anchor="middle" x="290" y="-1026" font-family="sans" font-size="10.00">run: A1</text>
<text text-anchor="middle" x="290" y="-1015" font-family="sans" font-size="10.00">sample: A</text>
</g>
<!-- 12&#45;&gt;11 -->
<g id="edge16" class="edge">
<title>12&#45;&gt;11</title>
<path fill="none" stroke="grey" stroke-width="2" d="M282.62,-1007.69C279.66,-999.73 276.2,-990.44 273.01,-981.89"/>
<polygon fill="grey" stroke="grey" stroke-width="2" points="276.22,-980.47 269.45,-972.32 269.66,-982.91 276.22,-980.47"/>
</g>
<!-- 20 -->
<g id="node21" class="node">
<title>20</title>
<path fill="none" stroke="#56d8b9" stroke-width="2" stroke-dasharray="5,2" d="M342,-900C342,-900 312,-900 312,-900 306,-900 300,-894 300,-888 300,-888 300,-876 300,-876 300,-870 306,-864 312,-864 312,-864 342,-864 342,-864 348,-864 354,-870 354,-876 354,-876 354,-888 354,-888 354,-894 348,-900 342,-900"/>
<text text-anchor="middle" x="327" y="-879.5" font-family="sans" font-size="10.00">fastqc</text>
</g>
<!-- 12&#45;&gt;20 -->
<g id="edge27" class="edge">
<title>12&#45;&gt;20</title>
<path fill="none" stroke="grey" stroke-width="2" d="M295.07,-1007.71C301.55,-982.38 312.82,-938.37 320.09,-909.98"/>
<polygon fill="grey" stroke="grey" stroke-width="2" points="323.48,-910.85 322.57,-900.3 316.7,-909.11 323.48,-910.85"/>
</g>
<!-- 13 -->
<g id="node14" class="node">
<title>13</title>
<path fill="none" stroke="#56d892" stroke-width="2" stroke-dasharray="5,2" d="M139,-324C139,-324 109,-324 109,-324 103,-324 97,-318 97,-312 97,-312 97,-300 97,-300 97,-294 103,-288 109,-288 109,-288 139,-288 139,-288 145,-288 151,-294 151,-300 151,-300 151,-312 151,-312 151,-318 145,-324 139,-324"/>
<text text-anchor="middle" x="124" y="-303.5" font-family="sans" font-size="10.00">vcffilter</text>
</g>
<!-- 13&#45;&gt;3 -->
<g id="edge8" class="edge">
<title>13&#45;&gt;3</title>
<path fill="none" stroke="grey" stroke-width="2" d="M119.3,-287.7C117.19,-279.9 114.64,-270.51 112.28,-261.83"/>
<polygon fill="grey" stroke="grey" stroke-width="2" points="115.64,-260.84 109.64,-252.1 108.88,-262.67 115.64,-260.84"/>
</g>
<!-- 14&#45;&gt;13 -->
<g id="edge17" class="edge">
<title>14&#45;&gt;13</title>
<path fill="none" stroke="grey" stroke-width="2" d="M130.78,-359.7C129.78,-351.98 128.59,-342.71 127.49,-334.11"/>
<polygon fill="grey" stroke="grey" stroke-width="2" points="130.95,-333.58 126.2,-324.1 124,-334.47 130.95,-333.58"/>
</g>
<!-- 17 -->
<g id="node18" class="node">
<title>17</title>
<path fill="none" stroke="#8fd856" stroke-width="2" stroke-dasharray="5,2" d="M211,-324C211,-324 181,-324 181,-324 175,-324 169,-318 169,-312 169,-312 169,-300 169,-300 169,-294 175,-288 181,-288 181,-288 211,-288 211,-288 217,-288 223,-294 223,-300 223,-300 223,-312 223,-312 223,-318 217,-324 211,-324"/>
<text text-anchor="middle" x="196" y="-303.5" font-family="sans" font-size="10.00">snpeff</text>
</g>
<!-- 14&#45;&gt;17 -->
<g id="edge21" class="edge">
<title>14&#45;&gt;17</title>
<path fill="none" stroke="grey" stroke-width="2" d="M148.57,-359.7C156.2,-351.22 165.52,-340.86 173.88,-331.58"/>
<polygon fill="grey" stroke="grey" stroke-width="2" points="176.52,-333.88 180.61,-324.1 171.31,-329.2 176.52,-333.88"/>
</g>
<!-- 15 -->
<g id="node16" class="node">
<title>15</title>
<path fill="none" stroke="#56c9d8" stroke-width="2" stroke-dasharray="5,2" d="M225.5,-180C225.5,-180 172.5,-180 172.5,-180 166.5,-180 160.5,-174 160.5,-168 160.5,-168 160.5,-156 160.5,-156 160.5,-150 166.5,-144 172.5,-144 172.5,-144 225.5,-144 225.5,-144 231.5,-144 237.5,-150 237.5,-156 237.5,-156 237.5,-168 237.5,-168 237.5,-174 231.5,-180 225.5,-180"/>
<text text-anchor="middle" x="199" y="-159.5" font-family="sans" font-size="10.00">merge_tables</text>
</g>
<!-- 15&#45;&gt;0 -->
<g id="edge2" class="edge">
<title>15&#45;&gt;0</title>
<path fill="none" stroke="grey" stroke-width="2" d="M194.64,-143.87C190,-125.9 182.34,-96.87 175,-72 172.47,-63.43 169.55,-54.15 166.86,-45.77"/>
<polygon fill="grey" stroke="grey" stroke-width="2" points="170.14,-44.55 163.72,-36.12 163.48,-46.71 170.14,-44.55"/>
</g>
<!-- 16 -->
<g id="node17" class="node">
<title>16</title>
<path fill="none" stroke="#5682d8" stroke-width="2" stroke-dasharray="5,2" d="M218,-252C218,-252 188,-252 188,-252 182,-252 176,-246 176,-240 176,-240 176,-228 176,-228 176,-222 182,-216 188,-216 188,-216 218,-216 218,-216 224,-216 230,-222 230,-228 230,-228 230,-240 230,-240 230,-246 224,-252 218,-252"/>
<text text-anchor="middle" x="203" y="-231.5" font-family="sans" font-size="10.00">snpsift</text>
</g>
<!-- 16&#45;&gt;15 -->
<g id="edge19" class="edge">
<title>16&#45;&gt;15</title>
<path fill="none" stroke="grey" stroke-width="2" d="M202.01,-215.7C201.57,-207.98 201.04,-198.71 200.55,-190.11"/>
<polygon fill="grey" stroke="grey" stroke-width="2" points="204.04,-189.89 199.98,-180.1 197.05,-190.29 204.04,-189.89"/>
</g>
<!-- 17&#45;&gt;16 -->
<g id="edge20" class="edge">
<title>17&#45;&gt;16</title>
<path fill="none" stroke="grey" stroke-width="2" d="M197.73,-287.7C198.5,-279.98 199.43,-270.71 200.29,-262.11"/>
<polygon fill="grey" stroke="grey" stroke-width="2" points="203.78,-262.4 201.29,-252.1 196.81,-261.71 203.78,-262.4"/>
</g>
<!-- 18 -->
<g id="node19" class="node">
<title>18</title>
<path fill="none" stroke="#56d87b" stroke-width="2" stroke-dasharray="5,2" d="M290,-252C290,-252 260,-252 260,-252 254,-252 248,-246 248,-240 248,-240 248,-228 248,-228 248,-222 254,-216 260,-216 260,-216 290,-216 290,-216 296,-216 302,-222 302,-228 302,-228 302,-240 302,-240 302,-246 296,-252 290,-252"/>
<text text-anchor="middle" x="275" y="-231.5" font-family="sans" font-size="10.00">multiqc</text>
</g>
<!-- 17&#45;&gt;18 -->
<g id="edge24" class="edge">
<title>17&#45;&gt;18</title>
<path fill="none" stroke="grey" stroke-width="2" d="M215.53,-287.7C225.38,-278.97 237.49,-268.24 248.2,-258.75"/>
<polygon fill="grey" stroke="grey" stroke-width="2" points="250.53,-261.36 255.7,-252.1 245.89,-256.12 250.53,-261.36"/>
</g>
<!-- 18&#45;&gt;0 -->
<g id="edge3" class="edge">
<title>18&#45;&gt;0</title>
<path fill="none" stroke="grey" stroke-width="2" d="M271.34,-215.99C267,-197.62 258.84,-167.78 247,-144 228.42,-106.66 199.28,-68.25 179.45,-44.04"/>
<polygon fill="grey" stroke="grey" stroke-width="2" points="181.93,-41.55 172.85,-36.09 176.55,-46.02 181.93,-41.55"/>
</g>
<!-- 19&#45;&gt;18 -->
<g id="edge22" class="edge">
<title>19&#45;&gt;18</title>
<path fill="none" stroke="grey" stroke-width="2" d="M266.67,-647.73C274.85,-621.21 289,-568.73 289,-523 289,-523 289,-523 289,-377 289,-337.02 283.44,-291.02 279.32,-262.47"/>
<polygon fill="grey" stroke="grey" stroke-width="2" points="282.76,-261.81 277.83,-252.43 275.84,-262.84 282.76,-261.81"/>
</g>
<!-- 20&#45;&gt;18 -->
<g id="edge23" class="edge">
<title>20&#45;&gt;18</title>
<path fill="none" stroke="grey" stroke-width="2" d="M327,-863.95C327,-837.29 327,-784.11 327,-739 327,-739 327,-739 327,-377 327,-334.49 306.2,-288.95 290.91,-261.22"/>
<polygon fill="grey" stroke="grey" stroke-width="2" points="293.76,-259.15 285.77,-252.19 287.67,-262.61 293.76,-259.15"/>
</g>
<!-- 21&#45;&gt;18 -->
<g id="edge25" class="edge">
<title>21&#45;&gt;18</title>
<path fill="none" stroke="grey" stroke-width="2" d="M230.15,-359.87C238.92,-335.46 255.09,-290.43 265.43,-261.64"/>
<polygon fill="grey" stroke="grey" stroke-width="2" points="268.74,-262.78 268.83,-252.19 262.15,-260.42 268.74,-262.78"/>
</g>
<!-- 22&#45;&gt;0 -->
<g id="edge4" class="edge">
<title>22&#45;&gt;0</title>
<path fill="none" stroke="grey" stroke-width="2" d="M54.14,-74.5C73.82,-63.98 100.62,-49.66 122.06,-38.2"/>
<polygon fill="grey" stroke="grey" stroke-width="2" points="123.72,-41.29 130.89,-33.49 120.42,-35.11 123.72,-41.29"/>
</g>
</g>
</svg>
