<?xml version="1.0" encoding="UTF-8" standalone="no"?>
<!DOCTYPE svg PUBLIC "-//W3C//DTD SVG 1.1//EN"
 "http://www.w3.org/Graphics/SVG/1.1/DTD/svg11.dtd">
<!-- Generated by graphviz version 2.42.3 (20191010.1750)
 -->
<!-- Title: snakemake_dag Pages: 1 -->
<svg width="562pt" height="482pt"
 viewBox="0.00 0.00 561.65 482.00" xmlns="http://www.w3.org/2000/svg" xmlns:xlink="http://www.w3.org/1999/xlink">
<g id="graph0" class="graph" transform="scale(1 1) rotate(0) translate(4 478)">
<title>snakemake_dag</title>
<polygon fill="white" stroke="transparent" points="-4,4 -4,-478 557.65,-478 557.65,4 -4,4"/>
<!-- 0 -->
<g id="node1" class="node">
<title>0</title>
<path fill="none" stroke="#61d856" stroke-width="2" stroke-dasharray="5,2" d="M263.69,-36C263.69,-36 233.69,-36 233.69,-36 227.69,-36 221.69,-30 221.69,-24 221.69,-24 221.69,-12 221.69,-12 221.69,-6 227.69,0 233.69,0 233.69,0 263.69,0 263.69,0 269.69,0 275.69,-6 275.69,-12 275.69,-12 275.69,-24 275.69,-24 275.69,-30 269.69,-36 263.69,-36"/>
<text text-anchor="middle" x="248.69" y="-15" font-family="sans" font-size="10.00">all</text>
</g>
<!-- 1 -->
<g id="node2" class="node">
<title>1</title>
<path fill="none" stroke="#56b1d8" stroke-width="2" stroke-dasharray="5,2" d="M77.56,-108C77.56,-108 11.81,-108 11.81,-108 5.81,-108 -0.19,-102 -0.19,-96 -0.19,-96 -0.19,-84 -0.19,-84 -0.19,-78 5.81,-72 11.81,-72 11.81,-72 77.56,-72 77.56,-72 83.56,-72 89.56,-78 89.56,-84 89.56,-84 89.56,-96 89.56,-96 89.56,-102 83.56,-108 77.56,-108"/>
<text text-anchor="middle" x="44.69" y="-87" font-family="sans" font-size="10.00">merge_renamed</text>
</g>
<!-- 1&#45;&gt;0 -->
<g id="edge1" class="edge">
<title>1&#45;&gt;0</title>
<path fill="none" stroke="grey" stroke-width="2" d="M89.46,-73.64C126.18,-61.04 177.53,-43.42 211.89,-31.63"/>
<polygon fill="grey" stroke="grey" stroke-width="2" points="213.22,-34.87 221.54,-28.32 210.94,-28.25 213.22,-34.87"/>
</g>
<!-- 2 -->
<g id="node3" class="node">
<title>2</title>
<path fill="none" stroke="#566bd8" stroke-width="2" stroke-dasharray="5,2" d="M340.78,-108C340.78,-108 288.6,-108 288.6,-108 282.6,-108 276.6,-102 276.6,-96 276.6,-96 276.6,-84 276.6,-84 276.6,-78 282.6,-72 288.6,-72 288.6,-72 340.78,-72 340.78,-72 346.78,-72 352.78,-78 352.78,-84 352.78,-84 352.78,-96 352.78,-96 352.78,-102 346.78,-108 340.78,-108"/>
<text text-anchor="middle" x="314.69" y="-87" font-family="sans" font-size="10.00">merge_tables</text>
</g>
<!-- 2&#45;&gt;0 -->
<g id="edge2" class="edge">
<title>2&#45;&gt;0</title>
<path fill="none" stroke="grey" stroke-width="2" d="M298.37,-71.7C290.38,-63.22 280.62,-52.86 271.86,-43.58"/>
<polygon fill="grey" stroke="grey" stroke-width="2" points="274.22,-40.98 264.81,-36.1 269.13,-45.78 274.22,-40.98"/>
</g>
<!-- 3 -->
<g id="node4" class="node">
<title>3</title>
<path fill="none" stroke="#8fd856" stroke-width="2" stroke-dasharray="5,2" d="M412.69,-108C412.69,-108 382.69,-108 382.69,-108 376.69,-108 370.69,-102 370.69,-96 370.69,-96 370.69,-84 370.69,-84 370.69,-78 376.69,-72 382.69,-72 382.69,-72 412.69,-72 412.69,-72 418.69,-72 424.69,-78 424.69,-84 424.69,-84 424.69,-96 424.69,-96 424.69,-102 418.69,-108 412.69,-108"/>
<text text-anchor="middle" x="397.69" y="-87" font-family="sans" font-size="10.00">multiqc</text>
</g>
<!-- 3&#45;&gt;0 -->
<g id="edge3" class="edge">
<title>3&#45;&gt;0</title>
<path fill="none" stroke="grey" stroke-width="2" d="M370.56,-76.18C367.57,-74.77 364.56,-73.35 361.69,-72 336.24,-60.02 307.55,-46.57 285.45,-36.21"/>
<polygon fill="grey" stroke="grey" stroke-width="2" points="286.64,-32.9 276.1,-31.83 283.67,-39.24 286.64,-32.9"/>
</g>
<!-- 4 -->
<g id="node5" class="node">
<title>4</title>
<path fill="none" stroke="#d8c356" stroke-width="2" stroke-dasharray="5,2" d="M204.69,-254C204.69,-254 174.69,-254 174.69,-254 168.69,-254 162.69,-248 162.69,-242 162.69,-242 162.69,-230 162.69,-230 162.69,-224 168.69,-218 174.69,-218 174.69,-218 204.69,-218 204.69,-218 210.69,-218 216.69,-224 216.69,-230 216.69,-230 216.69,-242 216.69,-242 216.69,-248 210.69,-254 204.69,-254"/>
<text text-anchor="middle" x="189.69" y="-233" font-family="sans" font-size="10.00">filter</text>
</g>
<!-- 4&#45;&gt;0 -->
<g id="edge4" class="edge">
<title>4&#45;&gt;0</title>
<path fill="none" stroke="grey" stroke-width="2" d="M192.73,-217.77C196.11,-199.37 201.98,-169.44 208.69,-144 217.72,-109.72 230.55,-70.95 239.22,-45.8"/>
<polygon fill="grey" stroke="grey" stroke-width="2" points="242.57,-46.82 242.55,-36.22 235.96,-44.52 242.57,-46.82"/>
</g>
<!-- 6 -->
<g id="node7" class="node">
<title>6</title>
<path fill="none" stroke="#5682d8" stroke-width="2" stroke-dasharray="5,2" d="M279.44,-181C279.44,-181 229.93,-181 229.93,-181 223.93,-181 217.93,-175 217.93,-169 217.93,-169 217.93,-157 217.93,-157 217.93,-151 223.93,-145 229.93,-145 229.93,-145 279.44,-145 279.44,-145 285.44,-145 291.44,-151 291.44,-157 291.44,-157 291.44,-169 291.44,-169 291.44,-175 285.44,-181 279.44,-181"/>
<text text-anchor="middle" x="254.69" y="-160" font-family="sans" font-size="10.00">fastq_screen</text>
</g>
<!-- 4&#45;&gt;6 -->
<g id="edge16" class="edge">
<title>4&#45;&gt;6</title>
<path fill="none" stroke="grey" stroke-width="2" d="M205.42,-217.81C213.49,-209 223.45,-198.13 232.3,-188.46"/>
<polygon fill="grey" stroke="grey" stroke-width="2" points="234.93,-190.77 239.1,-181.03 229.76,-186.04 234.93,-190.77"/>
</g>
<!-- 13 -->
<g id="node14" class="node">
<title>13</title>
<path fill="none" stroke="#d88556" stroke-width="2" stroke-dasharray="5,2" d="M149.58,-181C149.58,-181 113.79,-181 113.79,-181 107.79,-181 101.79,-175 101.79,-169 101.79,-169 101.79,-157 101.79,-157 101.79,-151 107.79,-145 113.79,-145 113.79,-145 149.58,-145 149.58,-145 155.58,-145 161.58,-151 161.58,-157 161.58,-157 161.58,-169 161.58,-169 161.58,-175 155.58,-181 149.58,-181"/>
<text text-anchor="middle" x="131.69" y="-160" font-family="sans" font-size="10.00">maprRNA</text>
</g>
<!-- 4&#45;&gt;13 -->
<g id="edge20" class="edge">
<title>4&#45;&gt;13</title>
<path fill="none" stroke="grey" stroke-width="2" d="M175.65,-217.81C168.59,-209.18 159.92,-198.56 152.14,-189.03"/>
<polygon fill="grey" stroke="grey" stroke-width="2" points="154.63,-186.56 145.6,-181.03 149.21,-190.99 154.63,-186.56"/>
</g>
<!-- 5 -->
<g id="node6" class="node">
<title>5</title>
<path fill="none" stroke="#d6d856" stroke-width="2" stroke-dasharray="5,2" d="M150.04,-108C150.04,-108 119.33,-108 119.33,-108 113.33,-108 107.33,-102 107.33,-96 107.33,-96 107.33,-84 107.33,-84 107.33,-78 113.33,-72 119.33,-72 119.33,-72 150.04,-72 150.04,-72 156.04,-72 162.04,-78 162.04,-84 162.04,-84 162.04,-96 162.04,-96 162.04,-102 156.04,-108 150.04,-108"/>
<text text-anchor="middle" x="134.69" y="-87" font-family="sans" font-size="10.00">maphost</text>
</g>
<!-- 5&#45;&gt;0 -->
<g id="edge5" class="edge">
<title>5&#45;&gt;0</title>
<path fill="none" stroke="grey" stroke-width="2" d="M161.99,-72.23C177.22,-62.88 196.37,-51.12 212.8,-41.04"/>
<polygon fill="grey" stroke="grey" stroke-width="2" points="214.91,-43.85 221.6,-35.63 211.25,-37.88 214.91,-43.85"/>
</g>
<!-- 6&#45;&gt;0 -->
<g id="edge6" class="edge">
<title>6&#45;&gt;0</title>
<path fill="none" stroke="grey" stroke-width="2" d="M253.96,-144.75C252.94,-120.38 251.06,-75.61 249.84,-46.59"/>
<polygon fill="grey" stroke="grey" stroke-width="2" points="253.33,-46.15 249.41,-36.31 246.34,-46.45 253.33,-46.15"/>
</g>
<!-- 6&#45;&gt;3 -->
<g id="edge10" class="edge">
<title>6&#45;&gt;3</title>
<path fill="none" stroke="grey" stroke-width="2" d="M288.94,-144.99C310.77,-134.15 339.04,-120.12 361.28,-109.08"/>
<polygon fill="grey" stroke="grey" stroke-width="2" points="363,-112.13 370.4,-104.55 359.89,-105.86 363,-112.13"/>
</g>
<!-- 7 -->
<g id="node8" class="node">
<title>7</title>
<path fill="none" stroke="#56d8a2" stroke-width="2" stroke-dasharray="5,2" d="M541.6,-182C541.6,-182 505.77,-182 505.77,-182 499.77,-182 493.77,-176 493.77,-170 493.77,-170 493.77,-156 493.77,-156 493.77,-150 499.77,-144 505.77,-144 505.77,-144 541.6,-144 541.6,-144 547.6,-144 553.6,-150 553.6,-156 553.6,-156 553.6,-170 553.6,-170 553.6,-176 547.6,-182 541.6,-182"/>
<text text-anchor="middle" x="523.69" y="-170" font-family="sans" font-size="10.00">fastqc</text>
<text text-anchor="middle" x="523.69" y="-160" font-family="sans" font-size="10.00">run: A1</text>
<text text-anchor="middle" x="523.69" y="-150" font-family="sans" font-size="10.00">sample: A</text>
</g>
<!-- 7&#45;&gt;0 -->
<g id="edge7" class="edge">
<title>7&#45;&gt;0</title>
<path fill="none" stroke="grey" stroke-width="2" d="M510.15,-143.72C494.1,-123.32 465.49,-90.73 433.69,-72 386.98,-44.49 325.17,-30.56 286.16,-24.05"/>
<polygon fill="grey" stroke="grey" stroke-width="2" points="286.21,-20.52 275.79,-22.41 285.12,-27.43 286.21,-20.52"/>
</g>
<!-- 7&#45;&gt;3 -->
<g id="edge11" class="edge">
<title>7&#45;&gt;3</title>
<path fill="none" stroke="grey" stroke-width="2" d="M493.51,-144.99C475.61,-134.91 452.82,-122.07 433.95,-111.43"/>
<polygon fill="grey" stroke="grey" stroke-width="2" points="435.47,-108.27 425.04,-106.41 432.04,-114.37 435.47,-108.27"/>
</g>
<!-- 8 -->
<g id="node9" class="node">
<title>8</title>
<path fill="none" stroke="#56c9d8" stroke-width="2" stroke-dasharray="5,2" d="M62.6,-181C62.6,-181 26.77,-181 26.77,-181 20.77,-181 14.77,-175 14.77,-169 14.77,-169 14.77,-157 14.77,-157 14.77,-151 20.77,-145 26.77,-145 26.77,-145 62.6,-145 62.6,-145 68.6,-145 74.6,-151 74.6,-157 74.6,-157 74.6,-169 74.6,-169 74.6,-175 68.6,-181 62.6,-181"/>
<text text-anchor="middle" x="44.69" y="-165" font-family="sans" font-size="10.00">rename</text>
<text text-anchor="middle" x="44.69" y="-155" font-family="sans" font-size="10.00">sample: A</text>
</g>
<!-- 8&#45;&gt;1 -->
<g id="edge8" class="edge">
<title>8&#45;&gt;1</title>
<path fill="none" stroke="grey" stroke-width="2" d="M44.69,-144.81C44.69,-136.79 44.69,-127.05 44.69,-118.07"/>
<polygon fill="grey" stroke="grey" stroke-width="2" points="48.19,-118.03 44.69,-108.03 41.19,-118.03 48.19,-118.03"/>
</g>
<!-- 9 -->
<g id="node10" class="node">
<title>9</title>
<path fill="none" stroke="#d86e56" stroke-width="2" stroke-dasharray="5,2" d="M351.69,-181C351.69,-181 321.69,-181 321.69,-181 315.69,-181 309.69,-175 309.69,-169 309.69,-169 309.69,-157 309.69,-157 309.69,-151 315.69,-145 321.69,-145 321.69,-145 351.69,-145 351.69,-145 357.69,-145 363.69,-151 363.69,-157 363.69,-157 363.69,-169 363.69,-169 363.69,-175 357.69,-181 351.69,-181"/>
<text text-anchor="middle" x="336.69" y="-160" font-family="sans" font-size="10.00">snpsift</text>
</g>
<!-- 9&#45;&gt;2 -->
<g id="edge9" class="edge">
<title>9&#45;&gt;2</title>
<path fill="none" stroke="grey" stroke-width="2" d="M331.36,-144.81C328.85,-136.7 325.79,-126.84 322.98,-117.78"/>
<polygon fill="grey" stroke="grey" stroke-width="2" points="326.27,-116.54 319.96,-108.03 319.58,-118.62 326.27,-116.54"/>
</g>
<!-- 10 -->
<g id="node11" class="node">
<title>10</title>
<path fill="none" stroke="#d8b456" stroke-width="2" stroke-dasharray="5,2" d="M363.6,-254C363.6,-254 327.77,-254 327.77,-254 321.77,-254 315.77,-248 315.77,-242 315.77,-242 315.77,-230 315.77,-230 315.77,-224 321.77,-218 327.77,-218 327.77,-218 363.6,-218 363.6,-218 369.6,-218 375.6,-224 375.6,-230 375.6,-230 375.6,-242 375.6,-242 375.6,-248 369.6,-254 363.6,-254"/>
<text text-anchor="middle" x="345.69" y="-238" font-family="sans" font-size="10.00">snpeff</text>
<text text-anchor="middle" x="345.69" y="-228" font-family="sans" font-size="10.00">sample: A</text>
</g>
<!-- 10&#45;&gt;3 -->
<g id="edge12" class="edge">
<title>10&#45;&gt;3</title>
<path fill="none" stroke="grey" stroke-width="2" d="M355.61,-217.74C361.16,-207.58 367.91,-194.33 372.69,-182 380.84,-160.96 387.46,-136.22 391.83,-117.85"/>
<polygon fill="grey" stroke="grey" stroke-width="2" points="395.24,-118.63 394.08,-108.1 388.42,-117.06 395.24,-118.63"/>
</g>
<!-- 10&#45;&gt;9 -->
<g id="edge17" class="edge">
<title>10&#45;&gt;9</title>
<path fill="none" stroke="grey" stroke-width="2" d="M343.51,-217.81C342.49,-209.79 341.26,-200.05 340.12,-191.07"/>
<polygon fill="grey" stroke="grey" stroke-width="2" points="343.58,-190.51 338.85,-181.03 336.63,-191.39 343.58,-190.51"/>
</g>
<!-- 11 -->
<g id="node12" class="node">
<title>11</title>
<path fill="none" stroke="#56d892" stroke-width="2" stroke-dasharray="5,2" d="M463.76,-181C463.76,-181 431.61,-181 431.61,-181 425.61,-181 419.61,-175 419.61,-169 419.61,-169 419.61,-157 419.61,-157 419.61,-151 425.61,-145 431.61,-145 431.61,-145 463.76,-145 463.76,-145 469.76,-145 475.76,-151 475.76,-157 475.76,-157 475.76,-169 475.76,-169 475.76,-175 469.76,-181 463.76,-181"/>
<text text-anchor="middle" x="447.69" y="-160" font-family="sans" font-size="10.00">bamstats</text>
</g>
<!-- 11&#45;&gt;3 -->
<g id="edge13" class="edge">
<title>11&#45;&gt;3</title>
<path fill="none" stroke="grey" stroke-width="2" d="M435.58,-144.81C429.56,-136.27 422.17,-125.77 415.52,-116.32"/>
<polygon fill="grey" stroke="grey" stroke-width="2" points="418.3,-114.19 409.68,-108.03 412.58,-118.22 418.3,-114.19"/>
</g>
<!-- 12 -->
<g id="node13" class="node">
<title>12</title>
<path fill="none" stroke="#56d863" stroke-width="2" stroke-dasharray="5,2" d="M204.69,-327C204.69,-327 174.69,-327 174.69,-327 168.69,-327 162.69,-321 162.69,-315 162.69,-315 162.69,-303 162.69,-303 162.69,-297 168.69,-291 174.69,-291 174.69,-291 204.69,-291 204.69,-291 210.69,-291 216.69,-297 216.69,-303 216.69,-303 216.69,-315 216.69,-315 216.69,-321 210.69,-327 204.69,-327"/>
<text text-anchor="middle" x="189.69" y="-306" font-family="sans" font-size="10.00">trim</text>
</g>
<!-- 12&#45;&gt;4 -->
<g id="edge14" class="edge">
<title>12&#45;&gt;4</title>
<path fill="none" stroke="grey" stroke-width="2" d="M189.69,-290.81C189.69,-282.79 189.69,-273.05 189.69,-264.07"/>
<polygon fill="grey" stroke="grey" stroke-width="2" points="193.19,-264.03 189.69,-254.03 186.19,-264.03 193.19,-264.03"/>
</g>
<!-- 13&#45;&gt;5 -->
<g id="edge15" class="edge">
<title>13&#45;&gt;5</title>
<path fill="none" stroke="grey" stroke-width="2" d="M132.41,-144.81C132.75,-136.79 133.16,-127.05 133.54,-118.07"/>
<polygon fill="grey" stroke="grey" stroke-width="2" points="137.04,-118.17 133.97,-108.03 130.05,-117.87 137.04,-118.17"/>
</g>
<!-- 14 -->
<g id="node15" class="node">
<title>14</title>
<path fill="none" stroke="#a7d856" stroke-width="2" stroke-dasharray="5,2" d="M480.61,-254C480.61,-254 414.77,-254 414.77,-254 408.77,-254 402.77,-248 402.77,-242 402.77,-242 402.77,-230 402.77,-230 402.77,-224 408.77,-218 414.77,-218 414.77,-218 480.61,-218 480.61,-218 486.61,-218 492.61,-224 492.61,-230 492.61,-230 492.61,-242 492.61,-242 492.61,-248 486.61,-254 480.61,-254"/>
<text text-anchor="middle" x="447.69" y="-233" font-family="sans" font-size="10.00">samtools_merge</text>
</g>
<!-- 14&#45;&gt;11 -->
<g id="edge18" class="edge">
<title>14&#45;&gt;11</title>
<path fill="none" stroke="grey" stroke-width="2" d="M447.69,-217.81C447.69,-209.79 447.69,-200.05 447.69,-191.07"/>
<polygon fill="grey" stroke="grey" stroke-width="2" points="451.19,-191.03 447.69,-181.03 444.19,-191.03 451.19,-191.03"/>
</g>
<!-- 15 -->
<g id="node16" class="node">
<title>15</title>
<path fill="none" stroke="#d89c56" stroke-width="2" stroke-dasharray="5,2" d="M204.69,-400C204.69,-400 174.69,-400 174.69,-400 168.69,-400 162.69,-394 162.69,-388 162.69,-388 162.69,-376 162.69,-376 162.69,-370 168.69,-364 174.69,-364 174.69,-364 204.69,-364 204.69,-364 210.69,-364 216.69,-370 216.69,-376 216.69,-376 216.69,-388 216.69,-388 216.69,-394 210.69,-400 204.69,-400"/>
<text text-anchor="middle" x="189.69" y="-379" font-family="sans" font-size="10.00">clumpify</text>
</g>
<!-- 15&#45;&gt;12 -->
<g id="edge19" class="edge">
<title>15&#45;&gt;12</title>
<path fill="none" stroke="grey" stroke-width="2" d="M189.69,-363.81C189.69,-355.79 189.69,-346.05 189.69,-337.07"/>
<polygon fill="grey" stroke="grey" stroke-width="2" points="193.19,-337.03 189.69,-327.03 186.19,-337.03 193.19,-337.03"/>
</g>
<!-- 16 -->
<g id="node17" class="node">
<title>16</title>
<path fill="none" stroke="#569ad8" stroke-width="2" stroke-dasharray="5,2" d="M474.93,-328C474.93,-328 420.44,-328 420.44,-328 414.44,-328 408.44,-322 408.44,-316 408.44,-316 408.44,-302 408.44,-302 408.44,-296 414.44,-290 420.44,-290 420.44,-290 474.93,-290 474.93,-290 480.93,-290 486.93,-296 486.93,-302 486.93,-302 486.93,-316 486.93,-316 486.93,-322 480.93,-328 474.93,-328"/>
<text text-anchor="middle" x="447.69" y="-316" font-family="sans" font-size="10.00">samtools_sort</text>
<text text-anchor="middle" x="447.69" y="-306" font-family="sans" font-size="10.00">run: A1</text>
<text text-anchor="middle" x="447.69" y="-296" font-family="sans" font-size="10.00">sample: A</text>
</g>
<!-- 16&#45;&gt;14 -->
<g id="edge21" class="edge">
<title>16&#45;&gt;14</title>
<path fill="none" stroke="grey" stroke-width="2" d="M447.69,-289.72C447.69,-281.97 447.69,-272.79 447.69,-264.27"/>
<polygon fill="grey" stroke="grey" stroke-width="2" points="451.19,-264 447.69,-254 444.19,-264 451.19,-264"/>
</g>
<!-- 17 -->
<g id="node18" class="node">
<title>17</title>
<path fill="none" stroke="#56d8d0" stroke-width="2" stroke-dasharray="5,2" d="M207.6,-474C207.6,-474 171.77,-474 171.77,-474 165.77,-474 159.77,-468 159.77,-462 159.77,-462 159.77,-448 159.77,-448 159.77,-442 165.77,-436 171.77,-436 171.77,-436 207.6,-436 207.6,-436 213.6,-436 219.6,-442 219.6,-448 219.6,-448 219.6,-462 219.6,-462 219.6,-468 213.6,-474 207.6,-474"/>
<text text-anchor="middle" x="189.69" y="-462" font-family="sans" font-size="10.00">repair</text>
<text text-anchor="middle" x="189.69" y="-452" font-family="sans" font-size="10.00">run: A1</text>
<text text-anchor="middle" x="189.69" y="-442" font-family="sans" font-size="10.00">sample: A</text>
</g>
<!-- 17&#45;&gt;15 -->
<g id="edge22" class="edge">
<title>17&#45;&gt;15</title>
<path fill="none" stroke="grey" stroke-width="2" d="M189.69,-435.72C189.69,-427.97 189.69,-418.79 189.69,-410.27"/>
<polygon fill="grey" stroke="grey" stroke-width="2" points="193.19,-410 189.69,-400 186.19,-410 193.19,-410"/>
</g>
</g>
</svg>
