<?xml version="1.0" encoding="UTF-8" standalone="no"?>
<!DOCTYPE svg PUBLIC "-//W3C//DTD SVG 1.1//EN"
 "http://www.w3.org/Graphics/SVG/1.1/DTD/svg11.dtd">
<!-- Generated by graphviz version 2.42.3 (20191010.1750)
 -->
<!-- Title: snakemake_dag Pages: 1 -->
<svg width="523pt" height="1057pt"
 viewBox="0.00 0.00 523.00 1057.00" xmlns="http://www.w3.org/2000/svg" xmlns:xlink="http://www.w3.org/1999/xlink">
<g id="graph0" class="graph" transform="scale(1 1) rotate(0) translate(4 1053)">
<title>snakemake_dag</title>
<polygon fill="white" stroke="transparent" points="-4,4 -4,-1053 519,-1053 519,4 -4,4"/>
<!-- 0 -->
<g id="node1" class="node">
<title>0</title>
<path fill="none" stroke="#d6d856" stroke-width="2" d="M316,-36C316,-36 286,-36 286,-36 280,-36 274,-30 274,-24 274,-24 274,-12 274,-12 274,-6 280,0 286,0 286,0 316,0 316,0 322,0 328,-6 328,-12 328,-12 328,-24 328,-24 328,-30 322,-36 316,-36"/>
<text text-anchor="middle" x="301" y="-15.5" font-family="sans" font-size="10.00">all</text>
</g>
<!-- 1 -->
<g id="node2" class="node">
<title>1</title>
<path fill="none" stroke="#88d856" stroke-width="2" d="M283,-108C283,-108 217,-108 217,-108 211,-108 205,-102 205,-96 205,-96 205,-84 205,-84 205,-78 211,-72 217,-72 217,-72 283,-72 283,-72 289,-72 295,-78 295,-84 295,-84 295,-96 295,-96 295,-102 289,-108 283,-108"/>
<text text-anchor="middle" x="250" y="-87.5" font-family="sans" font-size="10.00">merge_renamed</text>
</g>
<!-- 1&#45;&gt;0 -->
<g id="edge1" class="edge">
<title>1&#45;&gt;0</title>
<path fill="none" stroke="grey" stroke-width="2" d="M262.61,-71.7C268.6,-63.47 275.88,-53.48 282.48,-44.42"/>
<polygon fill="grey" stroke="grey" stroke-width="2" points="285.48,-46.25 288.54,-36.1 279.82,-42.13 285.48,-46.25"/>
</g>
<!-- 2 -->
<g id="node3" class="node">
<title>2</title>
<path fill="none" stroke="#bed856" stroke-width="2" d="M266,-180C266,-180 236,-180 236,-180 230,-180 224,-174 224,-168 224,-168 224,-156 224,-156 224,-150 230,-144 236,-144 236,-144 266,-144 266,-144 272,-144 278,-150 278,-156 278,-156 278,-168 278,-168 278,-174 272,-180 266,-180"/>
<text text-anchor="middle" x="251" y="-159.5" font-family="sans" font-size="10.00">rename</text>
</g>
<!-- 2&#45;&gt;1 -->
<g id="edge5" class="edge">
<title>2&#45;&gt;1</title>
<path fill="none" stroke="grey" stroke-width="2" d="M250.75,-143.7C250.64,-135.98 250.51,-126.71 250.39,-118.11"/>
<polygon fill="grey" stroke="grey" stroke-width="2" points="253.89,-118.05 250.24,-108.1 246.89,-118.15 253.89,-118.05"/>
</g>
<!-- 3 -->
<g id="node4" class="node">
<title>3</title>
<path fill="none" stroke="#56d8d0" stroke-width="2" d="M294,-252C294,-252 212,-252 212,-252 206,-252 200,-246 200,-240 200,-240 200,-228 200,-228 200,-222 206,-216 212,-216 212,-216 294,-216 294,-216 300,-216 306,-222 306,-228 306,-228 306,-240 306,-240 306,-246 300,-252 294,-252"/>
<text text-anchor="middle" x="253" y="-231.5" font-family="sans" font-size="10.00">genome_consensus</text>
</g>
<!-- 3&#45;&gt;2 -->
<g id="edge6" class="edge">
<title>3&#45;&gt;2</title>
<path fill="none" stroke="grey" stroke-width="2" d="M252.51,-215.7C252.29,-207.98 252.02,-198.71 251.77,-190.11"/>
<polygon fill="grey" stroke="grey" stroke-width="2" points="255.27,-190 251.49,-180.1 248.28,-190.2 255.27,-190"/>
</g>
<!-- 4 -->
<g id="node5" class="node">
<title>4</title>
<path fill="none" stroke="#d8b456" stroke-width="2" d="M411,-900C411,-900 381,-900 381,-900 375,-900 369,-894 369,-888 369,-888 369,-876 369,-876 369,-870 375,-864 381,-864 381,-864 411,-864 411,-864 417,-864 423,-870 423,-876 423,-876 423,-888 423,-888 423,-894 417,-900 411,-900"/>
<text text-anchor="middle" x="396" y="-879.5" font-family="sans" font-size="10.00">filter</text>
</g>
<!-- 4&#45;&gt;3 -->
<g id="edge7" class="edge">
<title>4&#45;&gt;3</title>
<path fill="none" stroke="grey" stroke-width="2" d="M368.98,-865.36C354.69,-856 337.73,-843.02 326,-828 299.52,-794.11 288,-782.01 288,-739 288,-739 288,-739 288,-377 288,-335.84 273.97,-289.88 263.67,-261.69"/>
<polygon fill="grey" stroke="grey" stroke-width="2" points="266.88,-260.28 260.08,-252.15 260.33,-262.74 266.88,-260.28"/>
</g>
<!-- 14 -->
<g id="node15" class="node">
<title>14</title>
<path fill="none" stroke="#56d89a" stroke-width="2" d="M377,-828C377,-828 347,-828 347,-828 341,-828 335,-822 335,-816 335,-816 335,-804 335,-804 335,-798 341,-792 347,-792 347,-792 377,-792 377,-792 383,-792 389,-798 389,-804 389,-804 389,-816 389,-816 389,-822 383,-828 377,-828"/>
<text text-anchor="middle" x="362" y="-807.5" font-family="sans" font-size="10.00">correct1</text>
</g>
<!-- 4&#45;&gt;14 -->
<g id="edge18" class="edge">
<title>4&#45;&gt;14</title>
<path fill="none" stroke="grey" stroke-width="2" d="M387.6,-863.7C383.73,-855.73 379.05,-846.1 374.76,-837.26"/>
<polygon fill="grey" stroke="grey" stroke-width="2" points="377.83,-835.57 370.31,-828.1 371.53,-838.63 377.83,-835.57"/>
</g>
<!-- 19 -->
<g id="node20" class="node">
<title>19</title>
<path fill="none" stroke="#56c9d8" stroke-width="2" d="M462,-756C462,-756 412,-756 412,-756 406,-756 400,-750 400,-744 400,-744 400,-732 400,-732 400,-726 406,-720 412,-720 412,-720 462,-720 462,-720 468,-720 474,-726 474,-732 474,-732 474,-744 474,-744 474,-750 468,-756 462,-756"/>
<text text-anchor="middle" x="437" y="-735.5" font-family="sans" font-size="10.00">fastq_screen</text>
</g>
<!-- 4&#45;&gt;19 -->
<g id="edge26" class="edge">
<title>4&#45;&gt;19</title>
<path fill="none" stroke="grey" stroke-width="2" d="M400.95,-863.87C407.96,-839.56 420.88,-794.82 429.2,-766.01"/>
<polygon fill="grey" stroke="grey" stroke-width="2" points="432.63,-766.77 432.04,-756.19 425.9,-764.83 432.63,-766.77"/>
</g>
<!-- 5 -->
<g id="node6" class="node">
<title>5</title>
<path fill="none" stroke="#5692d8" stroke-width="2" d="M419,-972C419,-972 389,-972 389,-972 383,-972 377,-966 377,-960 377,-960 377,-948 377,-948 377,-942 383,-936 389,-936 389,-936 419,-936 419,-936 425,-936 431,-942 431,-948 431,-948 431,-960 431,-960 431,-966 425,-972 419,-972"/>
<text text-anchor="middle" x="404" y="-951.5" font-family="sans" font-size="10.00">trim</text>
</g>
<!-- 5&#45;&gt;4 -->
<g id="edge9" class="edge">
<title>5&#45;&gt;4</title>
<path fill="none" stroke="grey" stroke-width="2" d="M402.02,-935.7C401.14,-927.98 400.08,-918.71 399.1,-910.11"/>
<polygon fill="grey" stroke="grey" stroke-width="2" points="402.57,-909.64 397.95,-900.1 395.61,-910.44 402.57,-909.64"/>
</g>
<!-- 6 -->
<g id="node7" class="node">
<title>6</title>
<path fill="none" stroke="#56a2d8" stroke-width="2" d="M449.5,-1049C449.5,-1049 412.5,-1049 412.5,-1049 406.5,-1049 400.5,-1043 400.5,-1037 400.5,-1037 400.5,-1020 400.5,-1020 400.5,-1014 406.5,-1008 412.5,-1008 412.5,-1008 449.5,-1008 449.5,-1008 455.5,-1008 461.5,-1014 461.5,-1020 461.5,-1020 461.5,-1037 461.5,-1037 461.5,-1043 455.5,-1049 449.5,-1049"/>
<text text-anchor="middle" x="431" y="-1037" font-family="sans" font-size="10.00">reformat</text>
<text text-anchor="middle" x="431" y="-1026" font-family="sans" font-size="10.00">run: A1</text>
<text text-anchor="middle" x="431" y="-1015" font-family="sans" font-size="10.00">sample: A</text>
</g>
<!-- 6&#45;&gt;5 -->
<g id="edge10" class="edge">
<title>6&#45;&gt;5</title>
<path fill="none" stroke="grey" stroke-width="2" d="M423.62,-1007.69C420.66,-999.73 417.2,-990.44 414.01,-981.89"/>
<polygon fill="grey" stroke="grey" stroke-width="2" points="417.22,-980.47 410.45,-972.32 410.66,-982.91 417.22,-980.47"/>
</g>
<!-- 20 -->
<g id="node21" class="node">
<title>20</title>
<path fill="none" stroke="#61d856" stroke-width="2" d="M503,-900C503,-900 473,-900 473,-900 467,-900 461,-894 461,-888 461,-888 461,-876 461,-876 461,-870 467,-864 473,-864 473,-864 503,-864 503,-864 509,-864 515,-870 515,-876 515,-876 515,-888 515,-888 515,-894 509,-900 503,-900"/>
<text text-anchor="middle" x="488" y="-879.5" font-family="sans" font-size="10.00">fastqc</text>
</g>
<!-- 6&#45;&gt;20 -->
<g id="edge27" class="edge">
<title>6&#45;&gt;20</title>
<path fill="none" stroke="grey" stroke-width="2" d="M438.81,-1007.71C448.84,-982.27 466.31,-937.99 477.5,-909.61"/>
<polygon fill="grey" stroke="grey" stroke-width="2" points="480.76,-910.88 481.18,-900.3 474.25,-908.31 480.76,-910.88"/>
</g>
<!-- 7 -->
<g id="node8" class="node">
<title>7</title>
<path fill="none" stroke="#56d8a9" stroke-width="2" d="M248,-324C248,-324 218,-324 218,-324 212,-324 206,-318 206,-312 206,-312 206,-300 206,-300 206,-294 212,-288 218,-288 218,-288 248,-288 248,-288 254,-288 260,-294 260,-300 260,-300 260,-312 260,-312 260,-318 254,-324 248,-324"/>
<text text-anchor="middle" x="233" y="-303.5" font-family="sans" font-size="10.00">vcffilter</text>
</g>
<!-- 7&#45;&gt;3 -->
<g id="edge8" class="edge">
<title>7&#45;&gt;3</title>
<path fill="none" stroke="grey" stroke-width="2" d="M237.94,-287.7C240.17,-279.9 242.85,-270.51 245.33,-261.83"/>
<polygon fill="grey" stroke="grey" stroke-width="2" points="248.73,-262.68 248.11,-252.1 242,-260.76 248.73,-262.68"/>
</g>
<!-- 17 -->
<g id="node18" class="node">
<title>17</title>
<path fill="none" stroke="#d87d56" stroke-width="2" d="M367,-252C367,-252 337,-252 337,-252 331,-252 325,-246 325,-240 325,-240 325,-228 325,-228 325,-222 331,-216 337,-216 337,-216 367,-216 367,-216 373,-216 379,-222 379,-228 379,-228 379,-240 379,-240 379,-246 373,-252 367,-252"/>
<text text-anchor="middle" x="352" y="-231.5" font-family="sans" font-size="10.00">snpeff</text>
</g>
<!-- 7&#45;&gt;17 -->
<g id="edge21" class="edge">
<title>7&#45;&gt;17</title>
<path fill="none" stroke="grey" stroke-width="2" d="M260,-289.12C276.47,-279.43 297.73,-266.92 315.66,-256.38"/>
<polygon fill="grey" stroke="grey" stroke-width="2" points="317.85,-259.15 324.69,-251.06 314.3,-253.12 317.85,-259.15"/>
</g>
<!-- 8 -->
<g id="node9" class="node">
<title>8</title>
<path fill="none" stroke="#d8cb56" stroke-width="2" d="M248,-396C248,-396 218,-396 218,-396 212,-396 206,-390 206,-384 206,-384 206,-372 206,-372 206,-366 212,-360 218,-360 218,-360 248,-360 248,-360 254,-360 260,-366 260,-372 260,-372 260,-384 260,-384 260,-390 254,-396 248,-396"/>
<text text-anchor="middle" x="233" y="-375.5" font-family="sans" font-size="10.00">lofreq2</text>
</g>
<!-- 8&#45;&gt;7 -->
<g id="edge11" class="edge">
<title>8&#45;&gt;7</title>
<path fill="none" stroke="grey" stroke-width="2" d="M233,-359.7C233,-351.98 233,-342.71 233,-334.11"/>
<polygon fill="grey" stroke="grey" stroke-width="2" points="236.5,-334.1 233,-324.1 229.5,-334.1 236.5,-334.1"/>
</g>
<!-- 9 -->
<g id="node10" class="node">
<title>9</title>
<path fill="none" stroke="#d88d56" stroke-width="2" d="M137.5,-468C137.5,-468 104.5,-468 104.5,-468 98.5,-468 92.5,-462 92.5,-456 92.5,-456 92.5,-444 92.5,-444 92.5,-438 98.5,-432 104.5,-432 104.5,-432 137.5,-432 137.5,-432 143.5,-432 149.5,-438 149.5,-444 149.5,-444 149.5,-456 149.5,-456 149.5,-462 143.5,-468 137.5,-468"/>
<text text-anchor="middle" x="121" y="-447.5" font-family="sans" font-size="10.00">indelqual</text>
</g>
<!-- 9&#45;&gt;8 -->
<g id="edge12" class="edge">
<title>9&#45;&gt;8</title>
<path fill="none" stroke="grey" stroke-width="2" d="M148.4,-431.88C163.15,-422.66 181.53,-411.17 197.38,-401.26"/>
<polygon fill="grey" stroke="grey" stroke-width="2" points="199.26,-404.22 205.88,-395.95 195.55,-398.28 199.26,-404.22"/>
</g>
<!-- 25 -->
<g id="node26" class="node">
<title>25</title>
<path fill="none" stroke="#d8a456" stroke-width="2" d="M136,-396C136,-396 106,-396 106,-396 100,-396 94,-390 94,-384 94,-384 94,-372 94,-372 94,-366 100,-360 106,-360 106,-360 136,-360 136,-360 142,-360 148,-366 148,-372 148,-372 148,-384 148,-384 148,-390 142,-396 136,-396"/>
<text text-anchor="middle" x="121" y="-375.5" font-family="sans" font-size="10.00">lofreq1</text>
</g>
<!-- 9&#45;&gt;25 -->
<g id="edge35" class="edge">
<title>9&#45;&gt;25</title>
<path fill="none" stroke="grey" stroke-width="2" d="M121,-431.7C121,-423.98 121,-414.71 121,-406.11"/>
<polygon fill="grey" stroke="grey" stroke-width="2" points="124.5,-406.1 121,-396.1 117.5,-406.1 124.5,-406.1"/>
</g>
<!-- 10 -->
<g id="node11" class="node">
<title>10</title>
<path fill="none" stroke="#56d873" stroke-width="2" d="M182.5,-540C182.5,-540 117.5,-540 117.5,-540 111.5,-540 105.5,-534 105.5,-528 105.5,-528 105.5,-516 105.5,-516 105.5,-510 111.5,-504 117.5,-504 117.5,-504 182.5,-504 182.5,-504 188.5,-504 194.5,-510 194.5,-516 194.5,-516 194.5,-528 194.5,-528 194.5,-534 188.5,-540 182.5,-540"/>
<text text-anchor="middle" x="150" y="-519.5" font-family="sans" font-size="10.00">mark_duplicates</text>
</g>
<!-- 10&#45;&gt;9 -->
<g id="edge13" class="edge">
<title>10&#45;&gt;9</title>
<path fill="none" stroke="grey" stroke-width="2" d="M142.83,-503.7C139.57,-495.81 135.63,-486.3 132,-477.55"/>
<polygon fill="grey" stroke="grey" stroke-width="2" points="135.15,-476 128.09,-468.1 128.68,-478.68 135.15,-476"/>
</g>
<!-- 23 -->
<g id="node24" class="node">
<title>23</title>
<path fill="none" stroke="#56d88a" stroke-width="2" d="M143,-180C143,-180 107,-180 107,-180 101,-180 95,-174 95,-168 95,-168 95,-156 95,-156 95,-150 101,-144 107,-144 107,-144 143,-144 143,-144 149,-144 155,-150 155,-156 155,-156 155,-168 155,-168 155,-174 149,-180 143,-180"/>
<text text-anchor="middle" x="125" y="-159.5" font-family="sans" font-size="10.00">applybqsr</text>
</g>
<!-- 10&#45;&gt;23 -->
<g id="edge30" class="edge">
<title>10&#45;&gt;23</title>
<path fill="none" stroke="grey" stroke-width="2" d="M109.8,-503.94C65.37,-482.08 0,-439.6 0,-379 0,-379 0,-379 0,-305 0,-252.09 49.49,-209.54 86.19,-185.27"/>
<polygon fill="grey" stroke="grey" stroke-width="2" points="88.21,-188.13 94.74,-179.78 84.43,-182.24 88.21,-188.13"/>
</g>
<!-- 24 -->
<g id="node25" class="node">
<title>24</title>
<path fill="none" stroke="#567bd8" stroke-width="2" d="M169.5,-252C169.5,-252 80.5,-252 80.5,-252 74.5,-252 68.5,-246 68.5,-240 68.5,-240 68.5,-228 68.5,-228 68.5,-222 74.5,-216 80.5,-216 80.5,-216 169.5,-216 169.5,-216 175.5,-216 181.5,-222 181.5,-228 181.5,-228 181.5,-240 181.5,-240 181.5,-246 175.5,-252 169.5,-252"/>
<text text-anchor="middle" x="125" y="-231.5" font-family="sans" font-size="10.00">gatk_baserecalibrator</text>
</g>
<!-- 10&#45;&gt;24 -->
<g id="edge32" class="edge">
<title>10&#45;&gt;24</title>
<path fill="none" stroke="grey" stroke-width="2" d="M153.65,-503.91C155.68,-493.57 157.98,-480.09 159,-468 160.34,-452.06 159.22,-448 159,-432 158.56,-399.99 161.44,-391.7 157,-360 152.19,-325.64 141.49,-287.11 133.78,-262.02"/>
<polygon fill="grey" stroke="grey" stroke-width="2" points="137.02,-260.64 130.69,-252.15 130.34,-262.74 137.02,-260.64"/>
</g>
<!-- 11 -->
<g id="node12" class="node">
<title>11</title>
<path fill="none" stroke="#97d856" stroke-width="2" d="M383.5,-612C383.5,-612 328.5,-612 328.5,-612 322.5,-612 316.5,-606 316.5,-600 316.5,-600 316.5,-588 316.5,-588 316.5,-582 322.5,-576 328.5,-576 328.5,-576 383.5,-576 383.5,-576 389.5,-576 395.5,-582 395.5,-588 395.5,-588 395.5,-600 395.5,-600 395.5,-606 389.5,-612 383.5,-612"/>
<text text-anchor="middle" x="356" y="-591.5" font-family="sans" font-size="10.00">samtools_sort</text>
</g>
<!-- 11&#45;&gt;10 -->
<g id="edge14" class="edge">
<title>11&#45;&gt;10</title>
<path fill="none" stroke="grey" stroke-width="2" d="M316.28,-579.5C284.43,-568.68 239.41,-553.38 204.24,-541.43"/>
<polygon fill="grey" stroke="grey" stroke-width="2" points="205.2,-538.06 194.6,-538.16 202.95,-544.69 205.2,-538.06"/>
</g>
<!-- 12 -->
<g id="node13" class="node">
<title>12</title>
<path fill="none" stroke="#d86656" stroke-width="2" d="M376,-684C376,-684 336,-684 336,-684 330,-684 324,-678 324,-672 324,-672 324,-660 324,-660 324,-654 330,-648 336,-648 336,-648 376,-648 376,-648 382,-648 388,-654 388,-660 388,-660 388,-672 388,-672 388,-678 382,-684 376,-684"/>
<text text-anchor="middle" x="356" y="-663.5" font-family="sans" font-size="10.00">refgenome</text>
</g>
<!-- 12&#45;&gt;11 -->
<g id="edge15" class="edge">
<title>12&#45;&gt;11</title>
<path fill="none" stroke="grey" stroke-width="2" d="M356,-647.7C356,-639.98 356,-630.71 356,-622.11"/>
<polygon fill="grey" stroke="grey" stroke-width="2" points="359.5,-622.1 356,-612.1 352.5,-622.1 359.5,-622.1"/>
</g>
<!-- 21 -->
<g id="node22" class="node">
<title>21</title>
<path fill="none" stroke="#70d856" stroke-width="2" d="M422.5,-540C422.5,-540 389.5,-540 389.5,-540 383.5,-540 377.5,-534 377.5,-528 377.5,-528 377.5,-516 377.5,-516 377.5,-510 383.5,-504 389.5,-504 389.5,-504 422.5,-504 422.5,-504 428.5,-504 434.5,-510 434.5,-516 434.5,-516 434.5,-528 434.5,-528 434.5,-534 428.5,-540 422.5,-540"/>
<text text-anchor="middle" x="406" y="-519.5" font-family="sans" font-size="10.00">bamstats</text>
</g>
<!-- 12&#45;&gt;21 -->
<g id="edge28" class="edge">
<title>12&#45;&gt;21</title>
<path fill="none" stroke="grey" stroke-width="2" d="M378.09,-647.85C388.33,-638.49 399.44,-625.97 405,-612 412.83,-592.32 412.56,-568.19 410.62,-550.03"/>
<polygon fill="grey" stroke="grey" stroke-width="2" points="414.09,-549.57 409.34,-540.1 407.15,-550.47 414.09,-549.57"/>
</g>
<!-- 13 -->
<g id="node14" class="node">
<title>13</title>
<path fill="none" stroke="#56b9d8" stroke-width="2" d="M370,-756C370,-756 340,-756 340,-756 334,-756 328,-750 328,-744 328,-744 328,-732 328,-732 328,-726 334,-720 340,-720 340,-720 370,-720 370,-720 376,-720 382,-726 382,-732 382,-732 382,-744 382,-744 382,-750 376,-756 370,-756"/>
<text text-anchor="middle" x="355" y="-735.5" font-family="sans" font-size="10.00">correct2</text>
</g>
<!-- 13&#45;&gt;12 -->
<g id="edge16" class="edge">
<title>13&#45;&gt;12</title>
<path fill="none" stroke="grey" stroke-width="2" d="M355.25,-719.7C355.36,-711.98 355.49,-702.71 355.61,-694.11"/>
<polygon fill="grey" stroke="grey" stroke-width="2" points="359.11,-694.15 355.76,-684.1 352.11,-694.05 359.11,-694.15"/>
</g>
<!-- 14&#45;&gt;13 -->
<g id="edge17" class="edge">
<title>14&#45;&gt;13</title>
<path fill="none" stroke="grey" stroke-width="2" d="M360.27,-791.7C359.5,-783.98 358.57,-774.71 357.71,-766.11"/>
<polygon fill="grey" stroke="grey" stroke-width="2" points="361.19,-765.71 356.71,-756.1 354.22,-766.4 361.19,-765.71"/>
</g>
<!-- 15 -->
<g id="node16" class="node">
<title>15</title>
<path fill="none" stroke="#d85656" stroke-width="2" d="M378.5,-108C378.5,-108 325.5,-108 325.5,-108 319.5,-108 313.5,-102 313.5,-96 313.5,-96 313.5,-84 313.5,-84 313.5,-78 319.5,-72 325.5,-72 325.5,-72 378.5,-72 378.5,-72 384.5,-72 390.5,-78 390.5,-84 390.5,-84 390.5,-96 390.5,-96 390.5,-102 384.5,-108 378.5,-108"/>
<text text-anchor="middle" x="352" y="-87.5" font-family="sans" font-size="10.00">merge_tables</text>
</g>
<!-- 15&#45;&gt;0 -->
<g id="edge2" class="edge">
<title>15&#45;&gt;0</title>
<path fill="none" stroke="grey" stroke-width="2" d="M339.39,-71.7C333.4,-63.47 326.12,-53.48 319.52,-44.42"/>
<polygon fill="grey" stroke="grey" stroke-width="2" points="322.18,-42.13 313.46,-36.1 316.52,-46.25 322.18,-42.13"/>
</g>
<!-- 16 -->
<g id="node17" class="node">
<title>16</title>
<path fill="none" stroke="#afd856" stroke-width="2" d="M367,-180C367,-180 337,-180 337,-180 331,-180 325,-174 325,-168 325,-168 325,-156 325,-156 325,-150 331,-144 337,-144 337,-144 367,-144 367,-144 373,-144 379,-150 379,-156 379,-156 379,-168 379,-168 379,-174 373,-180 367,-180"/>
<text text-anchor="middle" x="352" y="-159.5" font-family="sans" font-size="10.00">snpsift</text>
</g>
<!-- 16&#45;&gt;15 -->
<g id="edge19" class="edge">
<title>16&#45;&gt;15</title>
<path fill="none" stroke="grey" stroke-width="2" d="M352,-143.7C352,-135.98 352,-126.71 352,-118.11"/>
<polygon fill="grey" stroke="grey" stroke-width="2" points="355.5,-118.1 352,-108.1 348.5,-118.1 355.5,-118.1"/>
</g>
<!-- 17&#45;&gt;16 -->
<g id="edge20" class="edge">
<title>17&#45;&gt;16</title>
<path fill="none" stroke="grey" stroke-width="2" d="M352,-215.7C352,-207.98 352,-198.71 352,-190.11"/>
<polygon fill="grey" stroke="grey" stroke-width="2" points="355.5,-190.1 352,-180.1 348.5,-190.1 355.5,-190.1"/>
</g>
<!-- 18 -->
<g id="node19" class="node">
<title>18</title>
<path fill="none" stroke="#56d8c1" stroke-width="2" d="M439,-180C439,-180 409,-180 409,-180 403,-180 397,-174 397,-168 397,-168 397,-156 397,-156 397,-150 403,-144 409,-144 409,-144 439,-144 439,-144 445,-144 451,-150 451,-156 451,-156 451,-168 451,-168 451,-174 445,-180 439,-180"/>
<text text-anchor="middle" x="424" y="-159.5" font-family="sans" font-size="10.00">multiqc</text>
</g>
<!-- 17&#45;&gt;18 -->
<g id="edge24" class="edge">
<title>17&#45;&gt;18</title>
<path fill="none" stroke="grey" stroke-width="2" d="M369.8,-215.7C378.6,-207.14 389.38,-196.66 399,-187.3"/>
<polygon fill="grey" stroke="grey" stroke-width="2" points="401.68,-189.58 406.41,-180.1 396.8,-184.57 401.68,-189.58"/>
</g>
<!-- 18&#45;&gt;0 -->
<g id="edge3" class="edge">
<title>18&#45;&gt;0</title>
<path fill="none" stroke="grey" stroke-width="2" d="M423.34,-143.8C421.77,-124.42 416.62,-92.93 400,-72 384.19,-52.1 358.81,-38.73 337.71,-30.39"/>
<polygon fill="grey" stroke="grey" stroke-width="2" points="338.65,-27.01 328.06,-26.8 336.21,-33.57 338.65,-27.01"/>
</g>
<!-- 19&#45;&gt;18 -->
<g id="edge22" class="edge">
<title>19&#45;&gt;18</title>
<path fill="none" stroke="grey" stroke-width="2" d="M442.26,-719.7C449.86,-693.14 463,-640.61 463,-595 463,-595 463,-595 463,-305 463,-263.56 447.36,-217.67 435.89,-189.58"/>
<polygon fill="grey" stroke="grey" stroke-width="2" points="439,-187.93 431.89,-180.07 432.55,-190.65 439,-187.93"/>
</g>
<!-- 20&#45;&gt;18 -->
<g id="edge23" class="edge">
<title>20&#45;&gt;18</title>
<path fill="none" stroke="grey" stroke-width="2" d="M490.83,-863.57C494.92,-836.84 502,-784.09 502,-739 502,-739 502,-739 502,-305 502,-259.37 470.68,-214.55 447.73,-187.84"/>
<polygon fill="grey" stroke="grey" stroke-width="2" points="450.17,-185.31 440.92,-180.15 444.93,-189.95 450.17,-185.31"/>
</g>
<!-- 21&#45;&gt;18 -->
<g id="edge25" class="edge">
<title>21&#45;&gt;18</title>
<path fill="none" stroke="grey" stroke-width="2" d="M407.98,-503.98C410.89,-477.36 416,-424.23 416,-379 416,-379 416,-379 416,-305 416,-264.93 419.21,-218.61 421.57,-190.05"/>
<polygon fill="grey" stroke="grey" stroke-width="2" points="425.06,-190.29 422.42,-180.03 418.09,-189.7 425.06,-190.29"/>
</g>
<!-- 22 -->
<g id="node23" class="node">
<title>22</title>
<path fill="none" stroke="#566bd8" stroke-width="2" d="M158,-108C158,-108 128,-108 128,-108 122,-108 116,-102 116,-96 116,-96 116,-84 116,-84 116,-78 122,-72 128,-72 128,-72 158,-72 158,-72 164,-72 170,-78 170,-84 170,-84 170,-96 170,-96 170,-102 164,-108 158,-108"/>
<text text-anchor="middle" x="143" y="-87.5" font-family="sans" font-size="10.00">pileup</text>
</g>
<!-- 22&#45;&gt;0 -->
<g id="edge4" class="edge">
<title>22&#45;&gt;0</title>
<path fill="none" stroke="grey" stroke-width="2" d="M170.16,-76.97C196.24,-65.41 235.82,-47.88 264.61,-35.12"/>
<polygon fill="grey" stroke="grey" stroke-width="2" points="266.2,-38.24 273.93,-30.99 263.37,-31.84 266.2,-38.24"/>
</g>
<!-- 23&#45;&gt;22 -->
<g id="edge29" class="edge">
<title>23&#45;&gt;22</title>
<path fill="none" stroke="grey" stroke-width="2" d="M129.45,-143.7C131.45,-135.9 133.87,-126.51 136.1,-117.83"/>
<polygon fill="grey" stroke="grey" stroke-width="2" points="139.5,-118.66 138.6,-108.1 132.72,-116.92 139.5,-118.66"/>
</g>
<!-- 24&#45;&gt;23 -->
<g id="edge31" class="edge">
<title>24&#45;&gt;23</title>
<path fill="none" stroke="grey" stroke-width="2" d="M125,-215.7C125,-207.98 125,-198.71 125,-190.11"/>
<polygon fill="grey" stroke="grey" stroke-width="2" points="128.5,-190.1 125,-180.1 121.5,-190.1 128.5,-190.1"/>
</g>
<!-- 25&#45;&gt;24 -->
<g id="edge33" class="edge">
<title>25&#45;&gt;24</title>
<path fill="none" stroke="grey" stroke-width="2" d="M121.48,-359.87C122.16,-335.67 123.42,-291.21 124.23,-262.39"/>
<polygon fill="grey" stroke="grey" stroke-width="2" points="127.73,-262.28 124.52,-252.19 120.74,-262.09 127.73,-262.28"/>
</g>
<!-- 26 -->
<g id="node27" class="node">
<title>26</title>
<path fill="none" stroke="#56d863" stroke-width="2" d="M100,-324C100,-324 40,-324 40,-324 34,-324 28,-318 28,-312 28,-312 28,-300 28,-300 28,-294 34,-288 40,-288 40,-288 100,-288 100,-288 106,-288 112,-294 112,-300 112,-300 112,-312 112,-312 112,-318 106,-324 100,-324"/>
<text text-anchor="middle" x="70" y="-303.5" font-family="sans" font-size="10.00">indexfeaturefile</text>
</g>
<!-- 25&#45;&gt;26 -->
<g id="edge36" class="edge">
<title>25&#45;&gt;26</title>
<path fill="none" stroke="grey" stroke-width="2" d="M108.39,-359.7C102.4,-351.47 95.12,-341.48 88.52,-332.42"/>
<polygon fill="grey" stroke="grey" stroke-width="2" points="91.18,-330.13 82.46,-324.1 85.52,-334.25 91.18,-330.13"/>
</g>
<!-- 26&#45;&gt;24 -->
<g id="edge34" class="edge">
<title>26&#45;&gt;24</title>
<path fill="none" stroke="grey" stroke-width="2" d="M83.6,-287.7C90.12,-279.39 98.07,-269.28 105.25,-260.14"/>
<polygon fill="grey" stroke="grey" stroke-width="2" points="108.13,-262.13 111.56,-252.1 102.63,-257.81 108.13,-262.13"/>
</g>
</g>
</svg>
