<?xml version="1.0" encoding="UTF-8" standalone="no"?>
<!DOCTYPE svg PUBLIC "-//W3C//DTD SVG 1.1//EN"
 "http://www.w3.org/Graphics/SVG/1.1/DTD/svg11.dtd">
<!-- Generated by graphviz version 2.42.3 (20191010.1750)
 -->
<!-- Title: snakemake_dag Pages: 1 -->
<svg width="398pt" height="1489pt"
 viewBox="0.00 0.00 398.00 1489.00" xmlns="http://www.w3.org/2000/svg" xmlns:xlink="http://www.w3.org/1999/xlink">
<g id="graph0" class="graph" transform="scale(1 1) rotate(0) translate(4 1485)">
<title>snakemake_dag</title>
<polygon fill="white" stroke="transparent" points="-4,4 -4,-1485 394,-1485 394,4 -4,4"/>
<!-- 0 -->
<g id="node1" class="node">
<title>0</title>
<path fill="none" stroke="#d8ac56" stroke-width="2" d="M235,-36C235,-36 205,-36 205,-36 199,-36 193,-30 193,-24 193,-24 193,-12 193,-12 193,-6 199,0 205,0 205,0 235,0 235,0 241,0 247,-6 247,-12 247,-12 247,-24 247,-24 247,-30 241,-36 235,-36"/>
<text text-anchor="middle" x="220" y="-15.5" font-family="sans" font-size="10.00">all</text>
</g>
<!-- 1 -->
<g id="node2" class="node">
<title>1</title>
<path fill="none" stroke="#70d856" stroke-width="2" d="M118,-108C118,-108 52,-108 52,-108 46,-108 40,-102 40,-96 40,-96 40,-84 40,-84 40,-78 46,-72 52,-72 52,-72 118,-72 118,-72 124,-72 130,-78 130,-84 130,-84 130,-96 130,-96 130,-102 124,-108 118,-108"/>
<text text-anchor="middle" x="85" y="-87.5" font-family="sans" font-size="10.00">merge_renamed</text>
</g>
<!-- 1&#45;&gt;0 -->
<g id="edge1" class="edge">
<title>1&#45;&gt;0</title>
<path fill="none" stroke="grey" stroke-width="2" d="M118.02,-71.88C137.93,-61.56 163.29,-48.4 183.75,-37.8"/>
<polygon fill="grey" stroke="grey" stroke-width="2" points="185.5,-40.83 192.76,-33.12 182.27,-34.62 185.5,-40.83"/>
</g>
<!-- 2 -->
<g id="node3" class="node">
<title>2</title>
<path fill="none" stroke="#d8c356" stroke-width="2" d="M100,-180C100,-180 70,-180 70,-180 64,-180 58,-174 58,-168 58,-168 58,-156 58,-156 58,-150 64,-144 70,-144 70,-144 100,-144 100,-144 106,-144 112,-150 112,-156 112,-156 112,-168 112,-168 112,-174 106,-180 100,-180"/>
<text text-anchor="middle" x="85" y="-159.5" font-family="sans" font-size="10.00">rename</text>
</g>
<!-- 2&#45;&gt;1 -->
<g id="edge5" class="edge">
<title>2&#45;&gt;1</title>
<path fill="none" stroke="grey" stroke-width="2" d="M85,-143.7C85,-135.98 85,-126.71 85,-118.11"/>
<polygon fill="grey" stroke="grey" stroke-width="2" points="88.5,-118.1 85,-108.1 81.5,-118.1 88.5,-118.1"/>
</g>
<!-- 3 -->
<g id="node4" class="node">
<title>3</title>
<path fill="none" stroke="#97d856" stroke-width="2" d="M126,-252C126,-252 44,-252 44,-252 38,-252 32,-246 32,-240 32,-240 32,-228 32,-228 32,-222 38,-216 44,-216 44,-216 126,-216 126,-216 132,-216 138,-222 138,-228 138,-228 138,-240 138,-240 138,-246 132,-252 126,-252"/>
<text text-anchor="middle" x="85" y="-231.5" font-family="sans" font-size="10.00">genome_consensus</text>
</g>
<!-- 3&#45;&gt;2 -->
<g id="edge6" class="edge">
<title>3&#45;&gt;2</title>
<path fill="none" stroke="grey" stroke-width="2" d="M85,-215.7C85,-207.98 85,-198.71 85,-190.11"/>
<polygon fill="grey" stroke="grey" stroke-width="2" points="88.5,-190.1 85,-180.1 81.5,-190.1 88.5,-190.1"/>
</g>
<!-- 4 -->
<g id="node5" class="node">
<title>4</title>
<path fill="none" stroke="#56d0d8" stroke-width="2" d="M231,-1188C231,-1188 201,-1188 201,-1188 195,-1188 189,-1182 189,-1176 189,-1176 189,-1164 189,-1164 189,-1158 195,-1152 201,-1152 201,-1152 231,-1152 231,-1152 237,-1152 243,-1158 243,-1164 243,-1164 243,-1176 243,-1176 243,-1182 237,-1188 231,-1188"/>
<text text-anchor="middle" x="216" y="-1167.5" font-family="sans" font-size="10.00">correct2</text>
</g>
<!-- 4&#45;&gt;3 -->
<g id="edge7" class="edge">
<title>4&#45;&gt;3</title>
<path fill="none" stroke="grey" stroke-width="2" d="M188.64,-1164.3C130.52,-1152.57 0,-1116.31 0,-1027 0,-1027 0,-1027 0,-377 0,-330.45 34.04,-285.95 59.04,-259.55"/>
<polygon fill="grey" stroke="grey" stroke-width="2" points="61.66,-261.87 66.14,-252.27 56.65,-256.98 61.66,-261.87"/>
</g>
<!-- 17 -->
<g id="node18" class="node">
<title>17</title>
<path fill="none" stroke="#56d873" stroke-width="2" d="M236,-1116C236,-1116 196,-1116 196,-1116 190,-1116 184,-1110 184,-1104 184,-1104 184,-1092 184,-1092 184,-1086 190,-1080 196,-1080 196,-1080 236,-1080 236,-1080 242,-1080 248,-1086 248,-1092 248,-1092 248,-1104 248,-1104 248,-1110 242,-1116 236,-1116"/>
<text text-anchor="middle" x="216" y="-1095.5" font-family="sans" font-size="10.00">refgenome</text>
</g>
<!-- 4&#45;&gt;17 -->
<g id="edge22" class="edge">
<title>4&#45;&gt;17</title>
<path fill="none" stroke="grey" stroke-width="2" d="M216,-1151.7C216,-1143.98 216,-1134.71 216,-1126.11"/>
<polygon fill="grey" stroke="grey" stroke-width="2" points="219.5,-1126.1 216,-1116.1 212.5,-1126.1 219.5,-1126.1"/>
</g>
<!-- 5 -->
<g id="node6" class="node">
<title>5</title>
<path fill="none" stroke="#56c1d8" stroke-width="2" d="M234,-1260C234,-1260 204,-1260 204,-1260 198,-1260 192,-1254 192,-1248 192,-1248 192,-1236 192,-1236 192,-1230 198,-1224 204,-1224 204,-1224 234,-1224 234,-1224 240,-1224 246,-1230 246,-1236 246,-1236 246,-1248 246,-1248 246,-1254 240,-1260 234,-1260"/>
<text text-anchor="middle" x="219" y="-1239.5" font-family="sans" font-size="10.00">correct1</text>
</g>
<!-- 5&#45;&gt;4 -->
<g id="edge9" class="edge">
<title>5&#45;&gt;4</title>
<path fill="none" stroke="grey" stroke-width="2" d="M218.26,-1223.7C217.93,-1215.98 217.53,-1206.71 217.16,-1198.11"/>
<polygon fill="grey" stroke="grey" stroke-width="2" points="220.66,-1197.95 216.73,-1188.1 213.66,-1198.25 220.66,-1197.95"/>
</g>
<!-- 6 -->
<g id="node7" class="node">
<title>6</title>
<path fill="none" stroke="#d89c56" stroke-width="2" d="M250,-1332C250,-1332 220,-1332 220,-1332 214,-1332 208,-1326 208,-1320 208,-1320 208,-1308 208,-1308 208,-1302 214,-1296 220,-1296 220,-1296 250,-1296 250,-1296 256,-1296 262,-1302 262,-1308 262,-1308 262,-1320 262,-1320 262,-1326 256,-1332 250,-1332"/>
<text text-anchor="middle" x="235" y="-1311.5" font-family="sans" font-size="10.00">filter</text>
</g>
<!-- 6&#45;&gt;5 -->
<g id="edge10" class="edge">
<title>6&#45;&gt;5</title>
<path fill="none" stroke="grey" stroke-width="2" d="M231.04,-1295.7C229.28,-1287.98 227.16,-1278.71 225.2,-1270.11"/>
<polygon fill="grey" stroke="grey" stroke-width="2" points="228.55,-1269.07 222.91,-1260.1 221.73,-1270.63 228.55,-1269.07"/>
</g>
<!-- 7 -->
<g id="node8" class="node">
<title>7</title>
<path fill="none" stroke="#80d856" stroke-width="2" d="M263,-1404C263,-1404 233,-1404 233,-1404 227,-1404 221,-1398 221,-1392 221,-1392 221,-1380 221,-1380 221,-1374 227,-1368 233,-1368 233,-1368 263,-1368 263,-1368 269,-1368 275,-1374 275,-1380 275,-1380 275,-1392 275,-1392 275,-1398 269,-1404 263,-1404"/>
<text text-anchor="middle" x="248" y="-1383.5" font-family="sans" font-size="10.00">trim</text>
</g>
<!-- 7&#45;&gt;6 -->
<g id="edge11" class="edge">
<title>7&#45;&gt;6</title>
<path fill="none" stroke="grey" stroke-width="2" d="M244.79,-1367.7C243.35,-1359.98 241.63,-1350.71 240.04,-1342.11"/>
<polygon fill="grey" stroke="grey" stroke-width="2" points="243.44,-1341.3 238.18,-1332.1 236.56,-1342.58 243.44,-1341.3"/>
</g>
<!-- 8 -->
<g id="node9" class="node">
<title>8</title>
<path fill="none" stroke="#56a2d8" stroke-width="2" d="M321.5,-1481C321.5,-1481 284.5,-1481 284.5,-1481 278.5,-1481 272.5,-1475 272.5,-1469 272.5,-1469 272.5,-1452 272.5,-1452 272.5,-1446 278.5,-1440 284.5,-1440 284.5,-1440 321.5,-1440 321.5,-1440 327.5,-1440 333.5,-1446 333.5,-1452 333.5,-1452 333.5,-1469 333.5,-1469 333.5,-1475 327.5,-1481 321.5,-1481"/>
<text text-anchor="middle" x="303" y="-1469" font-family="sans" font-size="10.00">reformat</text>
<text text-anchor="middle" x="303" y="-1458" font-family="sans" font-size="10.00">run: A1</text>
<text text-anchor="middle" x="303" y="-1447" font-family="sans" font-size="10.00">sample: A</text>
</g>
<!-- 8&#45;&gt;7 -->
<g id="edge12" class="edge">
<title>8&#45;&gt;7</title>
<path fill="none" stroke="grey" stroke-width="2" d="M287.97,-1439.69C281.61,-1431.3 274.11,-1421.42 267.35,-1412.5"/>
<polygon fill="grey" stroke="grey" stroke-width="2" points="269.97,-1410.17 261.14,-1404.32 264.39,-1414.4 269.97,-1410.17"/>
</g>
<!-- 25 -->
<g id="node26" class="node">
<title>25</title>
<path fill="none" stroke="#d86656" stroke-width="2" d="M328,-1260C328,-1260 278,-1260 278,-1260 272,-1260 266,-1254 266,-1248 266,-1248 266,-1236 266,-1236 266,-1230 272,-1224 278,-1224 278,-1224 328,-1224 328,-1224 334,-1224 340,-1230 340,-1236 340,-1236 340,-1248 340,-1248 340,-1254 334,-1260 328,-1260"/>
<text text-anchor="middle" x="303" y="-1239.5" font-family="sans" font-size="10.00">fastq_screen</text>
</g>
<!-- 8&#45;&gt;25 -->
<g id="edge35" class="edge">
<title>8&#45;&gt;25</title>
<path fill="none" stroke="grey" stroke-width="2" d="M303,-1439.91C303,-1401.15 303,-1314.64 303,-1270.32"/>
<polygon fill="grey" stroke="grey" stroke-width="2" points="306.5,-1270.27 303,-1260.27 299.5,-1270.27 306.5,-1270.27"/>
</g>
<!-- 26 -->
<g id="node27" class="node">
<title>26</title>
<path fill="none" stroke="#56d85b" stroke-width="2" d="M378,-1332C378,-1332 348,-1332 348,-1332 342,-1332 336,-1326 336,-1320 336,-1320 336,-1308 336,-1308 336,-1302 342,-1296 348,-1296 348,-1296 378,-1296 378,-1296 384,-1296 390,-1302 390,-1308 390,-1308 390,-1320 390,-1320 390,-1326 384,-1332 378,-1332"/>
<text text-anchor="middle" x="363" y="-1311.5" font-family="sans" font-size="10.00">fastqc</text>
</g>
<!-- 8&#45;&gt;26 -->
<g id="edge36" class="edge">
<title>8&#45;&gt;26</title>
<path fill="none" stroke="grey" stroke-width="2" d="M311.22,-1439.71C321.78,-1414.27 340.17,-1369.99 351.95,-1341.61"/>
<polygon fill="grey" stroke="grey" stroke-width="2" points="355.22,-1342.87 355.82,-1332.3 348.75,-1340.19 355.22,-1342.87"/>
</g>
<!-- 9 -->
<g id="node10" class="node">
<title>9</title>
<path fill="none" stroke="#56d8b9" stroke-width="2" d="M174,-324C174,-324 144,-324 144,-324 138,-324 132,-318 132,-312 132,-312 132,-300 132,-300 132,-294 138,-288 144,-288 144,-288 174,-288 174,-288 180,-288 186,-294 186,-300 186,-300 186,-312 186,-312 186,-318 180,-324 174,-324"/>
<text text-anchor="middle" x="159" y="-303.5" font-family="sans" font-size="10.00">vcffilter</text>
</g>
<!-- 9&#45;&gt;3 -->
<g id="edge8" class="edge">
<title>9&#45;&gt;3</title>
<path fill="none" stroke="grey" stroke-width="2" d="M140.71,-287.7C131.57,-279.05 120.36,-268.45 110.4,-259.03"/>
<polygon fill="grey" stroke="grey" stroke-width="2" points="112.75,-256.43 103.08,-252.1 107.94,-261.52 112.75,-256.43"/>
</g>
<!-- 23 -->
<g id="node24" class="node">
<title>23</title>
<path fill="none" stroke="#61d856" stroke-width="2" d="M202,-252C202,-252 172,-252 172,-252 166,-252 160,-246 160,-240 160,-240 160,-228 160,-228 160,-222 166,-216 172,-216 172,-216 202,-216 202,-216 208,-216 214,-222 214,-228 214,-228 214,-240 214,-240 214,-246 208,-252 202,-252"/>
<text text-anchor="middle" x="187" y="-231.5" font-family="sans" font-size="10.00">snpeff</text>
</g>
<!-- 9&#45;&gt;23 -->
<g id="edge30" class="edge">
<title>9&#45;&gt;23</title>
<path fill="none" stroke="grey" stroke-width="2" d="M165.92,-287.7C169.07,-279.81 172.88,-270.3 176.38,-261.55"/>
<polygon fill="grey" stroke="grey" stroke-width="2" points="179.69,-262.69 180.16,-252.1 173.19,-260.09 179.69,-262.69"/>
</g>
<!-- 10 -->
<g id="node11" class="node">
<title>10</title>
<path fill="none" stroke="#a7d856" stroke-width="2" d="M174,-396C174,-396 144,-396 144,-396 138,-396 132,-390 132,-384 132,-384 132,-372 132,-372 132,-366 138,-360 144,-360 144,-360 174,-360 174,-360 180,-360 186,-366 186,-372 186,-372 186,-384 186,-384 186,-390 180,-396 174,-396"/>
<text text-anchor="middle" x="159" y="-375.5" font-family="sans" font-size="10.00">lofreq</text>
</g>
<!-- 10&#45;&gt;9 -->
<g id="edge13" class="edge">
<title>10&#45;&gt;9</title>
<path fill="none" stroke="grey" stroke-width="2" d="M159,-359.7C159,-351.98 159,-342.71 159,-334.11"/>
<polygon fill="grey" stroke="grey" stroke-width="2" points="162.5,-334.1 159,-324.1 155.5,-334.1 162.5,-334.1"/>
</g>
<!-- 11 -->
<g id="node12" class="node">
<title>11</title>
<path fill="none" stroke="#d85656" stroke-width="2" d="M175.5,-468C175.5,-468 142.5,-468 142.5,-468 136.5,-468 130.5,-462 130.5,-456 130.5,-456 130.5,-444 130.5,-444 130.5,-438 136.5,-432 142.5,-432 142.5,-432 175.5,-432 175.5,-432 181.5,-432 187.5,-438 187.5,-444 187.5,-444 187.5,-456 187.5,-456 187.5,-462 181.5,-468 175.5,-468"/>
<text text-anchor="middle" x="159" y="-447.5" font-family="sans" font-size="10.00">indelqual</text>
</g>
<!-- 11&#45;&gt;10 -->
<g id="edge14" class="edge">
<title>11&#45;&gt;10</title>
<path fill="none" stroke="grey" stroke-width="2" d="M159,-431.7C159,-423.98 159,-414.71 159,-406.11"/>
<polygon fill="grey" stroke="grey" stroke-width="2" points="162.5,-406.1 159,-396.1 155.5,-406.1 162.5,-406.1"/>
</g>
<!-- 12 -->
<g id="node13" class="node">
<title>12</title>
<path fill="none" stroke="#566bd8" stroke-width="2" d="M177,-540C177,-540 141,-540 141,-540 135,-540 129,-534 129,-528 129,-528 129,-516 129,-516 129,-510 135,-504 141,-504 141,-504 177,-504 177,-504 183,-504 189,-510 189,-516 189,-516 189,-528 189,-528 189,-534 183,-540 177,-540"/>
<text text-anchor="middle" x="159" y="-519.5" font-family="sans" font-size="10.00">applybqsr</text>
</g>
<!-- 12&#45;&gt;11 -->
<g id="edge15" class="edge">
<title>12&#45;&gt;11</title>
<path fill="none" stroke="grey" stroke-width="2" d="M159,-503.7C159,-495.98 159,-486.71 159,-478.11"/>
<polygon fill="grey" stroke="grey" stroke-width="2" points="162.5,-478.1 159,-468.1 155.5,-478.1 162.5,-478.1"/>
</g>
<!-- 13 -->
<g id="node14" class="node">
<title>13</title>
<path fill="none" stroke="#56b1d8" stroke-width="2" d="M160,-828C160,-828 122,-828 122,-828 116,-828 110,-822 110,-816 110,-816 110,-804 110,-804 110,-798 116,-792 122,-792 122,-792 160,-792 160,-792 166,-792 172,-798 172,-804 172,-804 172,-816 172,-816 172,-822 166,-828 160,-828"/>
<text text-anchor="middle" x="141" y="-807.5" font-family="sans" font-size="10.00">indelqual1</text>
</g>
<!-- 13&#45;&gt;12 -->
<g id="edge16" class="edge">
<title>13&#45;&gt;12</title>
<path fill="none" stroke="grey" stroke-width="2" d="M156.32,-791.68C164,-781.91 172.58,-769.07 177,-756 202.65,-680.14 203.1,-654.01 185,-576 182.9,-566.96 179.03,-557.68 174.91,-549.47"/>
<polygon fill="grey" stroke="grey" stroke-width="2" points="177.86,-547.55 170.05,-540.39 171.69,-550.86 177.86,-547.55"/>
</g>
<!-- 18 -->
<g id="node19" class="node">
<title>18</title>
<path fill="none" stroke="#d8d356" stroke-width="2" d="M164.5,-612C164.5,-612 75.5,-612 75.5,-612 69.5,-612 63.5,-606 63.5,-600 63.5,-600 63.5,-588 63.5,-588 63.5,-582 69.5,-576 75.5,-576 75.5,-576 164.5,-576 164.5,-576 170.5,-576 176.5,-582 176.5,-588 176.5,-588 176.5,-600 176.5,-600 176.5,-606 170.5,-612 164.5,-612"/>
<text text-anchor="middle" x="120" y="-591.5" font-family="sans" font-size="10.00">gatk_baserecalibrator</text>
</g>
<!-- 13&#45;&gt;18 -->
<g id="edge23" class="edge">
<title>13&#45;&gt;18</title>
<path fill="none" stroke="grey" stroke-width="2" d="M124.37,-791.75C103.86,-769.16 70.11,-727.29 57,-684 52.36,-668.69 50.25,-662.51 57,-648 62.43,-636.34 71.82,-626.34 81.72,-618.26"/>
<polygon fill="grey" stroke="grey" stroke-width="2" points="83.85,-621.03 89.7,-612.2 79.62,-615.45 83.85,-621.03"/>
</g>
<!-- 19 -->
<g id="node20" class="node">
<title>19</title>
<path fill="none" stroke="#b6d856" stroke-width="2" d="M156,-756C156,-756 126,-756 126,-756 120,-756 114,-750 114,-744 114,-744 114,-732 114,-732 114,-726 120,-720 126,-720 126,-720 156,-720 156,-720 162,-720 168,-726 168,-732 168,-732 168,-744 168,-744 168,-750 162,-756 156,-756"/>
<text text-anchor="middle" x="141" y="-735.5" font-family="sans" font-size="10.00">lofreq1</text>
</g>
<!-- 13&#45;&gt;19 -->
<g id="edge26" class="edge">
<title>13&#45;&gt;19</title>
<path fill="none" stroke="grey" stroke-width="2" d="M141,-791.7C141,-783.98 141,-774.71 141,-766.11"/>
<polygon fill="grey" stroke="grey" stroke-width="2" points="144.5,-766.1 141,-756.1 137.5,-766.1 144.5,-766.1"/>
</g>
<!-- 14 -->
<g id="node15" class="node">
<title>14</title>
<path fill="none" stroke="#ced856" stroke-width="2" d="M173.5,-900C173.5,-900 108.5,-900 108.5,-900 102.5,-900 96.5,-894 96.5,-888 96.5,-888 96.5,-876 96.5,-876 96.5,-870 102.5,-864 108.5,-864 108.5,-864 173.5,-864 173.5,-864 179.5,-864 185.5,-870 185.5,-876 185.5,-876 185.5,-888 185.5,-888 185.5,-894 179.5,-900 173.5,-900"/>
<text text-anchor="middle" x="141" y="-879.5" font-family="sans" font-size="10.00">mark_duplicates</text>
</g>
<!-- 14&#45;&gt;13 -->
<g id="edge18" class="edge">
<title>14&#45;&gt;13</title>
<path fill="none" stroke="grey" stroke-width="2" d="M141,-863.7C141,-855.98 141,-846.71 141,-838.11"/>
<polygon fill="grey" stroke="grey" stroke-width="2" points="144.5,-838.1 141,-828.1 137.5,-838.1 144.5,-838.1"/>
</g>
<!-- 15 -->
<g id="node16" class="node">
<title>15</title>
<path fill="none" stroke="#56d882" stroke-width="2" d="M168.5,-972C168.5,-972 113.5,-972 113.5,-972 107.5,-972 101.5,-966 101.5,-960 101.5,-960 101.5,-948 101.5,-948 101.5,-942 107.5,-936 113.5,-936 113.5,-936 168.5,-936 168.5,-936 174.5,-936 180.5,-942 180.5,-948 180.5,-948 180.5,-960 180.5,-960 180.5,-966 174.5,-972 168.5,-972"/>
<text text-anchor="middle" x="141" y="-951.5" font-family="sans" font-size="10.00">samtools_sort</text>
</g>
<!-- 15&#45;&gt;14 -->
<g id="edge19" class="edge">
<title>15&#45;&gt;14</title>
<path fill="none" stroke="grey" stroke-width="2" d="M141,-935.7C141,-927.98 141,-918.71 141,-910.11"/>
<polygon fill="grey" stroke="grey" stroke-width="2" points="144.5,-910.1 141,-900.1 137.5,-910.1 144.5,-910.1"/>
</g>
<!-- 16 -->
<g id="node17" class="node">
<title>16</title>
<path fill="none" stroke="#567bd8" stroke-width="2" d="M176,-1044C176,-1044 106,-1044 106,-1044 100,-1044 94,-1038 94,-1032 94,-1032 94,-1020 94,-1020 94,-1014 100,-1008 106,-1008 106,-1008 176,-1008 176,-1008 182,-1008 188,-1014 188,-1020 188,-1020 188,-1032 188,-1032 188,-1038 182,-1044 176,-1044"/>
<text text-anchor="middle" x="141" y="-1023.5" font-family="sans" font-size="10.00">samtools_fixmate</text>
</g>
<!-- 16&#45;&gt;15 -->
<g id="edge20" class="edge">
<title>16&#45;&gt;15</title>
<path fill="none" stroke="grey" stroke-width="2" d="M141,-1007.7C141,-999.98 141,-990.71 141,-982.11"/>
<polygon fill="grey" stroke="grey" stroke-width="2" points="144.5,-982.1 141,-972.1 137.5,-982.1 144.5,-982.1"/>
</g>
<!-- 17&#45;&gt;16 -->
<g id="edge21" class="edge">
<title>17&#45;&gt;16</title>
<path fill="none" stroke="grey" stroke-width="2" d="M197.46,-1079.7C188.2,-1071.05 176.84,-1060.45 166.74,-1051.03"/>
<polygon fill="grey" stroke="grey" stroke-width="2" points="169.02,-1048.37 159.33,-1044.1 164.25,-1053.49 169.02,-1048.37"/>
</g>
<!-- 27 -->
<g id="node28" class="node">
<title>27</title>
<path fill="none" stroke="#56d892" stroke-width="2" d="M289.5,-972C289.5,-972 256.5,-972 256.5,-972 250.5,-972 244.5,-966 244.5,-960 244.5,-960 244.5,-948 244.5,-948 244.5,-942 250.5,-936 256.5,-936 256.5,-936 289.5,-936 289.5,-936 295.5,-936 301.5,-942 301.5,-948 301.5,-948 301.5,-960 301.5,-960 301.5,-966 295.5,-972 289.5,-972"/>
<text text-anchor="middle" x="273" y="-951.5" font-family="sans" font-size="10.00">bamstats</text>
</g>
<!-- 17&#45;&gt;27 -->
<g id="edge37" class="edge">
<title>17&#45;&gt;27</title>
<path fill="none" stroke="grey" stroke-width="2" d="M222.88,-1079.87C232.68,-1055.46 250.75,-1010.43 262.31,-981.64"/>
<polygon fill="grey" stroke="grey" stroke-width="2" points="265.62,-982.77 266.1,-972.19 259.13,-980.17 265.62,-982.77"/>
</g>
<!-- 28 -->
<g id="node29" class="node">
<title>28</title>
<path fill="none" stroke="#568ad8" stroke-width="2" d="M249,-900C249,-900 219,-900 219,-900 213,-900 207,-894 207,-888 207,-888 207,-876 207,-876 207,-870 213,-864 219,-864 219,-864 249,-864 249,-864 255,-864 261,-870 261,-876 261,-876 261,-888 261,-888 261,-894 255,-900 249,-900"/>
<text text-anchor="middle" x="234" y="-879.5" font-family="sans" font-size="10.00">pileup</text>
</g>
<!-- 17&#45;&gt;28 -->
<g id="edge38" class="edge">
<title>17&#45;&gt;28</title>
<path fill="none" stroke="grey" stroke-width="2" d="M217.44,-1079.85C220.56,-1042.83 227.93,-955.18 231.7,-910.39"/>
<polygon fill="grey" stroke="grey" stroke-width="2" points="235.2,-910.49 232.55,-900.23 228.22,-909.9 235.2,-910.49"/>
</g>
<!-- 18&#45;&gt;12 -->
<g id="edge17" class="edge">
<title>18&#45;&gt;12</title>
<path fill="none" stroke="grey" stroke-width="2" d="M129.64,-575.7C134.13,-567.64 139.56,-557.89 144.52,-548.98"/>
<polygon fill="grey" stroke="grey" stroke-width="2" points="147.66,-550.54 149.47,-540.1 141.55,-547.14 147.66,-550.54"/>
</g>
<!-- 19&#45;&gt;18 -->
<g id="edge24" class="edge">
<title>19&#45;&gt;18</title>
<path fill="none" stroke="grey" stroke-width="2" d="M149.57,-719.96C157.53,-701.82 167.01,-672.41 159,-648 155.69,-637.91 149.63,-628.15 143.27,-619.82"/>
<polygon fill="grey" stroke="grey" stroke-width="2" points="145.92,-617.54 136.89,-612.01 140.5,-621.97 145.92,-617.54"/>
</g>
<!-- 20 -->
<g id="node21" class="node">
<title>20</title>
<path fill="none" stroke="#d88d56" stroke-width="2" d="M138,-684C138,-684 78,-684 78,-684 72,-684 66,-678 66,-672 66,-672 66,-660 66,-660 66,-654 72,-648 78,-648 78,-648 138,-648 138,-648 144,-648 150,-654 150,-660 150,-660 150,-672 150,-672 150,-678 144,-684 138,-684"/>
<text text-anchor="middle" x="108" y="-663.5" font-family="sans" font-size="10.00">indexfeaturefile</text>
</g>
<!-- 19&#45;&gt;20 -->
<g id="edge27" class="edge">
<title>19&#45;&gt;20</title>
<path fill="none" stroke="grey" stroke-width="2" d="M132.84,-719.7C129.09,-711.73 124.55,-702.1 120.38,-693.26"/>
<polygon fill="grey" stroke="grey" stroke-width="2" points="123.49,-691.66 116.06,-684.1 117.16,-694.64 123.49,-691.66"/>
</g>
<!-- 20&#45;&gt;18 -->
<g id="edge25" class="edge">
<title>20&#45;&gt;18</title>
<path fill="none" stroke="grey" stroke-width="2" d="M110.97,-647.7C112.29,-639.98 113.88,-630.71 115.35,-622.11"/>
<polygon fill="grey" stroke="grey" stroke-width="2" points="118.83,-622.55 117.07,-612.1 111.93,-621.37 118.83,-622.55"/>
</g>
<!-- 21 -->
<g id="node22" class="node">
<title>21</title>
<path fill="none" stroke="#56d8a9" stroke-width="2" d="M213.5,-108C213.5,-108 160.5,-108 160.5,-108 154.5,-108 148.5,-102 148.5,-96 148.5,-96 148.5,-84 148.5,-84 148.5,-78 154.5,-72 160.5,-72 160.5,-72 213.5,-72 213.5,-72 219.5,-72 225.5,-78 225.5,-84 225.5,-84 225.5,-96 225.5,-96 225.5,-102 219.5,-108 213.5,-108"/>
<text text-anchor="middle" x="187" y="-87.5" font-family="sans" font-size="10.00">merge_tables</text>
</g>
<!-- 21&#45;&gt;0 -->
<g id="edge2" class="edge">
<title>21&#45;&gt;0</title>
<path fill="none" stroke="grey" stroke-width="2" d="M195.16,-71.7C198.91,-63.73 203.45,-54.1 207.62,-45.26"/>
<polygon fill="grey" stroke="grey" stroke-width="2" points="210.84,-46.64 211.94,-36.1 204.51,-43.66 210.84,-46.64"/>
</g>
<!-- 22 -->
<g id="node23" class="node">
<title>22</title>
<path fill="none" stroke="#d87d56" stroke-width="2" d="M202,-180C202,-180 172,-180 172,-180 166,-180 160,-174 160,-168 160,-168 160,-156 160,-156 160,-150 166,-144 172,-144 172,-144 202,-144 202,-144 208,-144 214,-150 214,-156 214,-156 214,-168 214,-168 214,-174 208,-180 202,-180"/>
<text text-anchor="middle" x="187" y="-159.5" font-family="sans" font-size="10.00">snpsift</text>
</g>
<!-- 22&#45;&gt;21 -->
<g id="edge28" class="edge">
<title>22&#45;&gt;21</title>
<path fill="none" stroke="grey" stroke-width="2" d="M187,-143.7C187,-135.98 187,-126.71 187,-118.11"/>
<polygon fill="grey" stroke="grey" stroke-width="2" points="190.5,-118.1 187,-108.1 183.5,-118.1 190.5,-118.1"/>
</g>
<!-- 23&#45;&gt;22 -->
<g id="edge29" class="edge">
<title>23&#45;&gt;22</title>
<path fill="none" stroke="grey" stroke-width="2" d="M187,-215.7C187,-207.98 187,-198.71 187,-190.11"/>
<polygon fill="grey" stroke="grey" stroke-width="2" points="190.5,-190.1 187,-180.1 183.5,-190.1 190.5,-190.1"/>
</g>
<!-- 24 -->
<g id="node25" class="node">
<title>24</title>
<path fill="none" stroke="#56d8c9" stroke-width="2" d="M324,-180C324,-180 294,-180 294,-180 288,-180 282,-174 282,-168 282,-168 282,-156 282,-156 282,-150 288,-144 294,-144 294,-144 324,-144 324,-144 330,-144 336,-150 336,-156 336,-156 336,-168 336,-168 336,-174 330,-180 324,-180"/>
<text text-anchor="middle" x="309" y="-159.5" font-family="sans" font-size="10.00">multiqc</text>
</g>
<!-- 23&#45;&gt;24 -->
<g id="edge33" class="edge">
<title>23&#45;&gt;24</title>
<path fill="none" stroke="grey" stroke-width="2" d="M214.08,-217.46C231.45,-207.5 254.21,-194.44 273.09,-183.61"/>
<polygon fill="grey" stroke="grey" stroke-width="2" points="275.07,-186.5 282,-178.49 271.58,-180.43 275.07,-186.5"/>
</g>
<!-- 24&#45;&gt;0 -->
<g id="edge3" class="edge">
<title>24&#45;&gt;0</title>
<path fill="none" stroke="grey" stroke-width="2" d="M302.88,-143.8C295.88,-125.26 283.38,-95.28 268,-72 261.4,-62.01 252.96,-52.02 245,-43.45"/>
<polygon fill="grey" stroke="grey" stroke-width="2" points="247.33,-40.83 237.89,-36.02 242.28,-45.67 247.33,-40.83"/>
</g>
<!-- 25&#45;&gt;24 -->
<g id="edge31" class="edge">
<title>25&#45;&gt;24</title>
<path fill="none" stroke="grey" stroke-width="2" d="M308.46,-1223.71C316.35,-1197.18 330,-1144.67 330,-1099 330,-1099 330,-1099 330,-305 330,-264.78 321.65,-218.84 315.49,-190.37"/>
<polygon fill="grey" stroke="grey" stroke-width="2" points="318.85,-189.36 313.25,-180.37 312.01,-190.89 318.85,-189.36"/>
</g>
<!-- 26&#45;&gt;24 -->
<g id="edge32" class="edge">
<title>26&#45;&gt;24</title>
<path fill="none" stroke="grey" stroke-width="2" d="M363.99,-1295.96C365.44,-1269.31 368,-1216.14 368,-1171 368,-1171 368,-1171 368,-305 368,-261.83 344.46,-216.53 327.11,-189.03"/>
<polygon fill="grey" stroke="grey" stroke-width="2" points="329.9,-186.89 321.51,-180.41 324.03,-190.7 329.9,-186.89"/>
</g>
<!-- 27&#45;&gt;24 -->
<g id="edge34" class="edge">
<title>27&#45;&gt;24</title>
<path fill="none" stroke="grey" stroke-width="2" d="M276.84,-935.61C282.4,-908.94 292,-856.27 292,-811 292,-811 292,-811 292,-305 292,-264.93 298.76,-218.95 303.75,-190.43"/>
<polygon fill="grey" stroke="grey" stroke-width="2" points="307.23,-190.87 305.56,-180.41 300.34,-189.63 307.23,-190.87"/>
</g>
<!-- 28&#45;&gt;0 -->
<g id="edge4" class="edge">
<title>28&#45;&gt;0</title>
<path fill="none" stroke="grey" stroke-width="2" d="M238.05,-863.62C243.89,-836.97 254,-784.31 254,-739 254,-739 254,-739 254,-161 254,-119.91 240.37,-73.92 230.37,-45.72"/>
<polygon fill="grey" stroke="grey" stroke-width="2" points="233.6,-44.36 226.88,-36.17 227.03,-46.76 233.6,-44.36"/>
</g>
</g>
</svg>
