<?xml version="1.0" encoding="UTF-8" standalone="no"?>
<!DOCTYPE svg PUBLIC "-//W3C//DTD SVG 1.1//EN"
 "http://www.w3.org/Graphics/SVG/1.1/DTD/svg11.dtd">
<!-- Generated by graphviz version 2.42.3 (20191010.1750)
 -->
<!-- Title: snakemake_dag Pages: 1 -->
<svg width="442pt" height="1417pt"
 viewBox="0.00 0.00 442.00 1417.00" xmlns="http://www.w3.org/2000/svg" xmlns:xlink="http://www.w3.org/1999/xlink">
<g id="graph0" class="graph" transform="scale(1 1) rotate(0) translate(4 1413)">
<title>snakemake_dag</title>
<polygon fill="white" stroke="transparent" points="-4,4 -4,-1413 438,-1413 438,4 -4,4"/>
<!-- 0 -->
<g id="node1" class="node">
<title>0</title>
<path fill="none" stroke="#56d8d0" stroke-width="2" d="M188,-36C188,-36 158,-36 158,-36 152,-36 146,-30 146,-24 146,-24 146,-12 146,-12 146,-6 152,0 158,0 158,0 188,0 188,0 194,0 200,-6 200,-12 200,-12 200,-24 200,-24 200,-30 194,-36 188,-36"/>
<text text-anchor="middle" x="173" y="-15.5" font-family="sans" font-size="10.00">all</text>
</g>
<!-- 1 -->
<g id="node2" class="node">
<title>1</title>
<path fill="none" stroke="#56c9d8" stroke-width="2" stroke-dasharray="5,2" d="M240.5,-108C240.5,-108 187.5,-108 187.5,-108 181.5,-108 175.5,-102 175.5,-96 175.5,-96 175.5,-84 175.5,-84 175.5,-78 181.5,-72 187.5,-72 187.5,-72 240.5,-72 240.5,-72 246.5,-72 252.5,-78 252.5,-84 252.5,-84 252.5,-96 252.5,-96 252.5,-102 246.5,-108 240.5,-108"/>
<text text-anchor="middle" x="214" y="-87.5" font-family="sans" font-size="10.00">merge_tables</text>
</g>
<!-- 1&#45;&gt;0 -->
<g id="edge1" class="edge">
<title>1&#45;&gt;0</title>
<path fill="none" stroke="grey" stroke-width="2" d="M203.87,-71.7C199.15,-63.64 193.44,-53.89 188.22,-44.98"/>
<polygon fill="grey" stroke="grey" stroke-width="2" points="191.09,-42.96 183.02,-36.1 185.05,-46.5 191.09,-42.96"/>
</g>
<!-- 2 -->
<g id="node3" class="node">
<title>2</title>
<path fill="none" stroke="#d88d56" stroke-width="2" stroke-dasharray="5,2" d="M237,-180C237,-180 207,-180 207,-180 201,-180 195,-174 195,-168 195,-168 195,-156 195,-156 195,-150 201,-144 207,-144 207,-144 237,-144 237,-144 243,-144 249,-150 249,-156 249,-156 249,-168 249,-168 249,-174 243,-180 237,-180"/>
<text text-anchor="middle" x="222" y="-159.5" font-family="sans" font-size="10.00">snpsift</text>
</g>
<!-- 2&#45;&gt;1 -->
<g id="edge5" class="edge">
<title>2&#45;&gt;1</title>
<path fill="none" stroke="grey" stroke-width="2" d="M220.02,-143.7C219.14,-135.98 218.08,-126.71 217.1,-118.11"/>
<polygon fill="grey" stroke="grey" stroke-width="2" points="220.57,-117.64 215.95,-108.1 213.61,-118.44 220.57,-117.64"/>
</g>
<!-- 3 -->
<g id="node4" class="node">
<title>3</title>
<path fill="none" stroke="#56d873" stroke-width="2" stroke-dasharray="5,2" d="M237,-252C237,-252 207,-252 207,-252 201,-252 195,-246 195,-240 195,-240 195,-228 195,-228 195,-222 201,-216 207,-216 207,-216 237,-216 237,-216 243,-216 249,-222 249,-228 249,-228 249,-240 249,-240 249,-246 243,-252 237,-252"/>
<text text-anchor="middle" x="222" y="-231.5" font-family="sans" font-size="10.00">snpeff</text>
</g>
<!-- 3&#45;&gt;2 -->
<g id="edge6" class="edge">
<title>3&#45;&gt;2</title>
<path fill="none" stroke="grey" stroke-width="2" d="M222,-215.7C222,-207.98 222,-198.71 222,-190.11"/>
<polygon fill="grey" stroke="grey" stroke-width="2" points="225.5,-190.1 222,-180.1 218.5,-190.1 225.5,-190.1"/>
</g>
<!-- 20 -->
<g id="node21" class="node">
<title>20</title>
<path fill="none" stroke="#d8b456" stroke-width="2" stroke-dasharray="5,2" d="M351,-180C351,-180 321,-180 321,-180 315,-180 309,-174 309,-168 309,-168 309,-156 309,-156 309,-150 315,-144 321,-144 321,-144 351,-144 351,-144 357,-144 363,-150 363,-156 363,-156 363,-168 363,-168 363,-174 357,-180 351,-180"/>
<text text-anchor="middle" x="336" y="-159.5" font-family="sans" font-size="10.00">multiqc</text>
</g>
<!-- 3&#45;&gt;20 -->
<g id="edge28" class="edge">
<title>3&#45;&gt;20</title>
<path fill="none" stroke="grey" stroke-width="2" d="M249.02,-216.41C264.24,-207.06 283.45,-195.27 299.94,-185.14"/>
<polygon fill="grey" stroke="grey" stroke-width="2" points="302.09,-187.93 308.78,-179.71 298.43,-181.96 302.09,-187.93"/>
</g>
<!-- 4 -->
<g id="node5" class="node">
<title>4</title>
<path fill="none" stroke="#566bd8" stroke-width="2" stroke-dasharray="5,2" d="M221,-324C221,-324 191,-324 191,-324 185,-324 179,-318 179,-312 179,-312 179,-300 179,-300 179,-294 185,-288 191,-288 191,-288 221,-288 221,-288 227,-288 233,-294 233,-300 233,-300 233,-312 233,-312 233,-318 227,-324 221,-324"/>
<text text-anchor="middle" x="206" y="-303.5" font-family="sans" font-size="10.00">lofreq</text>
</g>
<!-- 4&#45;&gt;3 -->
<g id="edge7" class="edge">
<title>4&#45;&gt;3</title>
<path fill="none" stroke="grey" stroke-width="2" d="M209.96,-287.7C211.72,-279.98 213.84,-270.71 215.8,-262.11"/>
<polygon fill="grey" stroke="grey" stroke-width="2" points="219.27,-262.63 218.09,-252.1 212.45,-261.07 219.27,-262.63"/>
</g>
<!-- 26 -->
<g id="node27" class="node">
<title>26</title>
<path fill="none" stroke="#56d88a" stroke-width="2" stroke-dasharray="5,2" d="M158,-252C158,-252 128,-252 128,-252 122,-252 116,-246 116,-240 116,-240 116,-228 116,-228 116,-222 122,-216 128,-216 128,-216 158,-216 158,-216 164,-216 170,-222 170,-228 170,-228 170,-240 170,-240 170,-246 164,-252 158,-252"/>
<text text-anchor="middle" x="143" y="-231.5" font-family="sans" font-size="10.00">vcffilter</text>
</g>
<!-- 4&#45;&gt;26 -->
<g id="edge36" class="edge">
<title>4&#45;&gt;26</title>
<path fill="none" stroke="grey" stroke-width="2" d="M190.43,-287.7C182.8,-279.22 173.48,-268.86 165.12,-259.58"/>
<polygon fill="grey" stroke="grey" stroke-width="2" points="167.69,-257.2 158.39,-252.1 162.48,-261.88 167.69,-257.2"/>
</g>
<!-- 5 -->
<g id="node6" class="node">
<title>5</title>
<path fill="none" stroke="#5692d8" stroke-width="2" stroke-dasharray="5,2" d="M222.5,-396C222.5,-396 189.5,-396 189.5,-396 183.5,-396 177.5,-390 177.5,-384 177.5,-384 177.5,-372 177.5,-372 177.5,-366 183.5,-360 189.5,-360 189.5,-360 222.5,-360 222.5,-360 228.5,-360 234.5,-366 234.5,-372 234.5,-372 234.5,-384 234.5,-384 234.5,-390 228.5,-396 222.5,-396"/>
<text text-anchor="middle" x="206" y="-375.5" font-family="sans" font-size="10.00">indelqual</text>
</g>
<!-- 5&#45;&gt;4 -->
<g id="edge8" class="edge">
<title>5&#45;&gt;4</title>
<path fill="none" stroke="grey" stroke-width="2" d="M206,-359.7C206,-351.98 206,-342.71 206,-334.11"/>
<polygon fill="grey" stroke="grey" stroke-width="2" points="209.5,-334.1 206,-324.1 202.5,-334.1 209.5,-334.1"/>
</g>
<!-- 6 -->
<g id="node7" class="node">
<title>6</title>
<path fill="none" stroke="#d87d56" stroke-width="2" stroke-dasharray="5,2" d="M224,-468C224,-468 188,-468 188,-468 182,-468 176,-462 176,-456 176,-456 176,-444 176,-444 176,-438 182,-432 188,-432 188,-432 224,-432 224,-432 230,-432 236,-438 236,-444 236,-444 236,-456 236,-456 236,-462 230,-468 224,-468"/>
<text text-anchor="middle" x="206" y="-447.5" font-family="sans" font-size="10.00">applybqsr</text>
</g>
<!-- 6&#45;&gt;5 -->
<g id="edge9" class="edge">
<title>6&#45;&gt;5</title>
<path fill="none" stroke="grey" stroke-width="2" d="M206,-431.7C206,-423.98 206,-414.71 206,-406.11"/>
<polygon fill="grey" stroke="grey" stroke-width="2" points="209.5,-406.1 206,-396.1 202.5,-406.1 209.5,-406.1"/>
</g>
<!-- 7 -->
<g id="node8" class="node">
<title>7</title>
<path fill="none" stroke="#97d856" stroke-width="2" stroke-dasharray="5,2" d="M220,-756C220,-756 182,-756 182,-756 176,-756 170,-750 170,-744 170,-744 170,-732 170,-732 170,-726 176,-720 182,-720 182,-720 220,-720 220,-720 226,-720 232,-726 232,-732 232,-732 232,-744 232,-744 232,-750 226,-756 220,-756"/>
<text text-anchor="middle" x="201" y="-735.5" font-family="sans" font-size="10.00">indelqual1</text>
</g>
<!-- 7&#45;&gt;6 -->
<g id="edge10" class="edge">
<title>7&#45;&gt;6</title>
<path fill="none" stroke="grey" stroke-width="2" d="M187.5,-719.54C180.19,-709.52 171.37,-696.49 165,-684 142.57,-640.02 131.71,-624.83 139,-576 143.94,-542.91 144.95,-533.36 161,-504 166.44,-494.05 173.95,-484.26 181.28,-475.86"/>
<polygon fill="grey" stroke="grey" stroke-width="2" points="184.04,-478.02 188.17,-468.27 178.86,-473.32 184.04,-478.02"/>
</g>
<!-- 17 -->
<g id="node18" class="node">
<title>17</title>
<path fill="none" stroke="#56d8c1" stroke-width="2" stroke-dasharray="5,2" d="M271.5,-540C271.5,-540 182.5,-540 182.5,-540 176.5,-540 170.5,-534 170.5,-528 170.5,-528 170.5,-516 170.5,-516 170.5,-510 176.5,-504 182.5,-504 182.5,-504 271.5,-504 271.5,-504 277.5,-504 283.5,-510 283.5,-516 283.5,-516 283.5,-528 283.5,-528 283.5,-534 277.5,-540 271.5,-540"/>
<text text-anchor="middle" x="227" y="-519.5" font-family="sans" font-size="10.00">gatk_baserecalibrator</text>
</g>
<!-- 7&#45;&gt;17 -->
<g id="edge21" class="edge">
<title>7&#45;&gt;17</title>
<path fill="none" stroke="grey" stroke-width="2" d="M214.86,-719.72C222.3,-709.76 231.11,-696.72 237,-684 250.96,-653.86 252.51,-644.91 257,-612 259.16,-596.15 261.08,-591.47 257,-576 254.51,-566.54 249.9,-556.99 245.03,-548.66"/>
<polygon fill="grey" stroke="grey" stroke-width="2" points="247.99,-546.79 239.73,-540.15 242.05,-550.49 247.99,-546.79"/>
</g>
<!-- 18 -->
<g id="node19" class="node">
<title>18</title>
<path fill="none" stroke="#56d8a9" stroke-width="2" stroke-dasharray="5,2" d="M216,-684C216,-684 186,-684 186,-684 180,-684 174,-678 174,-672 174,-672 174,-660 174,-660 174,-654 180,-648 186,-648 186,-648 216,-648 216,-648 222,-648 228,-654 228,-660 228,-660 228,-672 228,-672 228,-678 222,-684 216,-684"/>
<text text-anchor="middle" x="201" y="-663.5" font-family="sans" font-size="10.00">lofreq1</text>
</g>
<!-- 7&#45;&gt;18 -->
<g id="edge24" class="edge">
<title>7&#45;&gt;18</title>
<path fill="none" stroke="grey" stroke-width="2" d="M201,-719.7C201,-711.98 201,-702.71 201,-694.11"/>
<polygon fill="grey" stroke="grey" stroke-width="2" points="204.5,-694.1 201,-684.1 197.5,-694.1 204.5,-694.1"/>
</g>
<!-- 8 -->
<g id="node9" class="node">
<title>8</title>
<path fill="none" stroke="#bed856" stroke-width="2" stroke-dasharray="5,2" d="M233.5,-828C233.5,-828 168.5,-828 168.5,-828 162.5,-828 156.5,-822 156.5,-816 156.5,-816 156.5,-804 156.5,-804 156.5,-798 162.5,-792 168.5,-792 168.5,-792 233.5,-792 233.5,-792 239.5,-792 245.5,-798 245.5,-804 245.5,-804 245.5,-816 245.5,-816 245.5,-822 239.5,-828 233.5,-828"/>
<text text-anchor="middle" x="201" y="-807.5" font-family="sans" font-size="10.00">mark_duplicates</text>
</g>
<!-- 8&#45;&gt;7 -->
<g id="edge12" class="edge">
<title>8&#45;&gt;7</title>
<path fill="none" stroke="grey" stroke-width="2" d="M201,-791.7C201,-783.98 201,-774.71 201,-766.11"/>
<polygon fill="grey" stroke="grey" stroke-width="2" points="204.5,-766.1 201,-756.1 197.5,-766.1 204.5,-766.1"/>
</g>
<!-- 9 -->
<g id="node10" class="node">
<title>9</title>
<path fill="none" stroke="#d8a456" stroke-width="2" stroke-dasharray="5,2" d="M228.5,-900C228.5,-900 173.5,-900 173.5,-900 167.5,-900 161.5,-894 161.5,-888 161.5,-888 161.5,-876 161.5,-876 161.5,-870 167.5,-864 173.5,-864 173.5,-864 228.5,-864 228.5,-864 234.5,-864 240.5,-870 240.5,-876 240.5,-876 240.5,-888 240.5,-888 240.5,-894 234.5,-900 228.5,-900"/>
<text text-anchor="middle" x="201" y="-879.5" font-family="sans" font-size="10.00">samtools_sort</text>
</g>
<!-- 9&#45;&gt;8 -->
<g id="edge13" class="edge">
<title>9&#45;&gt;8</title>
<path fill="none" stroke="grey" stroke-width="2" d="M201,-863.7C201,-855.98 201,-846.71 201,-838.11"/>
<polygon fill="grey" stroke="grey" stroke-width="2" points="204.5,-838.1 201,-828.1 197.5,-838.1 204.5,-838.1"/>
</g>
<!-- 10 -->
<g id="node11" class="node">
<title>10</title>
<path fill="none" stroke="#88d856" stroke-width="2" stroke-dasharray="5,2" d="M236,-972C236,-972 166,-972 166,-972 160,-972 154,-966 154,-960 154,-960 154,-948 154,-948 154,-942 160,-936 166,-936 166,-936 236,-936 236,-936 242,-936 248,-942 248,-948 248,-948 248,-960 248,-960 248,-966 242,-972 236,-972"/>
<text text-anchor="middle" x="201" y="-951.5" font-family="sans" font-size="10.00">samtools_fixmate</text>
</g>
<!-- 10&#45;&gt;9 -->
<g id="edge14" class="edge">
<title>10&#45;&gt;9</title>
<path fill="none" stroke="grey" stroke-width="2" d="M201,-935.7C201,-927.98 201,-918.71 201,-910.11"/>
<polygon fill="grey" stroke="grey" stroke-width="2" points="204.5,-910.1 201,-900.1 197.5,-910.1 204.5,-910.1"/>
</g>
<!-- 11 -->
<g id="node12" class="node">
<title>11</title>
<path fill="none" stroke="#d6d856" stroke-width="2" stroke-dasharray="5,2" d="M221,-1044C221,-1044 181,-1044 181,-1044 175,-1044 169,-1038 169,-1032 169,-1032 169,-1020 169,-1020 169,-1014 175,-1008 181,-1008 181,-1008 221,-1008 221,-1008 227,-1008 233,-1014 233,-1020 233,-1020 233,-1032 233,-1032 233,-1038 227,-1044 221,-1044"/>
<text text-anchor="middle" x="201" y="-1023.5" font-family="sans" font-size="10.00">refgenome</text>
</g>
<!-- 11&#45;&gt;10 -->
<g id="edge15" class="edge">
<title>11&#45;&gt;10</title>
<path fill="none" stroke="grey" stroke-width="2" d="M201,-1007.7C201,-999.98 201,-990.71 201,-982.11"/>
<polygon fill="grey" stroke="grey" stroke-width="2" points="204.5,-982.1 201,-972.1 197.5,-982.1 204.5,-982.1"/>
</g>
<!-- 23 -->
<g id="node24" class="node">
<title>23</title>
<path fill="none" stroke="#56a2d8" stroke-width="2" stroke-dasharray="5,2" d="M323.5,-900C323.5,-900 290.5,-900 290.5,-900 284.5,-900 278.5,-894 278.5,-888 278.5,-888 278.5,-876 278.5,-876 278.5,-870 284.5,-864 290.5,-864 290.5,-864 323.5,-864 323.5,-864 329.5,-864 335.5,-870 335.5,-876 335.5,-876 335.5,-888 335.5,-888 335.5,-894 329.5,-900 323.5,-900"/>
<text text-anchor="middle" x="307" y="-879.5" font-family="sans" font-size="10.00">bamstats</text>
</g>
<!-- 11&#45;&gt;23 -->
<g id="edge32" class="edge">
<title>11&#45;&gt;23</title>
<path fill="none" stroke="grey" stroke-width="2" d="M221.9,-1007.93C233.12,-998.14 246.71,-985.19 257,-972 272.31,-952.36 285.88,-927.47 295,-909.01"/>
<polygon fill="grey" stroke="grey" stroke-width="2" points="298.16,-910.53 299.36,-900 291.85,-907.48 298.16,-910.53"/>
</g>
<!-- 24 -->
<g id="node25" class="node">
<title>24</title>
<path fill="none" stroke="#d85656" stroke-width="2" stroke-dasharray="5,2" d="M42,-828C42,-828 12,-828 12,-828 6,-828 0,-822 0,-816 0,-816 0,-804 0,-804 0,-798 6,-792 12,-792 12,-792 42,-792 42,-792 48,-792 54,-798 54,-804 54,-804 54,-816 54,-816 54,-822 48,-828 42,-828"/>
<text text-anchor="middle" x="27" y="-807.5" font-family="sans" font-size="10.00">pileup</text>
</g>
<!-- 11&#45;&gt;24 -->
<g id="edge33" class="edge">
<title>11&#45;&gt;24</title>
<path fill="none" stroke="grey" stroke-width="2" d="M168.84,-1020.62C138.5,-1014.78 93.91,-1001.51 68,-972 34.89,-934.28 27.85,-873.46 26.73,-838.36"/>
<polygon fill="grey" stroke="grey" stroke-width="2" points="30.23,-838.29 26.56,-828.35 23.23,-838.41 30.23,-838.29"/>
</g>
<!-- 25 -->
<g id="node26" class="node">
<title>25</title>
<path fill="none" stroke="#d86656" stroke-width="2" d="M165,-180C165,-180 83,-180 83,-180 77,-180 71,-174 71,-168 71,-168 71,-156 71,-156 71,-150 77,-144 83,-144 83,-144 165,-144 165,-144 171,-144 177,-150 177,-156 177,-156 177,-168 177,-168 177,-174 171,-180 165,-180"/>
<text text-anchor="middle" x="124" y="-159.5" font-family="sans" font-size="10.00">genome_consensus</text>
</g>
<!-- 11&#45;&gt;25 -->
<g id="edge34" class="edge">
<title>11&#45;&gt;25</title>
<path fill="none" stroke="grey" stroke-width="2" d="M172.19,-1007.85C136.98,-984.45 82,-938.97 82,-883 82,-883 82,-883 82,-305 82,-263.15 98.99,-217.1 111.35,-189.11"/>
<polygon fill="grey" stroke="grey" stroke-width="2" points="114.54,-190.56 115.5,-180.01 108.17,-187.66 114.54,-190.56"/>
</g>
<!-- 12 -->
<g id="node13" class="node">
<title>12</title>
<path fill="none" stroke="#61d856" stroke-width="2" stroke-dasharray="5,2" d="M255,-1116C255,-1116 225,-1116 225,-1116 219,-1116 213,-1110 213,-1104 213,-1104 213,-1092 213,-1092 213,-1086 219,-1080 225,-1080 225,-1080 255,-1080 255,-1080 261,-1080 267,-1086 267,-1092 267,-1092 267,-1104 267,-1104 267,-1110 261,-1116 255,-1116"/>
<text text-anchor="middle" x="240" y="-1095.5" font-family="sans" font-size="10.00">correct2</text>
</g>
<!-- 12&#45;&gt;11 -->
<g id="edge16" class="edge">
<title>12&#45;&gt;11</title>
<path fill="none" stroke="grey" stroke-width="2" d="M230.36,-1079.7C225.87,-1071.64 220.44,-1061.89 215.48,-1052.98"/>
<polygon fill="grey" stroke="grey" stroke-width="2" points="218.45,-1051.14 210.53,-1044.1 212.34,-1054.54 218.45,-1051.14"/>
</g>
<!-- 13 -->
<g id="node14" class="node">
<title>13</title>
<path fill="none" stroke="#70d856" stroke-width="2" stroke-dasharray="5,2" d="M272,-1188C272,-1188 242,-1188 242,-1188 236,-1188 230,-1182 230,-1176 230,-1176 230,-1164 230,-1164 230,-1158 236,-1152 242,-1152 242,-1152 272,-1152 272,-1152 278,-1152 284,-1158 284,-1164 284,-1164 284,-1176 284,-1176 284,-1182 278,-1188 272,-1188"/>
<text text-anchor="middle" x="257" y="-1167.5" font-family="sans" font-size="10.00">correct1</text>
</g>
<!-- 13&#45;&gt;12 -->
<g id="edge17" class="edge">
<title>13&#45;&gt;12</title>
<path fill="none" stroke="grey" stroke-width="2" d="M252.8,-1151.7C250.9,-1143.9 248.62,-1134.51 246.52,-1125.83"/>
<polygon fill="grey" stroke="grey" stroke-width="2" points="249.92,-1125 244.15,-1116.1 243.11,-1126.65 249.92,-1125"/>
</g>
<!-- 14 -->
<g id="node15" class="node">
<title>14</title>
<path fill="none" stroke="#56d863" stroke-width="2" stroke-dasharray="5,2" d="M294,-1260C294,-1260 264,-1260 264,-1260 258,-1260 252,-1254 252,-1248 252,-1248 252,-1236 252,-1236 252,-1230 258,-1224 264,-1224 264,-1224 294,-1224 294,-1224 300,-1224 306,-1230 306,-1236 306,-1236 306,-1248 306,-1248 306,-1254 300,-1260 294,-1260"/>
<text text-anchor="middle" x="279" y="-1239.5" font-family="sans" font-size="10.00">filter</text>
</g>
<!-- 14&#45;&gt;13 -->
<g id="edge18" class="edge">
<title>14&#45;&gt;13</title>
<path fill="none" stroke="grey" stroke-width="2" d="M273.56,-1223.7C271.11,-1215.9 268.16,-1206.51 265.43,-1197.83"/>
<polygon fill="grey" stroke="grey" stroke-width="2" points="268.71,-1196.59 262.38,-1188.1 262.04,-1198.69 268.71,-1196.59"/>
</g>
<!-- 15 -->
<g id="node16" class="node">
<title>15</title>
<path fill="none" stroke="#56b9d8" stroke-width="2" stroke-dasharray="5,2" d="M307,-1332C307,-1332 277,-1332 277,-1332 271,-1332 265,-1326 265,-1320 265,-1320 265,-1308 265,-1308 265,-1302 271,-1296 277,-1296 277,-1296 307,-1296 307,-1296 313,-1296 319,-1302 319,-1308 319,-1308 319,-1320 319,-1320 319,-1326 313,-1332 307,-1332"/>
<text text-anchor="middle" x="292" y="-1311.5" font-family="sans" font-size="10.00">trim</text>
</g>
<!-- 15&#45;&gt;14 -->
<g id="edge19" class="edge">
<title>15&#45;&gt;14</title>
<path fill="none" stroke="grey" stroke-width="2" d="M288.79,-1295.7C287.35,-1287.98 285.63,-1278.71 284.04,-1270.11"/>
<polygon fill="grey" stroke="grey" stroke-width="2" points="287.44,-1269.3 282.18,-1260.1 280.56,-1270.58 287.44,-1269.3"/>
</g>
<!-- 16 -->
<g id="node17" class="node">
<title>16</title>
<path fill="none" stroke="#567bd8" stroke-width="2" stroke-dasharray="5,2" d="M365.5,-1409C365.5,-1409 328.5,-1409 328.5,-1409 322.5,-1409 316.5,-1403 316.5,-1397 316.5,-1397 316.5,-1380 316.5,-1380 316.5,-1374 322.5,-1368 328.5,-1368 328.5,-1368 365.5,-1368 365.5,-1368 371.5,-1368 377.5,-1374 377.5,-1380 377.5,-1380 377.5,-1397 377.5,-1397 377.5,-1403 371.5,-1409 365.5,-1409"/>
<text text-anchor="middle" x="347" y="-1397" font-family="sans" font-size="10.00">reformat</text>
<text text-anchor="middle" x="347" y="-1386" font-family="sans" font-size="10.00">run: A1</text>
<text text-anchor="middle" x="347" y="-1375" font-family="sans" font-size="10.00">sample: A</text>
</g>
<!-- 16&#45;&gt;15 -->
<g id="edge20" class="edge">
<title>16&#45;&gt;15</title>
<path fill="none" stroke="grey" stroke-width="2" d="M331.97,-1367.69C325.61,-1359.3 318.11,-1349.42 311.35,-1340.5"/>
<polygon fill="grey" stroke="grey" stroke-width="2" points="313.97,-1338.17 305.14,-1332.32 308.39,-1342.4 313.97,-1338.17"/>
</g>
<!-- 21 -->
<g id="node22" class="node">
<title>21</title>
<path fill="none" stroke="#56d89a" stroke-width="2" stroke-dasharray="5,2" d="M372,-1188C372,-1188 322,-1188 322,-1188 316,-1188 310,-1182 310,-1176 310,-1176 310,-1164 310,-1164 310,-1158 316,-1152 322,-1152 322,-1152 372,-1152 372,-1152 378,-1152 384,-1158 384,-1164 384,-1164 384,-1176 384,-1176 384,-1182 378,-1188 372,-1188"/>
<text text-anchor="middle" x="347" y="-1167.5" font-family="sans" font-size="10.00">fastq_screen</text>
</g>
<!-- 16&#45;&gt;21 -->
<g id="edge30" class="edge">
<title>16&#45;&gt;21</title>
<path fill="none" stroke="grey" stroke-width="2" d="M347,-1367.91C347,-1329.15 347,-1242.64 347,-1198.32"/>
<polygon fill="grey" stroke="grey" stroke-width="2" points="350.5,-1198.27 347,-1188.27 343.5,-1198.27 350.5,-1198.27"/>
</g>
<!-- 22 -->
<g id="node23" class="node">
<title>22</title>
<path fill="none" stroke="#afd856" stroke-width="2" stroke-dasharray="5,2" d="M422,-1260C422,-1260 392,-1260 392,-1260 386,-1260 380,-1254 380,-1248 380,-1248 380,-1236 380,-1236 380,-1230 386,-1224 392,-1224 392,-1224 422,-1224 422,-1224 428,-1224 434,-1230 434,-1236 434,-1236 434,-1248 434,-1248 434,-1254 428,-1260 422,-1260"/>
<text text-anchor="middle" x="407" y="-1239.5" font-family="sans" font-size="10.00">fastqc</text>
</g>
<!-- 16&#45;&gt;22 -->
<g id="edge31" class="edge">
<title>16&#45;&gt;22</title>
<path fill="none" stroke="grey" stroke-width="2" d="M355.22,-1367.71C365.78,-1342.27 384.17,-1297.99 395.95,-1269.61"/>
<polygon fill="grey" stroke="grey" stroke-width="2" points="399.22,-1270.87 399.82,-1260.3 392.75,-1268.19 399.22,-1270.87"/>
</g>
<!-- 17&#45;&gt;6 -->
<g id="edge11" class="edge">
<title>17&#45;&gt;6</title>
<path fill="none" stroke="grey" stroke-width="2" d="M221.81,-503.7C219.47,-495.9 216.65,-486.51 214.05,-477.83"/>
<polygon fill="grey" stroke="grey" stroke-width="2" points="217.36,-476.68 211.13,-468.1 210.65,-478.69 217.36,-476.68"/>
</g>
<!-- 18&#45;&gt;17 -->
<g id="edge22" class="edge">
<title>18&#45;&gt;17</title>
<path fill="none" stroke="grey" stroke-width="2" d="M218.73,-647.6C227.24,-638 236.53,-625.34 241,-612 247.8,-591.7 243.33,-567.66 237.69,-549.68"/>
<polygon fill="grey" stroke="grey" stroke-width="2" points="240.97,-548.45 234.41,-540.13 234.35,-550.73 240.97,-548.45"/>
</g>
<!-- 19 -->
<g id="node20" class="node">
<title>19</title>
<path fill="none" stroke="#d8cb56" stroke-width="2" stroke-dasharray="5,2" d="M220,-612C220,-612 160,-612 160,-612 154,-612 148,-606 148,-600 148,-600 148,-588 148,-588 148,-582 154,-576 160,-576 160,-576 220,-576 220,-576 226,-576 232,-582 232,-588 232,-588 232,-600 232,-600 232,-606 226,-612 220,-612"/>
<text text-anchor="middle" x="190" y="-591.5" font-family="sans" font-size="10.00">indexfeaturefile</text>
</g>
<!-- 18&#45;&gt;19 -->
<g id="edge25" class="edge">
<title>18&#45;&gt;19</title>
<path fill="none" stroke="grey" stroke-width="2" d="M198.28,-647.7C197.07,-639.98 195.61,-630.71 194.26,-622.11"/>
<polygon fill="grey" stroke="grey" stroke-width="2" points="197.7,-621.44 192.69,-612.1 190.78,-622.53 197.7,-621.44"/>
</g>
<!-- 19&#45;&gt;17 -->
<g id="edge23" class="edge">
<title>19&#45;&gt;17</title>
<path fill="none" stroke="grey" stroke-width="2" d="M199.15,-575.7C203.4,-567.64 208.56,-557.89 213.27,-548.98"/>
<polygon fill="grey" stroke="grey" stroke-width="2" points="216.38,-550.58 217.96,-540.1 210.19,-547.31 216.38,-550.58"/>
</g>
<!-- 20&#45;&gt;0 -->
<g id="edge2" class="edge">
<title>20&#45;&gt;0</title>
<path fill="none" stroke="grey" stroke-width="2" d="M324.17,-143.81C310.48,-124.73 286.52,-93.77 261,-72 245.32,-58.62 225.85,-46.52 209.22,-37.27"/>
<polygon fill="grey" stroke="grey" stroke-width="2" points="210.78,-34.13 200.32,-32.43 207.44,-40.28 210.78,-34.13"/>
</g>
<!-- 21&#45;&gt;20 -->
<g id="edge26" class="edge">
<title>21&#45;&gt;20</title>
<path fill="none" stroke="grey" stroke-width="2" d="M352.46,-1151.71C360.35,-1125.18 374,-1072.67 374,-1027 374,-1027 374,-1027 374,-305 374,-263.63 358.77,-217.72 347.59,-189.61"/>
<polygon fill="grey" stroke="grey" stroke-width="2" points="350.72,-188.02 343.69,-180.09 344.24,-190.67 350.72,-188.02"/>
</g>
<!-- 22&#45;&gt;20 -->
<g id="edge27" class="edge">
<title>22&#45;&gt;20</title>
<path fill="none" stroke="grey" stroke-width="2" d="M407.99,-1223.96C409.44,-1197.31 412,-1144.14 412,-1099 412,-1099 412,-1099 412,-305 412,-259.64 381.48,-214.75 359.12,-187.95"/>
<polygon fill="grey" stroke="grey" stroke-width="2" points="361.66,-185.53 352.49,-180.23 356.36,-190.09 361.66,-185.53"/>
</g>
<!-- 23&#45;&gt;20 -->
<g id="edge29" class="edge">
<title>23&#45;&gt;20</title>
<path fill="none" stroke="grey" stroke-width="2" d="M312.87,-863.74C321.34,-837.25 336,-784.79 336,-739 336,-739 336,-739 336,-305 336,-265 336,-218.65 336,-190.08"/>
<polygon fill="grey" stroke="grey" stroke-width="2" points="339.5,-190.05 336,-180.05 332.5,-190.05 339.5,-190.05"/>
</g>
<!-- 24&#45;&gt;0 -->
<g id="edge3" class="edge">
<title>24&#45;&gt;0</title>
<path fill="none" stroke="grey" stroke-width="2" d="M29.17,-791.98C32.38,-765.37 38,-712.25 38,-667 38,-667 38,-667 38,-161 38,-103.57 96.73,-60.12 136.71,-37.2"/>
<polygon fill="grey" stroke="grey" stroke-width="2" points="138.64,-40.13 145.68,-32.22 135.24,-34.01 138.64,-40.13"/>
</g>
<!-- 25&#45;&gt;0 -->
<g id="edge4" class="edge">
<title>25&#45;&gt;0</title>
<path fill="none" stroke="grey" stroke-width="2" d="M129.91,-143.87C138.3,-119.56 153.74,-74.82 163.68,-46.01"/>
<polygon fill="grey" stroke="grey" stroke-width="2" points="167.12,-46.78 167.07,-36.19 160.5,-44.5 167.12,-46.78"/>
</g>
<!-- 26&#45;&gt;25 -->
<g id="edge35" class="edge">
<title>26&#45;&gt;25</title>
<path fill="none" stroke="grey" stroke-width="2" d="M138.3,-215.7C136.19,-207.9 133.64,-198.51 131.28,-189.83"/>
<polygon fill="grey" stroke="grey" stroke-width="2" points="134.64,-188.84 128.64,-180.1 127.88,-190.67 134.64,-188.84"/>
</g>
</g>
</svg>
