<?xml version="1.0" encoding="UTF-8" standalone="no"?>
<!DOCTYPE svg PUBLIC "-//W3C//DTD SVG 1.1//EN"
 "http://www.w3.org/Graphics/SVG/1.1/DTD/svg11.dtd">
<!-- Generated by graphviz version 2.42.3 (20191010.1750)
 -->
<!-- Title: snakemake_dag Pages: 1 -->
<svg width="401pt" height="769pt"
 viewBox="0.00 0.00 401.00 769.00" xmlns="http://www.w3.org/2000/svg" xmlns:xlink="http://www.w3.org/1999/xlink">
<g id="graph0" class="graph" transform="scale(1 1) rotate(0) translate(4 765)">
<title>snakemake_dag</title>
<polygon fill="white" stroke="transparent" points="-4,4 -4,-765 397,-765 397,4 -4,4"/>
<!-- 0 -->
<g id="node1" class="node">
<title>0</title>
<path fill="none" stroke="#d85656" stroke-width="2" stroke-dasharray="5,2" d="M151,-36C151,-36 121,-36 121,-36 115,-36 109,-30 109,-24 109,-24 109,-12 109,-12 109,-6 115,0 121,0 121,0 151,0 151,0 157,0 163,-6 163,-12 163,-12 163,-24 163,-24 163,-30 157,-36 151,-36"/>
<text text-anchor="middle" x="136" y="-15.5" font-family="sans" font-size="10.00">all</text>
</g>
<!-- 1 -->
<g id="node2" class="node">
<title>1</title>
<path fill="none" stroke="#56d8a9" stroke-width="2" stroke-dasharray="5,2" d="M203.5,-108C203.5,-108 150.5,-108 150.5,-108 144.5,-108 138.5,-102 138.5,-96 138.5,-96 138.5,-84 138.5,-84 138.5,-78 144.5,-72 150.5,-72 150.5,-72 203.5,-72 203.5,-72 209.5,-72 215.5,-78 215.5,-84 215.5,-84 215.5,-96 215.5,-96 215.5,-102 209.5,-108 203.5,-108"/>
<text text-anchor="middle" x="177" y="-87.5" font-family="sans" font-size="10.00">merge_tables</text>
</g>
<!-- 1&#45;&gt;0 -->
<g id="edge1" class="edge">
<title>1&#45;&gt;0</title>
<path fill="none" stroke="grey" stroke-width="2" d="M166.87,-71.7C162.15,-63.64 156.44,-53.89 151.22,-44.98"/>
<polygon fill="grey" stroke="grey" stroke-width="2" points="154.09,-42.96 146.02,-36.1 148.05,-46.5 154.09,-42.96"/>
</g>
<!-- 2 -->
<g id="node3" class="node">
<title>2</title>
<path fill="none" stroke="#56d892" stroke-width="2" stroke-dasharray="5,2" d="M203,-180C203,-180 173,-180 173,-180 167,-180 161,-174 161,-168 161,-168 161,-156 161,-156 161,-150 167,-144 173,-144 173,-144 203,-144 203,-144 209,-144 215,-150 215,-156 215,-156 215,-168 215,-168 215,-174 209,-180 203,-180"/>
<text text-anchor="middle" x="188" y="-159.5" font-family="sans" font-size="10.00">snpsift</text>
</g>
<!-- 2&#45;&gt;1 -->
<g id="edge5" class="edge">
<title>2&#45;&gt;1</title>
<path fill="none" stroke="grey" stroke-width="2" d="M185.28,-143.7C184.07,-135.98 182.61,-126.71 181.26,-118.11"/>
<polygon fill="grey" stroke="grey" stroke-width="2" points="184.7,-117.44 179.69,-108.1 177.78,-118.53 184.7,-117.44"/>
</g>
<!-- 3 -->
<g id="node4" class="node">
<title>3</title>
<path fill="none" stroke="#5692d8" stroke-width="2" stroke-dasharray="5,2" d="M195,-252C195,-252 165,-252 165,-252 159,-252 153,-246 153,-240 153,-240 153,-228 153,-228 153,-222 159,-216 165,-216 165,-216 195,-216 195,-216 201,-216 207,-222 207,-228 207,-228 207,-240 207,-240 207,-246 201,-252 195,-252"/>
<text text-anchor="middle" x="180" y="-231.5" font-family="sans" font-size="10.00">snpeff</text>
</g>
<!-- 3&#45;&gt;2 -->
<g id="edge6" class="edge">
<title>3&#45;&gt;2</title>
<path fill="none" stroke="grey" stroke-width="2" d="M181.98,-215.7C182.86,-207.98 183.92,-198.71 184.9,-190.11"/>
<polygon fill="grey" stroke="grey" stroke-width="2" points="188.39,-190.44 186.05,-180.1 181.43,-189.64 188.39,-190.44"/>
</g>
<!-- 11 -->
<g id="node12" class="node">
<title>11</title>
<path fill="none" stroke="#70d856" stroke-width="2" stroke-dasharray="5,2" d="M275,-180C275,-180 245,-180 245,-180 239,-180 233,-174 233,-168 233,-168 233,-156 233,-156 233,-150 239,-144 245,-144 245,-144 275,-144 275,-144 281,-144 287,-150 287,-156 287,-156 287,-168 287,-168 287,-174 281,-180 275,-180"/>
<text text-anchor="middle" x="260" y="-165" font-family="sans" font-size="10.00">multiqc</text>
<text text-anchor="middle" x="260" y="-154" font-family="sans" font-size="10.00">batch: 1</text>
</g>
<!-- 3&#45;&gt;11 -->
<g id="edge16" class="edge">
<title>3&#45;&gt;11</title>
<path fill="none" stroke="grey" stroke-width="2" d="M199.78,-215.7C209.75,-206.97 222.01,-196.24 232.86,-186.75"/>
<polygon fill="grey" stroke="grey" stroke-width="2" points="235.23,-189.32 240.45,-180.1 230.62,-184.06 235.23,-189.32"/>
</g>
<!-- 4 -->
<g id="node5" class="node">
<title>4</title>
<path fill="none" stroke="#8fd856" stroke-width="2" stroke-dasharray="5,2" d="M169.5,-324C169.5,-324 126.5,-324 126.5,-324 120.5,-324 114.5,-318 114.5,-312 114.5,-312 114.5,-300 114.5,-300 114.5,-294 120.5,-288 126.5,-288 126.5,-288 169.5,-288 169.5,-288 175.5,-288 181.5,-294 181.5,-300 181.5,-300 181.5,-312 181.5,-312 181.5,-318 175.5,-324 169.5,-324"/>
<text text-anchor="middle" x="148" y="-303.5" font-family="sans" font-size="10.00">callvariants</text>
</g>
<!-- 4&#45;&gt;3 -->
<g id="edge7" class="edge">
<title>4&#45;&gt;3</title>
<path fill="none" stroke="grey" stroke-width="2" d="M155.91,-287.7C159.55,-279.73 163.95,-270.1 167.99,-261.26"/>
<polygon fill="grey" stroke="grey" stroke-width="2" points="171.21,-262.65 172.18,-252.1 164.84,-259.74 171.21,-262.65"/>
</g>
<!-- 17 -->
<g id="node18" class="node">
<title>17</title>
<path fill="none" stroke="#c6d856" stroke-width="2" stroke-dasharray="5,2" d="M123,-252C123,-252 93,-252 93,-252 87,-252 81,-246 81,-240 81,-240 81,-228 81,-228 81,-222 87,-216 93,-216 93,-216 123,-216 123,-216 129,-216 135,-222 135,-228 135,-228 135,-240 135,-240 135,-246 129,-252 123,-252"/>
<text text-anchor="middle" x="108" y="-231.5" font-family="sans" font-size="10.00">vcffilter</text>
</g>
<!-- 4&#45;&gt;17 -->
<g id="edge24" class="edge">
<title>4&#45;&gt;17</title>
<path fill="none" stroke="grey" stroke-width="2" d="M138.11,-287.7C133.51,-279.64 127.94,-269.89 122.85,-260.98"/>
<polygon fill="grey" stroke="grey" stroke-width="2" points="125.77,-259.05 117.77,-252.1 119.7,-262.52 125.77,-259.05"/>
</g>
<!-- 5 -->
<g id="node6" class="node">
<title>5</title>
<path fill="none" stroke="#59d856" stroke-width="2" stroke-dasharray="5,2" d="M168,-396C168,-396 128,-396 128,-396 122,-396 116,-390 116,-384 116,-384 116,-372 116,-372 116,-366 122,-360 128,-360 128,-360 168,-360 168,-360 174,-360 180,-366 180,-372 180,-372 180,-384 180,-384 180,-390 174,-396 168,-396"/>
<text text-anchor="middle" x="148" y="-375.5" font-family="sans" font-size="10.00">refgenome</text>
</g>
<!-- 5&#45;&gt;4 -->
<g id="edge8" class="edge">
<title>5&#45;&gt;4</title>
<path fill="none" stroke="grey" stroke-width="2" d="M148,-359.7C148,-351.98 148,-342.71 148,-334.11"/>
<polygon fill="grey" stroke="grey" stroke-width="2" points="151.5,-334.1 148,-324.1 144.5,-334.1 151.5,-334.1"/>
</g>
<!-- 14 -->
<g id="node15" class="node">
<title>14</title>
<path fill="none" stroke="#d8cb56" stroke-width="2" stroke-dasharray="5,2" d="M270.5,-252C270.5,-252 237.5,-252 237.5,-252 231.5,-252 225.5,-246 225.5,-240 225.5,-240 225.5,-228 225.5,-228 225.5,-222 231.5,-216 237.5,-216 237.5,-216 270.5,-216 270.5,-216 276.5,-216 282.5,-222 282.5,-228 282.5,-228 282.5,-240 282.5,-240 282.5,-246 276.5,-252 270.5,-252"/>
<text text-anchor="middle" x="254" y="-231.5" font-family="sans" font-size="10.00">bamstats</text>
</g>
<!-- 5&#45;&gt;14 -->
<g id="edge20" class="edge">
<title>5&#45;&gt;14</title>
<path fill="none" stroke="grey" stroke-width="2" d="M161.82,-359.97C170.12,-349.66 180.8,-336.18 190,-324 205.97,-302.86 223.49,-278.39 236.16,-260.46"/>
<polygon fill="grey" stroke="grey" stroke-width="2" points="239.06,-262.42 241.97,-252.23 233.34,-258.39 239.06,-262.42"/>
</g>
<!-- 15 -->
<g id="node16" class="node">
<title>15</title>
<path fill="none" stroke="#d88d56" stroke-width="2" stroke-dasharray="5,2" d="M42,-108C42,-108 12,-108 12,-108 6,-108 0,-102 0,-96 0,-96 0,-84 0,-84 0,-78 6,-72 12,-72 12,-72 42,-72 42,-72 48,-72 54,-78 54,-84 54,-84 54,-96 54,-96 54,-102 48,-108 42,-108"/>
<text text-anchor="middle" x="27" y="-87.5" font-family="sans" font-size="10.00">pileup</text>
</g>
<!-- 5&#45;&gt;15 -->
<g id="edge21" class="edge">
<title>5&#45;&gt;15</title>
<path fill="none" stroke="grey" stroke-width="2" d="M119.07,-359.86C105.63,-350.67 90.37,-338.3 80,-324 40.04,-268.92 40.11,-246.96 28,-180 24.31,-159.6 24.21,-136.14 24.96,-118.43"/>
<polygon fill="grey" stroke="grey" stroke-width="2" points="28.46,-118.4 25.5,-108.22 21.47,-118.02 28.46,-118.4"/>
</g>
<!-- 16 -->
<g id="node17" class="node">
<title>16</title>
<path fill="none" stroke="#5673d8" stroke-width="2" stroke-dasharray="5,2" d="M131,-180C131,-180 49,-180 49,-180 43,-180 37,-174 37,-168 37,-168 37,-156 37,-156 37,-150 43,-144 49,-144 49,-144 131,-144 131,-144 137,-144 143,-150 143,-156 143,-156 143,-168 143,-168 143,-174 137,-180 131,-180"/>
<text text-anchor="middle" x="90" y="-159.5" font-family="sans" font-size="10.00">genome_consensus</text>
</g>
<!-- 5&#45;&gt;16 -->
<g id="edge22" class="edge">
<title>5&#45;&gt;16</title>
<path fill="none" stroke="grey" stroke-width="2" d="M132.09,-359.69C123.42,-349.72 112.88,-336.68 105,-324 86.43,-294.1 79.51,-286.39 72,-252 67.45,-231.14 72.75,-207.45 78.75,-189.75"/>
<polygon fill="grey" stroke="grey" stroke-width="2" points="82.14,-190.69 82.3,-180.09 75.57,-188.27 82.14,-190.69"/>
</g>
<!-- 6 -->
<g id="node7" class="node">
<title>6</title>
<path fill="none" stroke="#56d873" stroke-width="2" stroke-dasharray="5,2" d="M200,-468C200,-468 170,-468 170,-468 164,-468 158,-462 158,-456 158,-456 158,-444 158,-444 158,-438 164,-432 170,-432 170,-432 200,-432 200,-432 206,-432 212,-438 212,-444 212,-444 212,-456 212,-456 212,-462 206,-468 200,-468"/>
<text text-anchor="middle" x="185" y="-447.5" font-family="sans" font-size="10.00">correct2</text>
</g>
<!-- 6&#45;&gt;5 -->
<g id="edge9" class="edge">
<title>6&#45;&gt;5</title>
<path fill="none" stroke="grey" stroke-width="2" d="M175.85,-431.7C171.6,-423.64 166.44,-413.89 161.73,-404.98"/>
<polygon fill="grey" stroke="grey" stroke-width="2" points="164.81,-403.31 157.04,-396.1 158.62,-406.58 164.81,-403.31"/>
</g>
<!-- 7 -->
<g id="node8" class="node">
<title>7</title>
<path fill="none" stroke="#56a9d8" stroke-width="2" stroke-dasharray="5,2" d="M219,-540C219,-540 189,-540 189,-540 183,-540 177,-534 177,-528 177,-528 177,-516 177,-516 177,-510 183,-504 189,-504 189,-504 219,-504 219,-504 225,-504 231,-510 231,-516 231,-516 231,-528 231,-528 231,-534 225,-540 219,-540"/>
<text text-anchor="middle" x="204" y="-519.5" font-family="sans" font-size="10.00">correct1</text>
</g>
<!-- 7&#45;&gt;6 -->
<g id="edge10" class="edge">
<title>7&#45;&gt;6</title>
<path fill="none" stroke="grey" stroke-width="2" d="M199.3,-503.7C197.19,-495.9 194.64,-486.51 192.28,-477.83"/>
<polygon fill="grey" stroke="grey" stroke-width="2" points="195.64,-476.84 189.64,-468.1 188.88,-478.67 195.64,-476.84"/>
</g>
<!-- 8 -->
<g id="node9" class="node">
<title>8</title>
<path fill="none" stroke="#56d8c9" stroke-width="2" stroke-dasharray="5,2" d="M229,-612C229,-612 199,-612 199,-612 193,-612 187,-606 187,-600 187,-600 187,-588 187,-588 187,-582 193,-576 199,-576 199,-576 229,-576 229,-576 235,-576 241,-582 241,-588 241,-588 241,-600 241,-600 241,-606 235,-612 229,-612"/>
<text text-anchor="middle" x="214" y="-591.5" font-family="sans" font-size="10.00">filter</text>
</g>
<!-- 8&#45;&gt;7 -->
<g id="edge11" class="edge">
<title>8&#45;&gt;7</title>
<path fill="none" stroke="grey" stroke-width="2" d="M211.53,-575.7C210.43,-567.98 209.1,-558.71 207.87,-550.11"/>
<polygon fill="grey" stroke="grey" stroke-width="2" points="211.32,-549.51 206.44,-540.1 204.39,-550.5 211.32,-549.51"/>
</g>
<!-- 9 -->
<g id="node10" class="node">
<title>9</title>
<path fill="none" stroke="#d87556" stroke-width="2" stroke-dasharray="5,2" d="M248,-684C248,-684 218,-684 218,-684 212,-684 206,-678 206,-672 206,-672 206,-660 206,-660 206,-654 212,-648 218,-648 218,-648 248,-648 248,-648 254,-648 260,-654 260,-660 260,-660 260,-672 260,-672 260,-678 254,-684 248,-684"/>
<text text-anchor="middle" x="233" y="-663.5" font-family="sans" font-size="10.00">trim</text>
</g>
<!-- 9&#45;&gt;8 -->
<g id="edge12" class="edge">
<title>9&#45;&gt;8</title>
<path fill="none" stroke="grey" stroke-width="2" d="M228.3,-647.7C226.19,-639.9 223.64,-630.51 221.28,-621.83"/>
<polygon fill="grey" stroke="grey" stroke-width="2" points="224.64,-620.84 218.64,-612.1 217.88,-622.67 224.64,-620.84"/>
</g>
<!-- 10 -->
<g id="node11" class="node">
<title>10</title>
<path fill="none" stroke="#56c9d8" stroke-width="2" stroke-dasharray="5,2" d="M319.5,-761C319.5,-761 282.5,-761 282.5,-761 276.5,-761 270.5,-755 270.5,-749 270.5,-749 270.5,-732 270.5,-732 270.5,-726 276.5,-720 282.5,-720 282.5,-720 319.5,-720 319.5,-720 325.5,-720 331.5,-726 331.5,-732 331.5,-732 331.5,-749 331.5,-749 331.5,-755 325.5,-761 319.5,-761"/>
<text text-anchor="middle" x="301" y="-749" font-family="sans" font-size="10.00">reformat</text>
<text text-anchor="middle" x="301" y="-738" font-family="sans" font-size="10.00">run: A1</text>
<text text-anchor="middle" x="301" y="-727" font-family="sans" font-size="10.00">sample: A</text>
</g>
<!-- 10&#45;&gt;9 -->
<g id="edge13" class="edge">
<title>10&#45;&gt;9</title>
<path fill="none" stroke="grey" stroke-width="2" d="M282.42,-719.69C274.31,-711.04 264.71,-700.81 256.14,-691.68"/>
<polygon fill="grey" stroke="grey" stroke-width="2" points="258.64,-689.22 249.24,-684.32 253.53,-694.01 258.64,-689.22"/>
</g>
<!-- 12 -->
<g id="node13" class="node">
<title>12</title>
<path fill="none" stroke="#d8ac56" stroke-width="2" stroke-dasharray="5,2" d="M326,-612C326,-612 276,-612 276,-612 270,-612 264,-606 264,-600 264,-600 264,-588 264,-588 264,-582 270,-576 276,-576 276,-576 326,-576 326,-576 332,-576 338,-582 338,-588 338,-588 338,-600 338,-600 338,-606 332,-612 326,-612"/>
<text text-anchor="middle" x="301" y="-591.5" font-family="sans" font-size="10.00">fastq_screen</text>
</g>
<!-- 10&#45;&gt;12 -->
<g id="edge18" class="edge">
<title>10&#45;&gt;12</title>
<path fill="none" stroke="grey" stroke-width="2" d="M301,-719.71C301,-694.49 301,-650.76 301,-622.36"/>
<polygon fill="grey" stroke="grey" stroke-width="2" points="304.5,-622.3 301,-612.3 297.5,-622.3 304.5,-622.3"/>
</g>
<!-- 13 -->
<g id="node14" class="node">
<title>13</title>
<path fill="none" stroke="#afd856" stroke-width="2" stroke-dasharray="5,2" d="M381,-540C381,-540 351,-540 351,-540 345,-540 339,-534 339,-528 339,-528 339,-516 339,-516 339,-510 345,-504 351,-504 351,-504 381,-504 381,-504 387,-504 393,-510 393,-516 393,-516 393,-528 393,-528 393,-534 387,-540 381,-540"/>
<text text-anchor="middle" x="366" y="-519.5" font-family="sans" font-size="10.00">fastqc</text>
</g>
<!-- 10&#45;&gt;13 -->
<g id="edge19" class="edge">
<title>10&#45;&gt;13</title>
<path fill="none" stroke="grey" stroke-width="2" d="M309.02,-719.9C318.94,-695.1 335.88,-650.92 347,-612 352.82,-591.62 357.76,-568.16 361.14,-550.44"/>
<polygon fill="grey" stroke="grey" stroke-width="2" points="364.65,-550.7 363.04,-540.23 357.77,-549.42 364.65,-550.7"/>
</g>
<!-- 11&#45;&gt;0 -->
<g id="edge2" class="edge">
<title>11&#45;&gt;0</title>
<path fill="none" stroke="grey" stroke-width="2" d="M256.52,-143.89C251.88,-124.59 242.07,-93.17 224,-72 210.13,-55.75 189.96,-43.1 172.44,-34.24"/>
<polygon fill="grey" stroke="grey" stroke-width="2" points="173.56,-30.89 163.03,-29.71 170.52,-37.2 173.56,-30.89"/>
</g>
<!-- 12&#45;&gt;11 -->
<g id="edge14" class="edge">
<title>12&#45;&gt;11</title>
<path fill="none" stroke="grey" stroke-width="2" d="M302.98,-575.98C305.89,-549.36 311,-496.23 311,-451 311,-451 311,-451 311,-305 311,-264.55 306.88,-253.61 292,-216 288.34,-206.75 283.15,-197.26 278,-188.92"/>
<polygon fill="grey" stroke="grey" stroke-width="2" points="280.87,-186.9 272.52,-180.38 274.98,-190.68 280.87,-186.9"/>
</g>
<!-- 13&#45;&gt;11 -->
<g id="edge15" class="edge">
<title>13&#45;&gt;11</title>
<path fill="none" stroke="grey" stroke-width="2" d="M364.22,-503.97C361.6,-477.34 357,-424.21 357,-379 357,-379 357,-379 357,-305 357,-262.97 349.28,-250.31 325,-216 317.02,-204.73 306.04,-194.54 295.37,-186.17"/>
<polygon fill="grey" stroke="grey" stroke-width="2" points="297.42,-183.34 287.32,-180.14 293.22,-188.94 297.42,-183.34"/>
</g>
<!-- 14&#45;&gt;11 -->
<g id="edge17" class="edge">
<title>14&#45;&gt;11</title>
<path fill="none" stroke="grey" stroke-width="2" d="M255.48,-215.7C256.14,-207.98 256.94,-198.71 257.68,-190.11"/>
<polygon fill="grey" stroke="grey" stroke-width="2" points="261.17,-190.37 258.53,-180.1 254.19,-189.77 261.17,-190.37"/>
</g>
<!-- 15&#45;&gt;0 -->
<g id="edge3" class="edge">
<title>15&#45;&gt;0</title>
<path fill="none" stroke="grey" stroke-width="2" d="M53.66,-71.88C67.78,-62.81 85.31,-51.55 100.56,-41.76"/>
<polygon fill="grey" stroke="grey" stroke-width="2" points="102.71,-44.54 109.23,-36.19 98.93,-38.65 102.71,-44.54"/>
</g>
<!-- 16&#45;&gt;0 -->
<g id="edge4" class="edge">
<title>16&#45;&gt;0</title>
<path fill="none" stroke="grey" stroke-width="2" d="M95.55,-143.87C103.42,-119.56 117.92,-74.82 127.25,-46.01"/>
<polygon fill="grey" stroke="grey" stroke-width="2" points="130.68,-46.78 130.43,-36.19 124.02,-44.62 130.68,-46.78"/>
</g>
<!-- 17&#45;&gt;16 -->
<g id="edge23" class="edge">
<title>17&#45;&gt;16</title>
<path fill="none" stroke="grey" stroke-width="2" d="M103.55,-215.7C101.55,-207.9 99.13,-198.51 96.9,-189.83"/>
<polygon fill="grey" stroke="grey" stroke-width="2" points="100.28,-188.92 94.4,-180.1 93.5,-190.66 100.28,-188.92"/>
</g>
</g>
</svg>
