<?xml version="1.0" encoding="UTF-8" standalone="no"?>
<!DOCTYPE svg PUBLIC "-//W3C//DTD SVG 1.1//EN"
 "http://www.w3.org/Graphics/SVG/1.1/DTD/svg11.dtd">
<!-- Generated by graphviz version 2.42.3 (20191010.1750)
 -->
<!-- Title: snakemake_dag Pages: 1 -->
<svg width="376pt" height="1273pt"
 viewBox="0.00 0.00 376.00 1273.00" xmlns="http://www.w3.org/2000/svg" xmlns:xlink="http://www.w3.org/1999/xlink">
<g id="graph0" class="graph" transform="scale(1 1) rotate(0) translate(4 1269)">
<title>snakemake_dag</title>
<polygon fill="white" stroke="transparent" points="-4,4 -4,-1269 372,-1269 372,4 -4,4"/>
<!-- 0 -->
<g id="node1" class="node">
<title>0</title>
<path fill="none" stroke="#d85656" stroke-width="2" d="M195,-36C195,-36 165,-36 165,-36 159,-36 153,-30 153,-24 153,-24 153,-12 153,-12 153,-6 159,0 165,0 165,0 195,0 195,0 201,0 207,-6 207,-12 207,-12 207,-24 207,-24 207,-30 201,-36 195,-36"/>
<text text-anchor="middle" x="180" y="-15.5" font-family="sans" font-size="10.00">all</text>
</g>
<!-- 1 -->
<g id="node2" class="node">
<title>1</title>
<path fill="none" stroke="#56a9d8" stroke-width="2" d="M78,-108C78,-108 12,-108 12,-108 6,-108 0,-102 0,-96 0,-96 0,-84 0,-84 0,-78 6,-72 12,-72 12,-72 78,-72 78,-72 84,-72 90,-78 90,-84 90,-84 90,-96 90,-96 90,-102 84,-108 78,-108"/>
<text text-anchor="middle" x="45" y="-87.5" font-family="sans" font-size="10.00">merge_renamed</text>
</g>
<!-- 1&#45;&gt;0 -->
<g id="edge1" class="edge">
<title>1&#45;&gt;0</title>
<path fill="none" stroke="grey" stroke-width="2" d="M78.02,-71.88C97.93,-61.56 123.29,-48.4 143.75,-37.8"/>
<polygon fill="grey" stroke="grey" stroke-width="2" points="145.5,-40.83 152.76,-33.12 142.27,-34.62 145.5,-40.83"/>
</g>
<!-- 2 -->
<g id="node3" class="node">
<title>2</title>
<path fill="none" stroke="#56d8a9" stroke-width="2" d="M71,-180C71,-180 41,-180 41,-180 35,-180 29,-174 29,-168 29,-168 29,-156 29,-156 29,-150 35,-144 41,-144 41,-144 71,-144 71,-144 77,-144 83,-150 83,-156 83,-156 83,-168 83,-168 83,-174 77,-180 71,-180"/>
<text text-anchor="middle" x="56" y="-159.5" font-family="sans" font-size="10.00">rename</text>
</g>
<!-- 2&#45;&gt;1 -->
<g id="edge5" class="edge">
<title>2&#45;&gt;1</title>
<path fill="none" stroke="grey" stroke-width="2" d="M53.28,-143.7C52.07,-135.98 50.61,-126.71 49.26,-118.11"/>
<polygon fill="grey" stroke="grey" stroke-width="2" points="52.7,-117.44 47.69,-108.1 45.78,-118.53 52.7,-117.44"/>
</g>
<!-- 3 -->
<g id="node4" class="node">
<title>3</title>
<path fill="none" stroke="#5692d8" stroke-width="2" d="M99,-252C99,-252 17,-252 17,-252 11,-252 5,-246 5,-240 5,-240 5,-228 5,-228 5,-222 11,-216 17,-216 17,-216 99,-216 99,-216 105,-216 111,-222 111,-228 111,-228 111,-240 111,-240 111,-246 105,-252 99,-252"/>
<text text-anchor="middle" x="58" y="-231.5" font-family="sans" font-size="10.00">genome_consensus</text>
</g>
<!-- 3&#45;&gt;2 -->
<g id="edge6" class="edge">
<title>3&#45;&gt;2</title>
<path fill="none" stroke="grey" stroke-width="2" d="M57.51,-215.7C57.29,-207.98 57.02,-198.71 56.77,-190.11"/>
<polygon fill="grey" stroke="grey" stroke-width="2" points="60.27,-190 56.49,-180.1 53.28,-190.2 60.27,-190"/>
</g>
<!-- 4 -->
<g id="node5" class="node">
<title>4</title>
<path fill="none" stroke="#59d856" stroke-width="2" d="M253,-972C253,-972 223,-972 223,-972 217,-972 211,-966 211,-960 211,-960 211,-948 211,-948 211,-942 217,-936 223,-936 223,-936 253,-936 253,-936 259,-936 265,-942 265,-948 265,-948 265,-960 265,-960 265,-966 259,-972 253,-972"/>
<text text-anchor="middle" x="238" y="-951.5" font-family="sans" font-size="10.00">correct2</text>
</g>
<!-- 4&#45;&gt;3 -->
<g id="edge7" class="edge">
<title>4&#45;&gt;3</title>
<path fill="none" stroke="grey" stroke-width="2" d="M210.69,-944.39C162.63,-927.34 68,-884.45 68,-811 68,-811 68,-811 68,-377 68,-336.9 63.98,-290.58 61.04,-262.04"/>
<polygon fill="grey" stroke="grey" stroke-width="2" points="64.51,-261.6 59.98,-252.02 57.55,-262.34 64.51,-261.6"/>
</g>
<!-- 17 -->
<g id="node18" class="node">
<title>17</title>
<path fill="none" stroke="#56d0d8" stroke-width="2" d="M232,-900C232,-900 192,-900 192,-900 186,-900 180,-894 180,-888 180,-888 180,-876 180,-876 180,-870 186,-864 192,-864 192,-864 232,-864 232,-864 238,-864 244,-870 244,-876 244,-876 244,-888 244,-888 244,-894 238,-900 232,-900"/>
<text text-anchor="middle" x="212" y="-879.5" font-family="sans" font-size="10.00">refgenome</text>
</g>
<!-- 4&#45;&gt;17 -->
<g id="edge21" class="edge">
<title>4&#45;&gt;17</title>
<path fill="none" stroke="grey" stroke-width="2" d="M231.57,-935.7C228.64,-927.81 225.11,-918.3 221.86,-909.55"/>
<polygon fill="grey" stroke="grey" stroke-width="2" points="225.12,-908.26 218.35,-900.1 218.55,-910.7 225.12,-908.26"/>
</g>
<!-- 22 -->
<g id="node23" class="node">
<title>22</title>
<path fill="none" stroke="#b6d856" stroke-width="2" d="M328,-828C328,-828 278,-828 278,-828 272,-828 266,-822 266,-816 266,-816 266,-804 266,-804 266,-798 272,-792 278,-792 278,-792 328,-792 328,-792 334,-792 340,-798 340,-804 340,-804 340,-816 340,-816 340,-822 334,-828 328,-828"/>
<text text-anchor="middle" x="303" y="-807.5" font-family="sans" font-size="10.00">fastq_screen</text>
</g>
<!-- 4&#45;&gt;22 -->
<g id="edge29" class="edge">
<title>4&#45;&gt;22</title>
<path fill="none" stroke="grey" stroke-width="2" d="M245.84,-935.87C257.02,-911.46 277.63,-866.43 290.81,-837.64"/>
<polygon fill="grey" stroke="grey" stroke-width="2" points="294.15,-838.74 295.13,-828.19 287.79,-835.83 294.15,-838.74"/>
</g>
<!-- 5 -->
<g id="node6" class="node">
<title>5</title>
<path fill="none" stroke="#56d8b9" stroke-width="2" d="M266,-1044C266,-1044 236,-1044 236,-1044 230,-1044 224,-1038 224,-1032 224,-1032 224,-1020 224,-1020 224,-1014 230,-1008 236,-1008 236,-1008 266,-1008 266,-1008 272,-1008 278,-1014 278,-1020 278,-1020 278,-1032 278,-1032 278,-1038 272,-1044 266,-1044"/>
<text text-anchor="middle" x="251" y="-1023.5" font-family="sans" font-size="10.00">correct1</text>
</g>
<!-- 5&#45;&gt;4 -->
<g id="edge9" class="edge">
<title>5&#45;&gt;4</title>
<path fill="none" stroke="grey" stroke-width="2" d="M247.79,-1007.7C246.35,-999.98 244.63,-990.71 243.04,-982.11"/>
<polygon fill="grey" stroke="grey" stroke-width="2" points="246.44,-981.3 241.18,-972.1 239.56,-982.58 246.44,-981.3"/>
</g>
<!-- 6 -->
<g id="node7" class="node">
<title>6</title>
<path fill="none" stroke="#56d8d0" stroke-width="2" d="M273,-1116C273,-1116 243,-1116 243,-1116 237,-1116 231,-1110 231,-1104 231,-1104 231,-1092 231,-1092 231,-1086 237,-1080 243,-1080 243,-1080 273,-1080 273,-1080 279,-1080 285,-1086 285,-1092 285,-1092 285,-1104 285,-1104 285,-1110 279,-1116 273,-1116"/>
<text text-anchor="middle" x="258" y="-1095.5" font-family="sans" font-size="10.00">filter</text>
</g>
<!-- 6&#45;&gt;5 -->
<g id="edge10" class="edge">
<title>6&#45;&gt;5</title>
<path fill="none" stroke="grey" stroke-width="2" d="M256.27,-1079.7C255.5,-1071.98 254.57,-1062.71 253.71,-1054.11"/>
<polygon fill="grey" stroke="grey" stroke-width="2" points="257.19,-1053.71 252.71,-1044.1 250.22,-1054.4 257.19,-1053.71"/>
</g>
<!-- 7 -->
<g id="node8" class="node">
<title>7</title>
<path fill="none" stroke="#56b9d8" stroke-width="2" d="M281,-1188C281,-1188 251,-1188 251,-1188 245,-1188 239,-1182 239,-1176 239,-1176 239,-1164 239,-1164 239,-1158 245,-1152 251,-1152 251,-1152 281,-1152 281,-1152 287,-1152 293,-1158 293,-1164 293,-1164 293,-1176 293,-1176 293,-1182 287,-1188 281,-1188"/>
<text text-anchor="middle" x="266" y="-1167.5" font-family="sans" font-size="10.00">trim</text>
</g>
<!-- 7&#45;&gt;6 -->
<g id="edge11" class="edge">
<title>7&#45;&gt;6</title>
<path fill="none" stroke="grey" stroke-width="2" d="M264.02,-1151.7C263.14,-1143.98 262.08,-1134.71 261.1,-1126.11"/>
<polygon fill="grey" stroke="grey" stroke-width="2" points="264.57,-1125.64 259.95,-1116.1 257.61,-1126.44 264.57,-1125.64"/>
</g>
<!-- 8 -->
<g id="node9" class="node">
<title>8</title>
<path fill="none" stroke="#d87d56" stroke-width="2" d="M311.5,-1265C311.5,-1265 274.5,-1265 274.5,-1265 268.5,-1265 262.5,-1259 262.5,-1253 262.5,-1253 262.5,-1236 262.5,-1236 262.5,-1230 268.5,-1224 274.5,-1224 274.5,-1224 311.5,-1224 311.5,-1224 317.5,-1224 323.5,-1230 323.5,-1236 323.5,-1236 323.5,-1253 323.5,-1253 323.5,-1259 317.5,-1265 311.5,-1265"/>
<text text-anchor="middle" x="293" y="-1253" font-family="sans" font-size="10.00">reformat</text>
<text text-anchor="middle" x="293" y="-1242" font-family="sans" font-size="10.00">run: A1</text>
<text text-anchor="middle" x="293" y="-1231" font-family="sans" font-size="10.00">sample: A</text>
</g>
<!-- 8&#45;&gt;7 -->
<g id="edge12" class="edge">
<title>8&#45;&gt;7</title>
<path fill="none" stroke="grey" stroke-width="2" d="M285.62,-1223.69C282.66,-1215.73 279.2,-1206.44 276.01,-1197.89"/>
<polygon fill="grey" stroke="grey" stroke-width="2" points="279.22,-1196.47 272.45,-1188.32 272.66,-1198.91 279.22,-1196.47"/>
</g>
<!-- 23 -->
<g id="node24" class="node">
<title>23</title>
<path fill="none" stroke="#56d87b" stroke-width="2" d="M348,-1116C348,-1116 318,-1116 318,-1116 312,-1116 306,-1110 306,-1104 306,-1104 306,-1092 306,-1092 306,-1086 312,-1080 318,-1080 318,-1080 348,-1080 348,-1080 354,-1080 360,-1086 360,-1092 360,-1092 360,-1104 360,-1104 360,-1110 354,-1116 348,-1116"/>
<text text-anchor="middle" x="333" y="-1095.5" font-family="sans" font-size="10.00">fastqc</text>
</g>
<!-- 8&#45;&gt;23 -->
<g id="edge30" class="edge">
<title>8&#45;&gt;23</title>
<path fill="none" stroke="grey" stroke-width="2" d="M298.48,-1223.71C305.49,-1198.38 317.67,-1154.37 325.53,-1125.98"/>
<polygon fill="grey" stroke="grey" stroke-width="2" points="328.92,-1126.87 328.21,-1116.3 322.17,-1125 328.92,-1126.87"/>
</g>
<!-- 9 -->
<g id="node10" class="node">
<title>9</title>
<path fill="none" stroke="#56d892" stroke-width="2" d="M157,-324C157,-324 127,-324 127,-324 121,-324 115,-318 115,-312 115,-312 115,-300 115,-300 115,-294 121,-288 127,-288 127,-288 157,-288 157,-288 163,-288 169,-294 169,-300 169,-300 169,-312 169,-312 169,-318 163,-324 157,-324"/>
<text text-anchor="middle" x="142" y="-303.5" font-family="sans" font-size="10.00">vcffilter</text>
</g>
<!-- 9&#45;&gt;3 -->
<g id="edge8" class="edge">
<title>9&#45;&gt;3</title>
<path fill="none" stroke="grey" stroke-width="2" d="M121.24,-287.7C110.76,-278.97 97.89,-268.24 86.5,-258.75"/>
<polygon fill="grey" stroke="grey" stroke-width="2" points="88.45,-255.82 78.53,-252.1 83.97,-261.19 88.45,-255.82"/>
</g>
<!-- 20 -->
<g id="node21" class="node">
<title>20</title>
<path fill="none" stroke="#567bd8" stroke-width="2" d="M171,-252C171,-252 141,-252 141,-252 135,-252 129,-246 129,-240 129,-240 129,-228 129,-228 129,-222 135,-216 141,-216 141,-216 171,-216 171,-216 177,-216 183,-222 183,-228 183,-228 183,-240 183,-240 183,-246 177,-252 171,-252"/>
<text text-anchor="middle" x="156" y="-231.5" font-family="sans" font-size="10.00">snpeff</text>
</g>
<!-- 9&#45;&gt;20 -->
<g id="edge24" class="edge">
<title>9&#45;&gt;20</title>
<path fill="none" stroke="grey" stroke-width="2" d="M145.46,-287.7C147,-279.98 148.86,-270.71 150.58,-262.11"/>
<polygon fill="grey" stroke="grey" stroke-width="2" points="154.05,-262.6 152.58,-252.1 147.19,-261.22 154.05,-262.6"/>
</g>
<!-- 10 -->
<g id="node11" class="node">
<title>10</title>
<path fill="none" stroke="#56d86b" stroke-width="2" d="M157,-396C157,-396 127,-396 127,-396 121,-396 115,-390 115,-384 115,-384 115,-372 115,-372 115,-366 121,-360 127,-360 127,-360 157,-360 157,-360 163,-360 169,-366 169,-372 169,-372 169,-384 169,-384 169,-390 163,-396 157,-396"/>
<text text-anchor="middle" x="142" y="-375.5" font-family="sans" font-size="10.00">lofreq</text>
</g>
<!-- 10&#45;&gt;9 -->
<g id="edge13" class="edge">
<title>10&#45;&gt;9</title>
<path fill="none" stroke="grey" stroke-width="2" d="M142,-359.7C142,-351.98 142,-342.71 142,-334.11"/>
<polygon fill="grey" stroke="grey" stroke-width="2" points="145.5,-334.1 142,-324.1 138.5,-334.1 145.5,-334.1"/>
</g>
<!-- 11 -->
<g id="node12" class="node">
<title>11</title>
<path fill="none" stroke="#d89556" stroke-width="2" d="M157,-468C157,-468 127,-468 127,-468 121,-468 115,-462 115,-456 115,-456 115,-444 115,-444 115,-438 121,-432 127,-432 127,-432 157,-432 157,-432 163,-432 169,-438 169,-444 169,-444 169,-456 169,-456 169,-462 163,-468 157,-468"/>
<text text-anchor="middle" x="142" y="-447.5" font-family="sans" font-size="10.00">alnqual</text>
</g>
<!-- 11&#45;&gt;10 -->
<g id="edge14" class="edge">
<title>11&#45;&gt;10</title>
<path fill="none" stroke="grey" stroke-width="2" d="M142,-431.7C142,-423.98 142,-414.71 142,-406.11"/>
<polygon fill="grey" stroke="grey" stroke-width="2" points="145.5,-406.1 142,-396.1 138.5,-406.1 145.5,-406.1"/>
</g>
<!-- 12 -->
<g id="node13" class="node">
<title>12</title>
<path fill="none" stroke="#80d856" stroke-width="2" d="M166.5,-540C166.5,-540 133.5,-540 133.5,-540 127.5,-540 121.5,-534 121.5,-528 121.5,-528 121.5,-516 121.5,-516 121.5,-510 127.5,-504 133.5,-504 133.5,-504 166.5,-504 166.5,-504 172.5,-504 178.5,-510 178.5,-516 178.5,-516 178.5,-528 178.5,-528 178.5,-534 172.5,-540 166.5,-540"/>
<text text-anchor="middle" x="150" y="-519.5" font-family="sans" font-size="10.00">indelqual</text>
</g>
<!-- 12&#45;&gt;11 -->
<g id="edge15" class="edge">
<title>12&#45;&gt;11</title>
<path fill="none" stroke="grey" stroke-width="2" d="M148.02,-503.7C147.14,-495.98 146.08,-486.71 145.1,-478.11"/>
<polygon fill="grey" stroke="grey" stroke-width="2" points="148.57,-477.64 143.95,-468.1 141.61,-478.44 148.57,-477.64"/>
</g>
<!-- 13 -->
<g id="node14" class="node">
<title>13</title>
<path fill="none" stroke="#d8cb56" stroke-width="2" d="M228,-612C228,-612 198,-612 198,-612 192,-612 186,-606 186,-600 186,-600 186,-588 186,-588 186,-582 192,-576 198,-576 198,-576 228,-576 228,-576 234,-576 240,-582 240,-588 240,-588 240,-600 240,-600 240,-606 234,-612 228,-612"/>
<text text-anchor="middle" x="213" y="-591.5" font-family="sans" font-size="10.00">realign</text>
</g>
<!-- 13&#45;&gt;12 -->
<g id="edge16" class="edge">
<title>13&#45;&gt;12</title>
<path fill="none" stroke="grey" stroke-width="2" d="M197.43,-575.7C189.8,-567.22 180.48,-556.86 172.12,-547.58"/>
<polygon fill="grey" stroke="grey" stroke-width="2" points="174.69,-545.2 165.39,-540.1 169.48,-549.88 174.69,-545.2"/>
</g>
<!-- 24 -->
<g id="node25" class="node">
<title>24</title>
<path fill="none" stroke="#d8bc56" stroke-width="2" d="M287.5,-396C287.5,-396 254.5,-396 254.5,-396 248.5,-396 242.5,-390 242.5,-384 242.5,-384 242.5,-372 242.5,-372 242.5,-366 248.5,-360 254.5,-360 254.5,-360 287.5,-360 287.5,-360 293.5,-360 299.5,-366 299.5,-372 299.5,-372 299.5,-384 299.5,-384 299.5,-390 293.5,-396 287.5,-396"/>
<text text-anchor="middle" x="271" y="-375.5" font-family="sans" font-size="10.00">bamstats</text>
</g>
<!-- 13&#45;&gt;24 -->
<g id="edge31" class="edge">
<title>13&#45;&gt;24</title>
<path fill="none" stroke="grey" stroke-width="2" d="M218.46,-575.7C225.96,-551.65 239.71,-506.72 250,-468 255.47,-447.42 260.97,-423.96 264.97,-406.3"/>
<polygon fill="grey" stroke="grey" stroke-width="2" points="268.48,-406.66 267.26,-396.13 261.65,-405.12 268.48,-406.66"/>
</g>
<!-- 25 -->
<g id="node26" class="node">
<title>25</title>
<path fill="none" stroke="#566bd8" stroke-width="2" d="M229,-468C229,-468 199,-468 199,-468 193,-468 187,-462 187,-456 187,-456 187,-444 187,-444 187,-438 193,-432 199,-432 199,-432 229,-432 229,-432 235,-432 241,-438 241,-444 241,-444 241,-456 241,-456 241,-462 235,-468 229,-468"/>
<text text-anchor="middle" x="214" y="-447.5" font-family="sans" font-size="10.00">pileup</text>
</g>
<!-- 13&#45;&gt;25 -->
<g id="edge32" class="edge">
<title>13&#45;&gt;25</title>
<path fill="none" stroke="grey" stroke-width="2" d="M213.12,-575.87C213.29,-551.67 213.6,-507.21 213.81,-478.39"/>
<polygon fill="grey" stroke="grey" stroke-width="2" points="217.31,-478.21 213.88,-468.19 210.31,-478.16 217.31,-478.21"/>
</g>
<!-- 14 -->
<g id="node15" class="node">
<title>14</title>
<path fill="none" stroke="#8fd856" stroke-width="2" d="M238.5,-684C238.5,-684 173.5,-684 173.5,-684 167.5,-684 161.5,-678 161.5,-672 161.5,-672 161.5,-660 161.5,-660 161.5,-654 167.5,-648 173.5,-648 173.5,-648 238.5,-648 238.5,-648 244.5,-648 250.5,-654 250.5,-660 250.5,-660 250.5,-672 250.5,-672 250.5,-678 244.5,-684 238.5,-684"/>
<text text-anchor="middle" x="206" y="-663.5" font-family="sans" font-size="10.00">mark_duplicates</text>
</g>
<!-- 14&#45;&gt;13 -->
<g id="edge17" class="edge">
<title>14&#45;&gt;13</title>
<path fill="none" stroke="grey" stroke-width="2" d="M207.73,-647.7C208.5,-639.98 209.43,-630.71 210.29,-622.11"/>
<polygon fill="grey" stroke="grey" stroke-width="2" points="213.78,-622.4 211.29,-612.1 206.81,-621.71 213.78,-622.4"/>
</g>
<!-- 15 -->
<g id="node16" class="node">
<title>15</title>
<path fill="none" stroke="#ced856" stroke-width="2" d="M229.5,-756C229.5,-756 174.5,-756 174.5,-756 168.5,-756 162.5,-750 162.5,-744 162.5,-744 162.5,-732 162.5,-732 162.5,-726 168.5,-720 174.5,-720 174.5,-720 229.5,-720 229.5,-720 235.5,-720 241.5,-726 241.5,-732 241.5,-732 241.5,-744 241.5,-744 241.5,-750 235.5,-756 229.5,-756"/>
<text text-anchor="middle" x="202" y="-735.5" font-family="sans" font-size="10.00">samtools_sort</text>
</g>
<!-- 15&#45;&gt;14 -->
<g id="edge18" class="edge">
<title>15&#45;&gt;14</title>
<path fill="none" stroke="grey" stroke-width="2" d="M202.99,-719.7C203.43,-711.98 203.96,-702.71 204.45,-694.11"/>
<polygon fill="grey" stroke="grey" stroke-width="2" points="207.95,-694.29 205.02,-684.1 200.96,-693.89 207.95,-694.29"/>
</g>
<!-- 16 -->
<g id="node17" class="node">
<title>16</title>
<path fill="none" stroke="#d86e56" stroke-width="2" d="M236,-828C236,-828 166,-828 166,-828 160,-828 154,-822 154,-816 154,-816 154,-804 154,-804 154,-798 160,-792 166,-792 166,-792 236,-792 236,-792 242,-792 248,-798 248,-804 248,-804 248,-816 248,-816 248,-822 242,-828 236,-828"/>
<text text-anchor="middle" x="201" y="-807.5" font-family="sans" font-size="10.00">samtools_fixmate</text>
</g>
<!-- 16&#45;&gt;15 -->
<g id="edge19" class="edge">
<title>16&#45;&gt;15</title>
<path fill="none" stroke="grey" stroke-width="2" d="M201.25,-791.7C201.36,-783.98 201.49,-774.71 201.61,-766.11"/>
<polygon fill="grey" stroke="grey" stroke-width="2" points="205.11,-766.15 201.76,-756.1 198.11,-766.05 205.11,-766.15"/>
</g>
<!-- 17&#45;&gt;16 -->
<g id="edge20" class="edge">
<title>17&#45;&gt;16</title>
<path fill="none" stroke="grey" stroke-width="2" d="M209.28,-863.7C208.07,-855.98 206.61,-846.71 205.26,-838.11"/>
<polygon fill="grey" stroke="grey" stroke-width="2" points="208.7,-837.44 203.69,-828.1 201.78,-838.53 208.7,-837.44"/>
</g>
<!-- 18 -->
<g id="node19" class="node">
<title>18</title>
<path fill="none" stroke="#a7d856" stroke-width="2" d="M173.5,-108C173.5,-108 120.5,-108 120.5,-108 114.5,-108 108.5,-102 108.5,-96 108.5,-96 108.5,-84 108.5,-84 108.5,-78 114.5,-72 120.5,-72 120.5,-72 173.5,-72 173.5,-72 179.5,-72 185.5,-78 185.5,-84 185.5,-84 185.5,-96 185.5,-96 185.5,-102 179.5,-108 173.5,-108"/>
<text text-anchor="middle" x="147" y="-87.5" font-family="sans" font-size="10.00">merge_tables</text>
</g>
<!-- 18&#45;&gt;0 -->
<g id="edge2" class="edge">
<title>18&#45;&gt;0</title>
<path fill="none" stroke="grey" stroke-width="2" d="M155.16,-71.7C158.91,-63.73 163.45,-54.1 167.62,-45.26"/>
<polygon fill="grey" stroke="grey" stroke-width="2" points="170.84,-46.64 171.94,-36.1 164.51,-43.66 170.84,-46.64"/>
</g>
<!-- 19 -->
<g id="node20" class="node">
<title>19</title>
<path fill="none" stroke="#d8a456" stroke-width="2" d="M165,-180C165,-180 135,-180 135,-180 129,-180 123,-174 123,-168 123,-168 123,-156 123,-156 123,-150 129,-144 135,-144 135,-144 165,-144 165,-144 171,-144 177,-150 177,-156 177,-156 177,-168 177,-168 177,-174 171,-180 165,-180"/>
<text text-anchor="middle" x="150" y="-159.5" font-family="sans" font-size="10.00">snpsift</text>
</g>
<!-- 19&#45;&gt;18 -->
<g id="edge22" class="edge">
<title>19&#45;&gt;18</title>
<path fill="none" stroke="grey" stroke-width="2" d="M149.26,-143.7C148.93,-135.98 148.53,-126.71 148.16,-118.11"/>
<polygon fill="grey" stroke="grey" stroke-width="2" points="151.66,-117.95 147.73,-108.1 144.66,-118.25 151.66,-117.95"/>
</g>
<!-- 20&#45;&gt;19 -->
<g id="edge23" class="edge">
<title>20&#45;&gt;19</title>
<path fill="none" stroke="grey" stroke-width="2" d="M154.52,-215.7C153.86,-207.98 153.06,-198.71 152.32,-190.11"/>
<polygon fill="grey" stroke="grey" stroke-width="2" points="155.81,-189.77 151.47,-180.1 148.83,-190.37 155.81,-189.77"/>
</g>
<!-- 21 -->
<g id="node22" class="node">
<title>21</title>
<path fill="none" stroke="#68d856" stroke-width="2" d="M286,-180C286,-180 256,-180 256,-180 250,-180 244,-174 244,-168 244,-168 244,-156 244,-156 244,-150 250,-144 256,-144 256,-144 286,-144 286,-144 292,-144 298,-150 298,-156 298,-156 298,-168 298,-168 298,-174 292,-180 286,-180"/>
<text text-anchor="middle" x="271" y="-159.5" font-family="sans" font-size="10.00">multiqc</text>
</g>
<!-- 20&#45;&gt;21 -->
<g id="edge27" class="edge">
<title>20&#45;&gt;21</title>
<path fill="none" stroke="grey" stroke-width="2" d="M183.25,-216.41C198.72,-207 218.27,-195.1 234.99,-184.92"/>
<polygon fill="grey" stroke="grey" stroke-width="2" points="237.22,-187.66 243.94,-179.47 233.58,-181.68 237.22,-187.66"/>
</g>
<!-- 21&#45;&gt;0 -->
<g id="edge3" class="edge">
<title>21&#45;&gt;0</title>
<path fill="none" stroke="grey" stroke-width="2" d="M264.42,-143.82C256.95,-125.3 243.73,-95.34 228,-72 221.31,-62.07 212.84,-52.1 204.89,-43.52"/>
<polygon fill="grey" stroke="grey" stroke-width="2" points="207.23,-40.91 197.8,-36.09 202.17,-45.74 207.23,-40.91"/>
</g>
<!-- 22&#45;&gt;21 -->
<g id="edge25" class="edge">
<title>22&#45;&gt;21</title>
<path fill="none" stroke="grey" stroke-width="2" d="M308.06,-791.68C315.36,-765.11 328,-712.56 328,-667 328,-667 328,-667 328,-305 328,-261.8 305,-216.19 288.22,-188.66"/>
<polygon fill="grey" stroke="grey" stroke-width="2" points="291.09,-186.65 282.81,-180.04 285.17,-190.37 291.09,-186.65"/>
</g>
<!-- 23&#45;&gt;21 -->
<g id="edge26" class="edge">
<title>23&#45;&gt;21</title>
<path fill="none" stroke="grey" stroke-width="2" d="M340.08,-1079.85C350.31,-1053.49 368,-1001.21 368,-955 368,-955 368,-955 368,-305 368,-256.7 329.26,-212.73 300.74,-186.91"/>
<polygon fill="grey" stroke="grey" stroke-width="2" points="302.83,-184.09 293.01,-180.12 298.22,-189.35 302.83,-184.09"/>
</g>
<!-- 24&#45;&gt;21 -->
<g id="edge28" class="edge">
<title>24&#45;&gt;21</title>
<path fill="none" stroke="grey" stroke-width="2" d="M271,-359.85C271,-322.83 271,-235.18 271,-190.39"/>
<polygon fill="grey" stroke="grey" stroke-width="2" points="274.5,-190.23 271,-180.23 267.5,-190.23 274.5,-190.23"/>
</g>
<!-- 25&#45;&gt;0 -->
<g id="edge4" class="edge">
<title>25&#45;&gt;0</title>
<path fill="none" stroke="grey" stroke-width="2" d="M214,-431.95C214,-405.29 214,-352.11 214,-307 214,-307 214,-307 214,-161 214,-119.91 200.37,-73.92 190.37,-45.72"/>
<polygon fill="grey" stroke="grey" stroke-width="2" points="193.6,-44.36 186.88,-36.17 187.03,-46.76 193.6,-44.36"/>
</g>
</g>
</svg>
